G04 #@! TF.GenerationSoftware,KiCad,Pcbnew,(5.1.5)-3*
G04 #@! TF.CreationDate,2020-05-10T15:52:49-07:00*
G04 #@! TF.ProjectId,april_proj,61707269-6c5f-4707-926f-6a2e6b696361,rev?*
G04 #@! TF.SameCoordinates,Original*
G04 #@! TF.FileFunction,Copper,L2,Inr*
G04 #@! TF.FilePolarity,Positive*
%FSLAX46Y46*%
G04 Gerber Fmt 4.6, Leading zero omitted, Abs format (unit mm)*
G04 Created by KiCad (PCBNEW (5.1.5)-3) date 2020-05-10 15:52:49*
%MOMM*%
%LPD*%
G04 APERTURE LIST*
%ADD10C,5.599999*%
%ADD11R,1.350000X1.350000*%
%ADD12O,1.700000X1.700000*%
%ADD13R,1.700000X1.700000*%
%ADD14C,2.600000*%
%ADD15R,2.600000X2.600000*%
%ADD16O,1.050000X1.500000*%
%ADD17R,1.050000X1.500000*%
%ADD18C,0.609600*%
%ADD19C,0.800000*%
%ADD20C,0.152400*%
G04 APERTURE END LIST*
D10*
X74950000Y-23875000D03*
X40375000Y-78875000D03*
X74375000Y-78875000D03*
X33975000Y-24925000D03*
D11*
X71950000Y-52900000D03*
X62300000Y-71700000D03*
X44225000Y-52550000D03*
D12*
X66295000Y-28125000D03*
X68835000Y-28125000D03*
D13*
X71375000Y-28125000D03*
D14*
X38942004Y-27293122D03*
X43642004Y-24293122D03*
D15*
X43642004Y-30293122D03*
D16*
X61265000Y-29290000D03*
X59995000Y-29290000D03*
D17*
X62535000Y-29290000D03*
D18*
X47350000Y-77875000D03*
X45300000Y-77775000D03*
X39750000Y-56650000D03*
X38875000Y-51825000D03*
X41075000Y-51175000D03*
X40375000Y-53550000D03*
X39325000Y-51050000D03*
X41850000Y-51425000D03*
X35700000Y-77475000D03*
X35775000Y-79700000D03*
X70275000Y-31675000D03*
X70225000Y-49550000D03*
X35700000Y-43125000D03*
X35600000Y-60900000D03*
X53725000Y-77800000D03*
X56025000Y-77700000D03*
X35500000Y-37075000D03*
X35750000Y-54525000D03*
X47750000Y-49100000D03*
X56325000Y-30725000D03*
X65350000Y-33825000D03*
X73000000Y-61850000D03*
X68450000Y-54500000D03*
X72900000Y-68350000D03*
D19*
X73000000Y-48250000D03*
X73000000Y-50500000D03*
D18*
X73000000Y-42250000D03*
X73000000Y-39750000D03*
X68675000Y-41350000D03*
D19*
X45572004Y-24403122D03*
X43822003Y-26153123D03*
X43822003Y-22403122D03*
D18*
X58900000Y-69725000D03*
X35625000Y-62925000D03*
X35750000Y-52175000D03*
X35500000Y-45575000D03*
X35500000Y-34475000D03*
X72900000Y-70300000D03*
X62875000Y-64550000D03*
X73000000Y-59850000D03*
X68650000Y-31575000D03*
X50650000Y-71750000D03*
X57711827Y-66956066D03*
D19*
X41572004Y-24403124D03*
D18*
X56100000Y-68825000D03*
X60350000Y-34125000D03*
X39200000Y-55500000D03*
X35650000Y-71200000D03*
X35575000Y-69050000D03*
D19*
X69675000Y-38050000D03*
D18*
X59100000Y-70850000D03*
X68700000Y-53350000D03*
X52600000Y-71775000D03*
X58000000Y-65150000D03*
X54050000Y-70600000D03*
X60300000Y-33300000D03*
X70250000Y-30850000D03*
D20*
G36*
X78246401Y-44423800D02*
G01*
X73175000Y-44423800D01*
X73160134Y-44425264D01*
X73145840Y-44429600D01*
X73132666Y-44436642D01*
X73121118Y-44446118D01*
X73111642Y-44457666D01*
X73104600Y-44470840D01*
X73100264Y-44485134D01*
X73098800Y-44500000D01*
X73098800Y-46000000D01*
X73100264Y-46014866D01*
X73104600Y-46029160D01*
X73111642Y-46042334D01*
X73121118Y-46053882D01*
X73132666Y-46063358D01*
X73145840Y-46070400D01*
X73160134Y-46074736D01*
X73175000Y-46076200D01*
X78246401Y-46076200D01*
X78246400Y-64273800D01*
X73150000Y-64273800D01*
X73135134Y-64275264D01*
X73120840Y-64279600D01*
X73107666Y-64286642D01*
X73096118Y-64296118D01*
X73086642Y-64307666D01*
X73079600Y-64320840D01*
X73075264Y-64335134D01*
X73073800Y-64350000D01*
X73073800Y-65900000D01*
X73075264Y-65914866D01*
X73079600Y-65929160D01*
X73086642Y-65942334D01*
X73096118Y-65953882D01*
X73107666Y-65963358D01*
X73120840Y-65970400D01*
X73135134Y-65974736D01*
X73150000Y-65976200D01*
X78246400Y-65976200D01*
X78246400Y-83146400D01*
X51551200Y-83146400D01*
X51551200Y-81076346D01*
X72245496Y-81076346D01*
X72567552Y-81449166D01*
X73104476Y-81752319D01*
X73690226Y-81944899D01*
X74302291Y-82019505D01*
X74917151Y-81973270D01*
X75511176Y-81807969D01*
X76061538Y-81529956D01*
X76182448Y-81449166D01*
X76504504Y-81076346D01*
X74375000Y-78946842D01*
X72245496Y-81076346D01*
X51551200Y-81076346D01*
X51551200Y-78802291D01*
X71230495Y-78802291D01*
X71276730Y-79417151D01*
X71442031Y-80011176D01*
X71720044Y-80561538D01*
X71800834Y-80682448D01*
X72173654Y-81004504D01*
X74303158Y-78875000D01*
X74446842Y-78875000D01*
X76576346Y-81004504D01*
X76949166Y-80682448D01*
X77252319Y-80145524D01*
X77444899Y-79559774D01*
X77519505Y-78947709D01*
X77473270Y-78332849D01*
X77307969Y-77738824D01*
X77029956Y-77188462D01*
X76949166Y-77067552D01*
X76576346Y-76745496D01*
X74446842Y-78875000D01*
X74303158Y-78875000D01*
X72173654Y-76745496D01*
X71800834Y-77067552D01*
X71497681Y-77604476D01*
X71305101Y-78190226D01*
X71230495Y-78802291D01*
X51551200Y-78802291D01*
X51551200Y-78099386D01*
X51549736Y-78084520D01*
X51545400Y-78070226D01*
X51538358Y-78057052D01*
X51528882Y-78045504D01*
X51517334Y-78036028D01*
X51504160Y-78028986D01*
X51489866Y-78024650D01*
X51475000Y-78023186D01*
X49975000Y-78023186D01*
X49960134Y-78024650D01*
X49945840Y-78028986D01*
X49932666Y-78036028D01*
X49921118Y-78045504D01*
X49911642Y-78057052D01*
X49904600Y-78070226D01*
X49900264Y-78084520D01*
X49898800Y-78099386D01*
X49898800Y-83146400D01*
X30253600Y-83146400D01*
X30253600Y-81076346D01*
X38245496Y-81076346D01*
X38567552Y-81449166D01*
X39104476Y-81752319D01*
X39690226Y-81944899D01*
X40302291Y-82019505D01*
X40917151Y-81973270D01*
X41511176Y-81807969D01*
X42061538Y-81529956D01*
X42182448Y-81449166D01*
X42504504Y-81076346D01*
X40375000Y-78946842D01*
X38245496Y-81076346D01*
X30253600Y-81076346D01*
X30253600Y-78802291D01*
X37230495Y-78802291D01*
X37276730Y-79417151D01*
X37442031Y-80011176D01*
X37720044Y-80561538D01*
X37800834Y-80682448D01*
X38173654Y-81004504D01*
X40303158Y-78875000D01*
X40446842Y-78875000D01*
X42576346Y-81004504D01*
X42949166Y-80682448D01*
X43252319Y-80145524D01*
X43444899Y-79559774D01*
X43519505Y-78947709D01*
X43473270Y-78332849D01*
X43307969Y-77738824D01*
X43029956Y-77188462D01*
X42949166Y-77067552D01*
X42576346Y-76745496D01*
X40446842Y-78875000D01*
X40303158Y-78875000D01*
X38173654Y-76745496D01*
X37800834Y-77067552D01*
X37497681Y-77604476D01*
X37305101Y-78190226D01*
X37230495Y-78802291D01*
X30253600Y-78802291D01*
X30253600Y-76673654D01*
X38245496Y-76673654D01*
X40375000Y-78803158D01*
X42504504Y-76673654D01*
X42182448Y-76300834D01*
X41645524Y-75997681D01*
X41059774Y-75805101D01*
X40608581Y-75750104D01*
X50148800Y-75750104D01*
X50150010Y-76633987D01*
X50151474Y-76648749D01*
X50155810Y-76663043D01*
X50162852Y-76676217D01*
X50172328Y-76687765D01*
X50183876Y-76697241D01*
X50197050Y-76704283D01*
X50211344Y-76708619D01*
X50226210Y-76710083D01*
X51180805Y-76710083D01*
X51195773Y-76708598D01*
X51210062Y-76704243D01*
X51223226Y-76697183D01*
X51234760Y-76687691D01*
X51244221Y-76676131D01*
X51245540Y-76673654D01*
X72245496Y-76673654D01*
X74375000Y-78803158D01*
X76504504Y-76673654D01*
X76182448Y-76300834D01*
X75645524Y-75997681D01*
X75059774Y-75805101D01*
X74447709Y-75730495D01*
X73832849Y-75776730D01*
X73238824Y-75942031D01*
X72688462Y-76220044D01*
X72567552Y-76300834D01*
X72245496Y-76673654D01*
X51245540Y-76673654D01*
X51251245Y-76662947D01*
X51255561Y-76648646D01*
X51257005Y-76633779D01*
X51255794Y-75749896D01*
X51254330Y-75735134D01*
X51249994Y-75720840D01*
X51242952Y-75707666D01*
X51233476Y-75696118D01*
X51221928Y-75686642D01*
X51208754Y-75679600D01*
X51194460Y-75675264D01*
X51179594Y-75673800D01*
X50225000Y-75673800D01*
X50210032Y-75675285D01*
X50195743Y-75679640D01*
X50182579Y-75686700D01*
X50171045Y-75696192D01*
X50161584Y-75707752D01*
X50154561Y-75720936D01*
X50150244Y-75735236D01*
X50148800Y-75750104D01*
X40608581Y-75750104D01*
X40447709Y-75730495D01*
X39832849Y-75776730D01*
X39238824Y-75942031D01*
X38688462Y-76220044D01*
X38567552Y-76300834D01*
X38245496Y-76673654D01*
X30253600Y-76673654D01*
X30253600Y-75201810D01*
X35399639Y-75226199D01*
X35414866Y-75224736D01*
X35429160Y-75220400D01*
X35442334Y-75213358D01*
X35453882Y-75203882D01*
X35463358Y-75192334D01*
X35470400Y-75179160D01*
X35474736Y-75164866D01*
X35476200Y-75150000D01*
X35476200Y-74175104D01*
X50148800Y-74175104D01*
X50150010Y-75058987D01*
X50151474Y-75073749D01*
X50155810Y-75088043D01*
X50162852Y-75101217D01*
X50172328Y-75112765D01*
X50183876Y-75122241D01*
X50197050Y-75129283D01*
X50211344Y-75133619D01*
X50226210Y-75135083D01*
X51180805Y-75135083D01*
X51195773Y-75133598D01*
X51210062Y-75129243D01*
X51223226Y-75122183D01*
X51234760Y-75112691D01*
X51244221Y-75101131D01*
X51251245Y-75087947D01*
X51255561Y-75073646D01*
X51257005Y-75058779D01*
X51255794Y-74174896D01*
X51254330Y-74160134D01*
X51249994Y-74145840D01*
X51242952Y-74132666D01*
X51233476Y-74121118D01*
X51221928Y-74111642D01*
X51208754Y-74104600D01*
X51194460Y-74100264D01*
X51179594Y-74098800D01*
X50225000Y-74098800D01*
X50210032Y-74100285D01*
X50195743Y-74104640D01*
X50182579Y-74111700D01*
X50171045Y-74121192D01*
X50161584Y-74132752D01*
X50154561Y-74145936D01*
X50150244Y-74160236D01*
X50148800Y-74175104D01*
X35476200Y-74175104D01*
X35476200Y-73600000D01*
X35474736Y-73585134D01*
X35470400Y-73570840D01*
X35463358Y-73557666D01*
X35453882Y-73546118D01*
X35442334Y-73536642D01*
X35429160Y-73529600D01*
X35414866Y-73525264D01*
X35400000Y-73523800D01*
X30253600Y-73523800D01*
X30253600Y-73400000D01*
X50173800Y-73400000D01*
X50175264Y-73414866D01*
X50179600Y-73429160D01*
X50186642Y-73442334D01*
X50196118Y-73453882D01*
X50207666Y-73463358D01*
X50220840Y-73470400D01*
X50235134Y-73474736D01*
X50250000Y-73476200D01*
X50900000Y-73476200D01*
X50914866Y-73474736D01*
X50929160Y-73470400D01*
X50942334Y-73463358D01*
X50953882Y-73453882D01*
X50963358Y-73442334D01*
X50970400Y-73429160D01*
X50974736Y-73414866D01*
X50976200Y-73400000D01*
X50976200Y-72325000D01*
X50974736Y-72310134D01*
X50970400Y-72295840D01*
X50963358Y-72282666D01*
X50953882Y-72271118D01*
X50942334Y-72261642D01*
X50929160Y-72254600D01*
X50914866Y-72250264D01*
X50900000Y-72248800D01*
X50250001Y-72248800D01*
X50235135Y-72250264D01*
X50220841Y-72254600D01*
X50207667Y-72261642D01*
X50196120Y-72271118D01*
X50186643Y-72282665D01*
X50179601Y-72295839D01*
X50175265Y-72310134D01*
X50173801Y-72325000D01*
X50173800Y-73400000D01*
X30253600Y-73400000D01*
X30253600Y-71717777D01*
X52019000Y-71717777D01*
X52019000Y-71832223D01*
X52041328Y-71944471D01*
X52085125Y-72050207D01*
X52148708Y-72145366D01*
X52229634Y-72226292D01*
X52324793Y-72289875D01*
X52430529Y-72333672D01*
X52542777Y-72356000D01*
X52657223Y-72356000D01*
X52769471Y-72333672D01*
X52875207Y-72289875D01*
X52970366Y-72226292D01*
X53051292Y-72145366D01*
X53114875Y-72050207D01*
X53158672Y-71944471D01*
X53181000Y-71832223D01*
X53181000Y-71717777D01*
X53158672Y-71605529D01*
X53114875Y-71499793D01*
X53051292Y-71404634D01*
X52970366Y-71323708D01*
X52875207Y-71260125D01*
X52769471Y-71216328D01*
X52657223Y-71194000D01*
X52542777Y-71194000D01*
X52430529Y-71216328D01*
X52324793Y-71260125D01*
X52229634Y-71323708D01*
X52148708Y-71404634D01*
X52085125Y-71499793D01*
X52041328Y-71605529D01*
X52019000Y-71717777D01*
X30253600Y-71717777D01*
X30253600Y-71225000D01*
X51123800Y-71225000D01*
X51125264Y-71239866D01*
X51129600Y-71254160D01*
X51136642Y-71267334D01*
X51146118Y-71278882D01*
X51157666Y-71288358D01*
X51170840Y-71295400D01*
X51185134Y-71299736D01*
X51200000Y-71301200D01*
X51850000Y-71301200D01*
X51864866Y-71299736D01*
X51879160Y-71295400D01*
X51892334Y-71288358D01*
X51903882Y-71278882D01*
X51913358Y-71267334D01*
X51920400Y-71254160D01*
X51924736Y-71239866D01*
X51926200Y-71225000D01*
X51926200Y-70542777D01*
X53469000Y-70542777D01*
X53469000Y-70657223D01*
X53491328Y-70769471D01*
X53535125Y-70875207D01*
X53598708Y-70970366D01*
X53679634Y-71051292D01*
X53774793Y-71114875D01*
X53880529Y-71158672D01*
X53992777Y-71181000D01*
X54107223Y-71181000D01*
X54219471Y-71158672D01*
X54325207Y-71114875D01*
X54420366Y-71051292D01*
X54501292Y-70970366D01*
X54564875Y-70875207D01*
X54608672Y-70769471D01*
X54631000Y-70657223D01*
X54631000Y-70542777D01*
X54608672Y-70430529D01*
X54564875Y-70324793D01*
X54501292Y-70229634D01*
X54421658Y-70150000D01*
X55724539Y-70150000D01*
X55724539Y-70825000D01*
X55726003Y-70839866D01*
X55730339Y-70854160D01*
X55737381Y-70867334D01*
X55746857Y-70878882D01*
X55758405Y-70888358D01*
X55771579Y-70895400D01*
X55785873Y-70899736D01*
X55800739Y-70901200D01*
X56875739Y-70901200D01*
X56890605Y-70899736D01*
X56904899Y-70895400D01*
X56918073Y-70888358D01*
X56929621Y-70878882D01*
X56939097Y-70867334D01*
X56946139Y-70854160D01*
X56950475Y-70839866D01*
X56951939Y-70825000D01*
X56951939Y-70350000D01*
X57598799Y-70350000D01*
X57598799Y-71425000D01*
X57600263Y-71439866D01*
X57604599Y-71454160D01*
X57611641Y-71467334D01*
X57621117Y-71478882D01*
X57632665Y-71488358D01*
X57645839Y-71495400D01*
X57660133Y-71499736D01*
X57674999Y-71501200D01*
X58325000Y-71501200D01*
X58339866Y-71499736D01*
X58354160Y-71495400D01*
X58367334Y-71488358D01*
X58378882Y-71478882D01*
X58388358Y-71467334D01*
X58395400Y-71454160D01*
X58399736Y-71439866D01*
X58401200Y-71425000D01*
X58401200Y-70792777D01*
X58519000Y-70792777D01*
X58519000Y-70907223D01*
X58541328Y-71019471D01*
X58585125Y-71125207D01*
X58648708Y-71220366D01*
X58729634Y-71301292D01*
X58824793Y-71364875D01*
X58930529Y-71408672D01*
X59042777Y-71431000D01*
X59157223Y-71431000D01*
X59269471Y-71408672D01*
X59375207Y-71364875D01*
X59470366Y-71301292D01*
X59551292Y-71220366D01*
X59614875Y-71125207D01*
X59656381Y-71025000D01*
X61347464Y-71025000D01*
X61347464Y-72375000D01*
X61352797Y-72429145D01*
X61368590Y-72481208D01*
X61394237Y-72529191D01*
X61428752Y-72571248D01*
X61470809Y-72605763D01*
X61518792Y-72631410D01*
X61570855Y-72647203D01*
X61625000Y-72652536D01*
X62975000Y-72652536D01*
X63029145Y-72647203D01*
X63081208Y-72631410D01*
X63129191Y-72605763D01*
X63171248Y-72571248D01*
X63205763Y-72529191D01*
X63231410Y-72481208D01*
X63247203Y-72429145D01*
X63252536Y-72375000D01*
X63252536Y-71025000D01*
X63247203Y-70970855D01*
X63231410Y-70918792D01*
X63205763Y-70870809D01*
X63171248Y-70828752D01*
X63129191Y-70794237D01*
X63081208Y-70768590D01*
X63029145Y-70752797D01*
X62975000Y-70747464D01*
X61625000Y-70747464D01*
X61570855Y-70752797D01*
X61518792Y-70768590D01*
X61470809Y-70794237D01*
X61428752Y-70828752D01*
X61394237Y-70870809D01*
X61368590Y-70918792D01*
X61352797Y-70970855D01*
X61347464Y-71025000D01*
X59656381Y-71025000D01*
X59658672Y-71019471D01*
X59681000Y-70907223D01*
X59681000Y-70792777D01*
X59658672Y-70680529D01*
X59614875Y-70574793D01*
X59551292Y-70479634D01*
X59470366Y-70398708D01*
X59375207Y-70335125D01*
X59269471Y-70291328D01*
X59157223Y-70269000D01*
X59042777Y-70269000D01*
X58930529Y-70291328D01*
X58824793Y-70335125D01*
X58729634Y-70398708D01*
X58648708Y-70479634D01*
X58585125Y-70574793D01*
X58541328Y-70680529D01*
X58519000Y-70792777D01*
X58401200Y-70792777D01*
X58401200Y-70350000D01*
X58399736Y-70335134D01*
X58395400Y-70320840D01*
X58388358Y-70307666D01*
X58378882Y-70296118D01*
X58367334Y-70286642D01*
X58354160Y-70279600D01*
X58339866Y-70275264D01*
X58325000Y-70273800D01*
X57674999Y-70273800D01*
X57660133Y-70275264D01*
X57645839Y-70279600D01*
X57632665Y-70286642D01*
X57621117Y-70296118D01*
X57611641Y-70307666D01*
X57604599Y-70320840D01*
X57600263Y-70335134D01*
X57598799Y-70350000D01*
X56951939Y-70350000D01*
X56951939Y-70150000D01*
X56950475Y-70135134D01*
X56946139Y-70120840D01*
X56939097Y-70107666D01*
X56929621Y-70096118D01*
X56918073Y-70086642D01*
X56904899Y-70079600D01*
X56890605Y-70075264D01*
X56875739Y-70073800D01*
X55800739Y-70073800D01*
X55785873Y-70075264D01*
X55771579Y-70079600D01*
X55758405Y-70086642D01*
X55746857Y-70096118D01*
X55737381Y-70107666D01*
X55730339Y-70120840D01*
X55726003Y-70135134D01*
X55724539Y-70150000D01*
X54421658Y-70150000D01*
X54420366Y-70148708D01*
X54325207Y-70085125D01*
X54219471Y-70041328D01*
X54107223Y-70019000D01*
X53992777Y-70019000D01*
X53880529Y-70041328D01*
X53774793Y-70085125D01*
X53679634Y-70148708D01*
X53598708Y-70229634D01*
X53535125Y-70324793D01*
X53491328Y-70430529D01*
X53469000Y-70542777D01*
X51926200Y-70542777D01*
X51926200Y-70150000D01*
X51924736Y-70135134D01*
X51920400Y-70120840D01*
X51913358Y-70107666D01*
X51903882Y-70096118D01*
X51892334Y-70086642D01*
X51879160Y-70079600D01*
X51864866Y-70075264D01*
X51850000Y-70073800D01*
X51200001Y-70073800D01*
X51185135Y-70075264D01*
X51170841Y-70079600D01*
X51157667Y-70086642D01*
X51146120Y-70096118D01*
X51136643Y-70107665D01*
X51129601Y-70120839D01*
X51125265Y-70135134D01*
X51123801Y-70150000D01*
X51123800Y-71225000D01*
X30253600Y-71225000D01*
X30253600Y-69225000D01*
X53548800Y-69225000D01*
X53548800Y-69875000D01*
X53550264Y-69889866D01*
X53554600Y-69904160D01*
X53561642Y-69917334D01*
X53571118Y-69928882D01*
X53582666Y-69938358D01*
X53595840Y-69945400D01*
X53610134Y-69949736D01*
X53625000Y-69951200D01*
X54675000Y-69951200D01*
X54689866Y-69949736D01*
X54704160Y-69945400D01*
X54717334Y-69938358D01*
X54728882Y-69928882D01*
X54738358Y-69917334D01*
X54745400Y-69904160D01*
X54749736Y-69889866D01*
X54751200Y-69875000D01*
X54751200Y-69225000D01*
X54749736Y-69210134D01*
X54745400Y-69195840D01*
X54738358Y-69182666D01*
X54728882Y-69171118D01*
X54717334Y-69161642D01*
X54704160Y-69154600D01*
X54689866Y-69150264D01*
X54675000Y-69148800D01*
X53625000Y-69148800D01*
X53610134Y-69150264D01*
X53595840Y-69154600D01*
X53582666Y-69161642D01*
X53571118Y-69171118D01*
X53561642Y-69182666D01*
X53554600Y-69195840D01*
X53550264Y-69210134D01*
X53548800Y-69225000D01*
X30253600Y-69225000D01*
X30253600Y-68142421D01*
X58548800Y-68142421D01*
X58548800Y-69217421D01*
X58550264Y-69232287D01*
X58554600Y-69246581D01*
X58561642Y-69259755D01*
X58571118Y-69271303D01*
X58582666Y-69280779D01*
X58595840Y-69287821D01*
X58610134Y-69292157D01*
X58625000Y-69293621D01*
X59275001Y-69293621D01*
X59289867Y-69292157D01*
X59304161Y-69287821D01*
X59317335Y-69280779D01*
X59328883Y-69271303D01*
X59338359Y-69259755D01*
X59345401Y-69246581D01*
X59349737Y-69232287D01*
X59351201Y-69217421D01*
X59351201Y-68142421D01*
X59349737Y-68127555D01*
X59345401Y-68113261D01*
X59338359Y-68100087D01*
X59328883Y-68088539D01*
X59317335Y-68079063D01*
X59304161Y-68072021D01*
X59289867Y-68067685D01*
X59275001Y-68066221D01*
X58625000Y-68066221D01*
X58610134Y-68067685D01*
X58595840Y-68072021D01*
X58582666Y-68079063D01*
X58571118Y-68088539D01*
X58561642Y-68100087D01*
X58554600Y-68113261D01*
X58550264Y-68127555D01*
X58548800Y-68142421D01*
X30253600Y-68142421D01*
X30253600Y-66650000D01*
X58383248Y-66650000D01*
X58383248Y-67350000D01*
X58384712Y-67364866D01*
X58389048Y-67379160D01*
X58396090Y-67392334D01*
X58405566Y-67403882D01*
X58417114Y-67413358D01*
X58430288Y-67420400D01*
X58444582Y-67424736D01*
X58459448Y-67426200D01*
X59534448Y-67426200D01*
X59549314Y-67424736D01*
X59563608Y-67420400D01*
X59576782Y-67413358D01*
X59588330Y-67403882D01*
X59597806Y-67392334D01*
X59604848Y-67379160D01*
X59609184Y-67364866D01*
X59610648Y-67350000D01*
X59610648Y-66650000D01*
X59609184Y-66635134D01*
X59604848Y-66620840D01*
X59597806Y-66607666D01*
X59588330Y-66596118D01*
X59576782Y-66586642D01*
X59563608Y-66579600D01*
X59549314Y-66575264D01*
X59534448Y-66573800D01*
X58459448Y-66573800D01*
X58444582Y-66575264D01*
X58430288Y-66579600D01*
X58417114Y-66586642D01*
X58405566Y-66596118D01*
X58396090Y-66607666D01*
X58389048Y-66620840D01*
X58384712Y-66635134D01*
X58383248Y-66650000D01*
X30253600Y-66650000D01*
X30253600Y-65700000D01*
X56191753Y-65700000D01*
X56191753Y-66374998D01*
X56193217Y-66389864D01*
X56197553Y-66404158D01*
X56204595Y-66417332D01*
X56214071Y-66428879D01*
X56225618Y-66438356D01*
X56238792Y-66445398D01*
X56253087Y-66449734D01*
X56267953Y-66451198D01*
X57342954Y-66451201D01*
X57357820Y-66449737D01*
X57372115Y-66445401D01*
X57385289Y-66438359D01*
X57396836Y-66428882D01*
X57406312Y-66417335D01*
X57413354Y-66404161D01*
X57417690Y-66389867D01*
X57419154Y-66375001D01*
X57419153Y-65700000D01*
X57417689Y-65685134D01*
X57413353Y-65670840D01*
X57406311Y-65657666D01*
X57396835Y-65646118D01*
X57385287Y-65636642D01*
X57372113Y-65629600D01*
X57357819Y-65625264D01*
X57342953Y-65623800D01*
X56267953Y-65623800D01*
X56253087Y-65625264D01*
X56238793Y-65629600D01*
X56225619Y-65636642D01*
X56214071Y-65646118D01*
X56204595Y-65657666D01*
X56197553Y-65670840D01*
X56193217Y-65685134D01*
X56191753Y-65700000D01*
X30253600Y-65700000D01*
X30253600Y-65092777D01*
X57419000Y-65092777D01*
X57419000Y-65207223D01*
X57441328Y-65319471D01*
X57485125Y-65425207D01*
X57548708Y-65520366D01*
X57629634Y-65601292D01*
X57724793Y-65664875D01*
X57830529Y-65708672D01*
X57942777Y-65731000D01*
X58057223Y-65731000D01*
X58169471Y-65708672D01*
X58275207Y-65664875D01*
X58370366Y-65601292D01*
X58451292Y-65520366D01*
X58514875Y-65425207D01*
X58558672Y-65319471D01*
X58581000Y-65207223D01*
X58581000Y-65092777D01*
X58558672Y-64980529D01*
X58514875Y-64874793D01*
X58451292Y-64779634D01*
X58370366Y-64698708D01*
X58275207Y-64635125D01*
X58169471Y-64591328D01*
X58057223Y-64569000D01*
X57942777Y-64569000D01*
X57830529Y-64591328D01*
X57724793Y-64635125D01*
X57629634Y-64698708D01*
X57548708Y-64779634D01*
X57485125Y-64874793D01*
X57441328Y-64980529D01*
X57419000Y-65092777D01*
X30253600Y-65092777D01*
X30253600Y-61150000D01*
X38698800Y-61150000D01*
X38698800Y-62025000D01*
X38700264Y-62039866D01*
X38704600Y-62054160D01*
X38711642Y-62067334D01*
X38721118Y-62078882D01*
X38732666Y-62088358D01*
X38745840Y-62095400D01*
X38760134Y-62099736D01*
X38775000Y-62101200D01*
X39775000Y-62101200D01*
X39789866Y-62099736D01*
X39804160Y-62095400D01*
X39817334Y-62088358D01*
X39828882Y-62078882D01*
X39838358Y-62067334D01*
X39845400Y-62054160D01*
X39849736Y-62039866D01*
X39851200Y-62025000D01*
X39851200Y-61150000D01*
X39849736Y-61135134D01*
X39845400Y-61120840D01*
X39838358Y-61107666D01*
X39828882Y-61096118D01*
X39817334Y-61086642D01*
X39804160Y-61079600D01*
X39789866Y-61075264D01*
X39775000Y-61073800D01*
X38775000Y-61073800D01*
X38760134Y-61075264D01*
X38745840Y-61079600D01*
X38732666Y-61086642D01*
X38721118Y-61096118D01*
X38711642Y-61107666D01*
X38704600Y-61120840D01*
X38700264Y-61135134D01*
X38698800Y-61150000D01*
X30253600Y-61150000D01*
X30253600Y-59575000D01*
X38698800Y-59575000D01*
X38698800Y-60450000D01*
X38700264Y-60464866D01*
X38704600Y-60479160D01*
X38711642Y-60492334D01*
X38721118Y-60503882D01*
X38732666Y-60513358D01*
X38745840Y-60520400D01*
X38760134Y-60524736D01*
X38775000Y-60526200D01*
X39775000Y-60526200D01*
X39789866Y-60524736D01*
X39804160Y-60520400D01*
X39817334Y-60513358D01*
X39828882Y-60503882D01*
X39838358Y-60492334D01*
X39845400Y-60479160D01*
X39849736Y-60464866D01*
X39851200Y-60450000D01*
X39851200Y-59575000D01*
X39849736Y-59560134D01*
X39845400Y-59545840D01*
X39838358Y-59532666D01*
X39828882Y-59521118D01*
X39817334Y-59511642D01*
X39804160Y-59504600D01*
X39789866Y-59500264D01*
X39775000Y-59498800D01*
X38775000Y-59498800D01*
X38760134Y-59500264D01*
X38745840Y-59504600D01*
X38732666Y-59511642D01*
X38721118Y-59521118D01*
X38711642Y-59532666D01*
X38704600Y-59545840D01*
X38700264Y-59560134D01*
X38698800Y-59575000D01*
X30253600Y-59575000D01*
X30253600Y-58551200D01*
X35378767Y-58551200D01*
X35393633Y-58549736D01*
X35407927Y-58545400D01*
X35421101Y-58538358D01*
X35432649Y-58528882D01*
X35442125Y-58517334D01*
X35449167Y-58504160D01*
X35453503Y-58489866D01*
X35454967Y-58475000D01*
X35454967Y-57875000D01*
X37098800Y-57875000D01*
X37098800Y-58750000D01*
X37100264Y-58764866D01*
X37104600Y-58779160D01*
X37111642Y-58792334D01*
X37121118Y-58803882D01*
X37132666Y-58813358D01*
X37145840Y-58820400D01*
X37160134Y-58824736D01*
X37175000Y-58826200D01*
X38175000Y-58826200D01*
X38189866Y-58824736D01*
X38204160Y-58820400D01*
X38217334Y-58813358D01*
X38228882Y-58803882D01*
X38238358Y-58792334D01*
X38245400Y-58779160D01*
X38249736Y-58764866D01*
X38251200Y-58750000D01*
X38251200Y-57875000D01*
X38249736Y-57860134D01*
X38245400Y-57845840D01*
X38238358Y-57832666D01*
X38228882Y-57821118D01*
X38217334Y-57811642D01*
X38204160Y-57804600D01*
X38189866Y-57800264D01*
X38175000Y-57798800D01*
X37175000Y-57798800D01*
X37160134Y-57800264D01*
X37145840Y-57804600D01*
X37132666Y-57811642D01*
X37121118Y-57821118D01*
X37111642Y-57832666D01*
X37104600Y-57845840D01*
X37100264Y-57860134D01*
X37098800Y-57875000D01*
X35454967Y-57875000D01*
X35454967Y-56875000D01*
X35453503Y-56860134D01*
X35449167Y-56845840D01*
X35442125Y-56832666D01*
X35432649Y-56821118D01*
X35421101Y-56811642D01*
X35407927Y-56804600D01*
X35393633Y-56800264D01*
X35378767Y-56798800D01*
X30253600Y-56798800D01*
X30253600Y-56300000D01*
X37073800Y-56300000D01*
X37073800Y-57200000D01*
X37075264Y-57214866D01*
X37079600Y-57229160D01*
X37086642Y-57242334D01*
X37096118Y-57253882D01*
X37107666Y-57263358D01*
X37120840Y-57270400D01*
X37135134Y-57274736D01*
X37150000Y-57276200D01*
X38175000Y-57276200D01*
X38189866Y-57274736D01*
X38204160Y-57270400D01*
X38217334Y-57263358D01*
X38228882Y-57253882D01*
X38238358Y-57242334D01*
X38245400Y-57229160D01*
X38249736Y-57214866D01*
X38251200Y-57200000D01*
X38251200Y-57175000D01*
X39048800Y-57175000D01*
X39048800Y-57975000D01*
X39050264Y-57989866D01*
X39054600Y-58004160D01*
X39061642Y-58017334D01*
X39071118Y-58028882D01*
X39082666Y-58038358D01*
X39095840Y-58045400D01*
X39110134Y-58049736D01*
X39125000Y-58051200D01*
X39425000Y-58051200D01*
X39439866Y-58049736D01*
X39454160Y-58045400D01*
X39467334Y-58038358D01*
X39478882Y-58028882D01*
X39488358Y-58017334D01*
X39495400Y-58004160D01*
X39499736Y-57989866D01*
X39501200Y-57975000D01*
X39501200Y-57250000D01*
X68973800Y-57250000D01*
X68973800Y-58150000D01*
X68975264Y-58164866D01*
X68979600Y-58179160D01*
X68986642Y-58192334D01*
X68996118Y-58203882D01*
X69007666Y-58213358D01*
X69020840Y-58220400D01*
X69035134Y-58224736D01*
X69050000Y-58226200D01*
X70050000Y-58226200D01*
X70064866Y-58224736D01*
X70079160Y-58220400D01*
X70092334Y-58213358D01*
X70103882Y-58203882D01*
X70113358Y-58192334D01*
X70120400Y-58179160D01*
X70124736Y-58164866D01*
X70126200Y-58150000D01*
X70126200Y-57250000D01*
X70124736Y-57235134D01*
X70120400Y-57220840D01*
X70113358Y-57207666D01*
X70103882Y-57196118D01*
X70092334Y-57186642D01*
X70079160Y-57179600D01*
X70064866Y-57175264D01*
X70050000Y-57173800D01*
X69050000Y-57173800D01*
X69035134Y-57175264D01*
X69020840Y-57179600D01*
X69007666Y-57186642D01*
X68996118Y-57196118D01*
X68986642Y-57207666D01*
X68979600Y-57220840D01*
X68975264Y-57235134D01*
X68973800Y-57250000D01*
X39501200Y-57250000D01*
X39501200Y-57175813D01*
X39580529Y-57208672D01*
X39692777Y-57231000D01*
X39807223Y-57231000D01*
X39919471Y-57208672D01*
X40025207Y-57164875D01*
X40120366Y-57101292D01*
X40201292Y-57020366D01*
X40264875Y-56925207D01*
X40308672Y-56819471D01*
X40331000Y-56707223D01*
X40331000Y-56592777D01*
X40308672Y-56480529D01*
X40264875Y-56374793D01*
X40201292Y-56279634D01*
X40120366Y-56198708D01*
X40025207Y-56135125D01*
X39919471Y-56091328D01*
X39807223Y-56069000D01*
X39692777Y-56069000D01*
X39580529Y-56091328D01*
X39474793Y-56135125D01*
X39379634Y-56198708D01*
X39298708Y-56279634D01*
X39235125Y-56374793D01*
X39191328Y-56480529D01*
X39169000Y-56592777D01*
X39169000Y-56707223D01*
X39191328Y-56819471D01*
X39235125Y-56925207D01*
X39298708Y-57020366D01*
X39377142Y-57098800D01*
X39125000Y-57098800D01*
X39110134Y-57100264D01*
X39095840Y-57104600D01*
X39082666Y-57111642D01*
X39071118Y-57121118D01*
X39061642Y-57132666D01*
X39054600Y-57145840D01*
X39050264Y-57160134D01*
X39048800Y-57175000D01*
X38251200Y-57175000D01*
X38251200Y-56300000D01*
X38249736Y-56285134D01*
X38245400Y-56270840D01*
X38238358Y-56257666D01*
X38228882Y-56246118D01*
X38217334Y-56236642D01*
X38204160Y-56229600D01*
X38189866Y-56225264D01*
X38175000Y-56223800D01*
X37150000Y-56223800D01*
X37135134Y-56225264D01*
X37120840Y-56229600D01*
X37107666Y-56236642D01*
X37096118Y-56246118D01*
X37086642Y-56257666D01*
X37079600Y-56270840D01*
X37075264Y-56285134D01*
X37073800Y-56300000D01*
X30253600Y-56300000D01*
X30253600Y-55600001D01*
X65173799Y-55600001D01*
X65173799Y-56600000D01*
X65175263Y-56614866D01*
X65179599Y-56629160D01*
X65186641Y-56642334D01*
X65196117Y-56653882D01*
X65207665Y-56663358D01*
X65220839Y-56670400D01*
X65235133Y-56674736D01*
X65249999Y-56676200D01*
X66149999Y-56676200D01*
X66164865Y-56674736D01*
X66179159Y-56670400D01*
X66192333Y-56663358D01*
X66203880Y-56653882D01*
X66213357Y-56642335D01*
X66220399Y-56629161D01*
X66224735Y-56614866D01*
X66226199Y-56600000D01*
X66226199Y-55625000D01*
X66773800Y-55625000D01*
X66773800Y-56624999D01*
X66775264Y-56639865D01*
X66779600Y-56654159D01*
X66786642Y-56667333D01*
X66796118Y-56678881D01*
X66807666Y-56688357D01*
X66820840Y-56695399D01*
X66835134Y-56699735D01*
X66850000Y-56701199D01*
X67750000Y-56701199D01*
X67764866Y-56699735D01*
X67779160Y-56695399D01*
X67792334Y-56688357D01*
X67803881Y-56678881D01*
X67813358Y-56667334D01*
X67820400Y-56654160D01*
X67824736Y-56639865D01*
X67826200Y-56624999D01*
X67826200Y-55663600D01*
X69023800Y-55663600D01*
X69023800Y-56563600D01*
X69025264Y-56578466D01*
X69029600Y-56592760D01*
X69036642Y-56605934D01*
X69046118Y-56617482D01*
X69057666Y-56626958D01*
X69070840Y-56634000D01*
X69085134Y-56638336D01*
X69100000Y-56639800D01*
X70100000Y-56639800D01*
X70114866Y-56638336D01*
X70129160Y-56634000D01*
X70142334Y-56626958D01*
X70153882Y-56617482D01*
X70163358Y-56605934D01*
X70170400Y-56592760D01*
X70174736Y-56578466D01*
X70176200Y-56563600D01*
X70176200Y-55663600D01*
X70174736Y-55648734D01*
X70170400Y-55634440D01*
X70163358Y-55621266D01*
X70153882Y-55609718D01*
X70142334Y-55600242D01*
X70129160Y-55593200D01*
X70114866Y-55588864D01*
X70100000Y-55587400D01*
X69100000Y-55587400D01*
X69085134Y-55588864D01*
X69070840Y-55593200D01*
X69057666Y-55600242D01*
X69046118Y-55609718D01*
X69036642Y-55621266D01*
X69029600Y-55634440D01*
X69025264Y-55648734D01*
X69023800Y-55663600D01*
X67826200Y-55663600D01*
X67826201Y-55624999D01*
X67824737Y-55610133D01*
X67820401Y-55595838D01*
X67813359Y-55582664D01*
X67803882Y-55571117D01*
X67792335Y-55561641D01*
X67779161Y-55554599D01*
X67764867Y-55550263D01*
X67750001Y-55548799D01*
X66850000Y-55548800D01*
X66835134Y-55550264D01*
X66820840Y-55554600D01*
X66807666Y-55561642D01*
X66796118Y-55571118D01*
X66786642Y-55582666D01*
X66779600Y-55595840D01*
X66775264Y-55610134D01*
X66773800Y-55625000D01*
X66226199Y-55625000D01*
X66226200Y-55600000D01*
X66224736Y-55585134D01*
X66220400Y-55570839D01*
X66213358Y-55557665D01*
X66203881Y-55546118D01*
X66192334Y-55536642D01*
X66179160Y-55529600D01*
X66164866Y-55525264D01*
X66150000Y-55523800D01*
X65249999Y-55523801D01*
X65235133Y-55525265D01*
X65220839Y-55529601D01*
X65207665Y-55536643D01*
X65196117Y-55546119D01*
X65186641Y-55557667D01*
X65179599Y-55570841D01*
X65175263Y-55585135D01*
X65173799Y-55600001D01*
X30253600Y-55600001D01*
X30253600Y-54100000D01*
X39548800Y-54100000D01*
X39548800Y-54900000D01*
X39550264Y-54914866D01*
X39554600Y-54929160D01*
X39561642Y-54942334D01*
X39571118Y-54953882D01*
X39582666Y-54963358D01*
X39595840Y-54970400D01*
X39610134Y-54974736D01*
X39625000Y-54976200D01*
X39925000Y-54976200D01*
X39939866Y-54974736D01*
X39954160Y-54970400D01*
X39967334Y-54963358D01*
X39978882Y-54953882D01*
X39988358Y-54942334D01*
X39995400Y-54929160D01*
X39999736Y-54914866D01*
X40001200Y-54900000D01*
X40001200Y-54100000D01*
X39999736Y-54085134D01*
X39995400Y-54070840D01*
X39988358Y-54057666D01*
X39978882Y-54046118D01*
X39967334Y-54036642D01*
X39954160Y-54029600D01*
X39939866Y-54025264D01*
X39925000Y-54023800D01*
X39625000Y-54023800D01*
X39610134Y-54025264D01*
X39595840Y-54029600D01*
X39582666Y-54036642D01*
X39571118Y-54046118D01*
X39561642Y-54057666D01*
X39554600Y-54070840D01*
X39550264Y-54085134D01*
X39548800Y-54100000D01*
X30253600Y-54100000D01*
X30253600Y-53492777D01*
X39794000Y-53492777D01*
X39794000Y-53607223D01*
X39816328Y-53719471D01*
X39860125Y-53825207D01*
X39923708Y-53920366D01*
X40004634Y-54001292D01*
X40071389Y-54045896D01*
X40071118Y-54046118D01*
X40061642Y-54057666D01*
X40054600Y-54070840D01*
X40050264Y-54085134D01*
X40048800Y-54100000D01*
X40048800Y-54900000D01*
X40050264Y-54914866D01*
X40054600Y-54929160D01*
X40061642Y-54942334D01*
X40071118Y-54953882D01*
X40082666Y-54963358D01*
X40095840Y-54970400D01*
X40110134Y-54974736D01*
X40125000Y-54976200D01*
X40425000Y-54976200D01*
X40439866Y-54974736D01*
X40454160Y-54970400D01*
X40467334Y-54963358D01*
X40478882Y-54953882D01*
X40488358Y-54942334D01*
X40495400Y-54929160D01*
X40499736Y-54914866D01*
X40501200Y-54900000D01*
X40501200Y-54150000D01*
X68923800Y-54150000D01*
X68923800Y-54850000D01*
X68925264Y-54864866D01*
X68929600Y-54879160D01*
X68936642Y-54892334D01*
X68946118Y-54903882D01*
X68957666Y-54913358D01*
X68970840Y-54920400D01*
X68985134Y-54924736D01*
X69000000Y-54926200D01*
X70150000Y-54926200D01*
X70164866Y-54924736D01*
X70179160Y-54920400D01*
X70192334Y-54913358D01*
X70203882Y-54903882D01*
X70213358Y-54892334D01*
X70220400Y-54879160D01*
X70224736Y-54864866D01*
X70226200Y-54850000D01*
X70226200Y-54150000D01*
X70224736Y-54135134D01*
X70220400Y-54120840D01*
X70213358Y-54107666D01*
X70203882Y-54096118D01*
X70192334Y-54086642D01*
X70179160Y-54079600D01*
X70164866Y-54075264D01*
X70150000Y-54073800D01*
X69000000Y-54073800D01*
X68985134Y-54075264D01*
X68970840Y-54079600D01*
X68957666Y-54086642D01*
X68946118Y-54096118D01*
X68936642Y-54107666D01*
X68929600Y-54120840D01*
X68925264Y-54135134D01*
X68923800Y-54150000D01*
X40501200Y-54150000D01*
X40501200Y-54117279D01*
X40544471Y-54108672D01*
X40650207Y-54064875D01*
X40745366Y-54001292D01*
X40826292Y-53920366D01*
X40889875Y-53825207D01*
X40933672Y-53719471D01*
X40956000Y-53607223D01*
X40956000Y-53492777D01*
X40933672Y-53380529D01*
X40889875Y-53274793D01*
X40826292Y-53179634D01*
X40745366Y-53098708D01*
X40674265Y-53051200D01*
X41075000Y-53051200D01*
X41089866Y-53049736D01*
X41104160Y-53045400D01*
X41117334Y-53038358D01*
X41128882Y-53028882D01*
X41138358Y-53017334D01*
X41145400Y-53004160D01*
X41149736Y-52989866D01*
X41151200Y-52975000D01*
X41151200Y-51900000D01*
X41149736Y-51885134D01*
X41146662Y-51875000D01*
X43272464Y-51875000D01*
X43272464Y-53225000D01*
X43277797Y-53279145D01*
X43293590Y-53331208D01*
X43319237Y-53379191D01*
X43353752Y-53421248D01*
X43395809Y-53455763D01*
X43443792Y-53481410D01*
X43495855Y-53497203D01*
X43550000Y-53502536D01*
X44900000Y-53502536D01*
X44954145Y-53497203D01*
X45006208Y-53481410D01*
X45054191Y-53455763D01*
X45096248Y-53421248D01*
X45130763Y-53379191D01*
X45156410Y-53331208D01*
X45172203Y-53279145D01*
X45177536Y-53225000D01*
X45177536Y-53200000D01*
X66723800Y-53200000D01*
X66723800Y-53900000D01*
X66725264Y-53914866D01*
X66729600Y-53929160D01*
X66736642Y-53942334D01*
X66746118Y-53953882D01*
X66757666Y-53963358D01*
X66770840Y-53970400D01*
X66785134Y-53974736D01*
X66800000Y-53976200D01*
X67900000Y-53976200D01*
X67914866Y-53974736D01*
X67929160Y-53970400D01*
X67942334Y-53963358D01*
X67953882Y-53953882D01*
X67963358Y-53942334D01*
X67970400Y-53929160D01*
X67974736Y-53914866D01*
X67976200Y-53900000D01*
X67976200Y-53292777D01*
X68119000Y-53292777D01*
X68119000Y-53407223D01*
X68141328Y-53519471D01*
X68185125Y-53625207D01*
X68248708Y-53720366D01*
X68329634Y-53801292D01*
X68424793Y-53864875D01*
X68530529Y-53908672D01*
X68642777Y-53931000D01*
X68757223Y-53931000D01*
X68869471Y-53908672D01*
X68975207Y-53864875D01*
X69070366Y-53801292D01*
X69151292Y-53720366D01*
X69214875Y-53625207D01*
X69258672Y-53519471D01*
X69281000Y-53407223D01*
X69281000Y-53292777D01*
X69258672Y-53180529D01*
X69214875Y-53074793D01*
X69151292Y-52979634D01*
X69070366Y-52898708D01*
X68975207Y-52835125D01*
X68869471Y-52791328D01*
X68757223Y-52769000D01*
X68642777Y-52769000D01*
X68530529Y-52791328D01*
X68424793Y-52835125D01*
X68329634Y-52898708D01*
X68248708Y-52979634D01*
X68185125Y-53074793D01*
X68141328Y-53180529D01*
X68119000Y-53292777D01*
X67976200Y-53292777D01*
X67976200Y-53200000D01*
X67974736Y-53185134D01*
X67970400Y-53170840D01*
X67963358Y-53157666D01*
X67953882Y-53146118D01*
X67942334Y-53136642D01*
X67929160Y-53129600D01*
X67914866Y-53125264D01*
X67900000Y-53123800D01*
X66800000Y-53123800D01*
X66785134Y-53125264D01*
X66770840Y-53129600D01*
X66757666Y-53136642D01*
X66746118Y-53146118D01*
X66736642Y-53157666D01*
X66729600Y-53170840D01*
X66725264Y-53185134D01*
X66723800Y-53200000D01*
X45177536Y-53200000D01*
X45177536Y-52225000D01*
X70997464Y-52225000D01*
X70997464Y-53575000D01*
X71002797Y-53629145D01*
X71018590Y-53681208D01*
X71044237Y-53729191D01*
X71078752Y-53771248D01*
X71120809Y-53805763D01*
X71168792Y-53831410D01*
X71220855Y-53847203D01*
X71275000Y-53852536D01*
X72625000Y-53852536D01*
X72679145Y-53847203D01*
X72731208Y-53831410D01*
X72779191Y-53805763D01*
X72821248Y-53771248D01*
X72855763Y-53729191D01*
X72881410Y-53681208D01*
X72897203Y-53629145D01*
X72902536Y-53575000D01*
X72902536Y-52225000D01*
X72897203Y-52170855D01*
X72881410Y-52118792D01*
X72855763Y-52070809D01*
X72821248Y-52028752D01*
X72779191Y-51994237D01*
X72731208Y-51968590D01*
X72679145Y-51952797D01*
X72625000Y-51947464D01*
X71275000Y-51947464D01*
X71220855Y-51952797D01*
X71168792Y-51968590D01*
X71120809Y-51994237D01*
X71078752Y-52028752D01*
X71044237Y-52070809D01*
X71018590Y-52118792D01*
X71002797Y-52170855D01*
X70997464Y-52225000D01*
X45177536Y-52225000D01*
X45177536Y-51875000D01*
X45172203Y-51820855D01*
X45156410Y-51768792D01*
X45130763Y-51720809D01*
X45096248Y-51678752D01*
X45054191Y-51644237D01*
X45006208Y-51618590D01*
X44954145Y-51602797D01*
X44900000Y-51597464D01*
X43550000Y-51597464D01*
X43495855Y-51602797D01*
X43443792Y-51618590D01*
X43395809Y-51644237D01*
X43353752Y-51678752D01*
X43319237Y-51720809D01*
X43293590Y-51768792D01*
X43277797Y-51820855D01*
X43272464Y-51875000D01*
X41146662Y-51875000D01*
X41145400Y-51870840D01*
X41138358Y-51857666D01*
X41128882Y-51846118D01*
X41117334Y-51836642D01*
X41104160Y-51829600D01*
X41089866Y-51825264D01*
X41075000Y-51823800D01*
X40425000Y-51823800D01*
X40410134Y-51825264D01*
X40395840Y-51829600D01*
X40382666Y-51836642D01*
X40371118Y-51846118D01*
X40361642Y-51857666D01*
X40354600Y-51870840D01*
X40350264Y-51885134D01*
X40348800Y-51900000D01*
X40348800Y-52969000D01*
X40317777Y-52969000D01*
X40205529Y-52991328D01*
X40099793Y-53035125D01*
X40004634Y-53098708D01*
X39923708Y-53179634D01*
X39860125Y-53274793D01*
X39816328Y-53380529D01*
X39794000Y-53492777D01*
X30253600Y-53492777D01*
X30253600Y-50992777D01*
X38744000Y-50992777D01*
X38744000Y-51107223D01*
X38766328Y-51219471D01*
X38810125Y-51325207D01*
X38873708Y-51420366D01*
X38954634Y-51501292D01*
X39049793Y-51564875D01*
X39155529Y-51608672D01*
X39267777Y-51631000D01*
X39382223Y-51631000D01*
X39494471Y-51608672D01*
X39600207Y-51564875D01*
X39695366Y-51501292D01*
X39776292Y-51420366D01*
X39839875Y-51325207D01*
X39883672Y-51219471D01*
X39903900Y-51117777D01*
X40494000Y-51117777D01*
X40494000Y-51232223D01*
X40516328Y-51344471D01*
X40560125Y-51450207D01*
X40623708Y-51545366D01*
X40704634Y-51626292D01*
X40799793Y-51689875D01*
X40905529Y-51733672D01*
X41017777Y-51756000D01*
X41132223Y-51756000D01*
X41244471Y-51733672D01*
X41350207Y-51689875D01*
X41445366Y-51626292D01*
X41526292Y-51545366D01*
X41589875Y-51450207D01*
X41633672Y-51344471D01*
X41656000Y-51232223D01*
X41656000Y-51117777D01*
X41633672Y-51005529D01*
X41589875Y-50899793D01*
X41557406Y-50851200D01*
X42025000Y-50851200D01*
X42039866Y-50849736D01*
X42054160Y-50845400D01*
X42067334Y-50838358D01*
X42078882Y-50828882D01*
X42088358Y-50817334D01*
X42095400Y-50804160D01*
X42099736Y-50789866D01*
X42101200Y-50775000D01*
X42101200Y-49700000D01*
X42099736Y-49685134D01*
X42095400Y-49670840D01*
X42088358Y-49657666D01*
X42078882Y-49646118D01*
X42067334Y-49636642D01*
X42054160Y-49629600D01*
X42039866Y-49625264D01*
X42025000Y-49623800D01*
X41375000Y-49623800D01*
X41360134Y-49625264D01*
X41345840Y-49629600D01*
X41332666Y-49636642D01*
X41321118Y-49646118D01*
X41311642Y-49657666D01*
X41304600Y-49670840D01*
X41300264Y-49685134D01*
X41298800Y-49700000D01*
X41298800Y-50638832D01*
X41244471Y-50616328D01*
X41132223Y-50594000D01*
X41017777Y-50594000D01*
X40905529Y-50616328D01*
X40799793Y-50660125D01*
X40704634Y-50723708D01*
X40623708Y-50804634D01*
X40560125Y-50899793D01*
X40516328Y-51005529D01*
X40494000Y-51117777D01*
X39903900Y-51117777D01*
X39906000Y-51107223D01*
X39906000Y-50992777D01*
X39883672Y-50880529D01*
X39839875Y-50774793D01*
X39776292Y-50679634D01*
X39695366Y-50598708D01*
X39600207Y-50535125D01*
X39494471Y-50491328D01*
X39382223Y-50469000D01*
X39267777Y-50469000D01*
X39155529Y-50491328D01*
X39049793Y-50535125D01*
X38954634Y-50598708D01*
X38873708Y-50679634D01*
X38810125Y-50774793D01*
X38766328Y-50880529D01*
X38744000Y-50992777D01*
X30253600Y-50992777D01*
X30253600Y-48850000D01*
X68473800Y-48850000D01*
X68473800Y-49750000D01*
X68475264Y-49764866D01*
X68479600Y-49779160D01*
X68486642Y-49792334D01*
X68496118Y-49803882D01*
X68507666Y-49813358D01*
X68520840Y-49820400D01*
X68535134Y-49824736D01*
X68550000Y-49826200D01*
X69550000Y-49826200D01*
X69564866Y-49824736D01*
X69579160Y-49820400D01*
X69592334Y-49813358D01*
X69603882Y-49803882D01*
X69613358Y-49792334D01*
X69620400Y-49779160D01*
X69624736Y-49764866D01*
X69626200Y-49750000D01*
X69626200Y-48850000D01*
X69624736Y-48835134D01*
X69620400Y-48820840D01*
X69613358Y-48807666D01*
X69603882Y-48796118D01*
X69592334Y-48786642D01*
X69579160Y-48779600D01*
X69564866Y-48775264D01*
X69550000Y-48773800D01*
X68550000Y-48773800D01*
X68535134Y-48775264D01*
X68520840Y-48779600D01*
X68507666Y-48786642D01*
X68496118Y-48796118D01*
X68486642Y-48807666D01*
X68479600Y-48820840D01*
X68475264Y-48835134D01*
X68473800Y-48850000D01*
X30253600Y-48850000D01*
X30253600Y-47300000D01*
X68473800Y-47300000D01*
X68473800Y-48200000D01*
X68475264Y-48214866D01*
X68479600Y-48229160D01*
X68486642Y-48242334D01*
X68496118Y-48253882D01*
X68507666Y-48263358D01*
X68520840Y-48270400D01*
X68535134Y-48274736D01*
X68550000Y-48276200D01*
X69550000Y-48276200D01*
X69564866Y-48274736D01*
X69579160Y-48270400D01*
X69592334Y-48263358D01*
X69603882Y-48253882D01*
X69613358Y-48242334D01*
X69620400Y-48229160D01*
X69624736Y-48214866D01*
X69626200Y-48200000D01*
X69626200Y-47300000D01*
X69624736Y-47285134D01*
X69620400Y-47270840D01*
X69613358Y-47257666D01*
X69603882Y-47246118D01*
X69592334Y-47236642D01*
X69579160Y-47229600D01*
X69564866Y-47225264D01*
X69550000Y-47223800D01*
X68550000Y-47223800D01*
X68535134Y-47225264D01*
X68520840Y-47229600D01*
X68507666Y-47236642D01*
X68496118Y-47246118D01*
X68486642Y-47257666D01*
X68479600Y-47270840D01*
X68475264Y-47285134D01*
X68473800Y-47300000D01*
X30253600Y-47300000D01*
X30253600Y-40901200D01*
X35350000Y-40901200D01*
X35364866Y-40899736D01*
X35379160Y-40895400D01*
X35392334Y-40888358D01*
X35403882Y-40878882D01*
X35413358Y-40867334D01*
X35420400Y-40854160D01*
X35424736Y-40839866D01*
X35426200Y-40825000D01*
X35426200Y-39275000D01*
X35424736Y-39260134D01*
X35420400Y-39245840D01*
X35413358Y-39232666D01*
X35403882Y-39221118D01*
X35392334Y-39211642D01*
X35379160Y-39204600D01*
X35364866Y-39200264D01*
X35350000Y-39198800D01*
X30253600Y-39198800D01*
X30253600Y-37983400D01*
X68998800Y-37983400D01*
X68998800Y-38116600D01*
X69024786Y-38247240D01*
X69075759Y-38370301D01*
X69149761Y-38481052D01*
X69243948Y-38575239D01*
X69354699Y-38649241D01*
X69477760Y-38700214D01*
X69608400Y-38726200D01*
X69741600Y-38726200D01*
X69872240Y-38700214D01*
X69995301Y-38649241D01*
X70106052Y-38575239D01*
X70200239Y-38481052D01*
X70274241Y-38370301D01*
X70325214Y-38247240D01*
X70351200Y-38116600D01*
X70351200Y-37983400D01*
X70325214Y-37852760D01*
X70274241Y-37729699D01*
X70200239Y-37618948D01*
X70106052Y-37524761D01*
X69995301Y-37450759D01*
X69872240Y-37399786D01*
X69741600Y-37373800D01*
X69608400Y-37373800D01*
X69477760Y-37399786D01*
X69354699Y-37450759D01*
X69243948Y-37524761D01*
X69149761Y-37618948D01*
X69075759Y-37729699D01*
X69024786Y-37852760D01*
X68998800Y-37983400D01*
X30253600Y-37983400D01*
X30253600Y-33242777D01*
X59719000Y-33242777D01*
X59719000Y-33357223D01*
X59741328Y-33469471D01*
X59785125Y-33575207D01*
X59848708Y-33670366D01*
X59929634Y-33751292D01*
X60024793Y-33814875D01*
X60130529Y-33858672D01*
X60242777Y-33881000D01*
X60357223Y-33881000D01*
X60469471Y-33858672D01*
X60575207Y-33814875D01*
X60670366Y-33751292D01*
X60751292Y-33670366D01*
X60814875Y-33575207D01*
X60858672Y-33469471D01*
X60881000Y-33357223D01*
X60881000Y-33242777D01*
X60858672Y-33130529D01*
X60814875Y-33024793D01*
X60751292Y-32929634D01*
X60670366Y-32848708D01*
X60575207Y-32785125D01*
X60469471Y-32741328D01*
X60357223Y-32719000D01*
X60242777Y-32719000D01*
X60130529Y-32741328D01*
X60024793Y-32785125D01*
X59929634Y-32848708D01*
X59848708Y-32929634D01*
X59785125Y-33024793D01*
X59741328Y-33130529D01*
X59719000Y-33242777D01*
X30253600Y-33242777D01*
X30253600Y-28993122D01*
X42064468Y-28993122D01*
X42064468Y-31593122D01*
X42069801Y-31647267D01*
X42085594Y-31699330D01*
X42111241Y-31747313D01*
X42145756Y-31789370D01*
X42187813Y-31823885D01*
X42235796Y-31849532D01*
X42287859Y-31865325D01*
X42342004Y-31870658D01*
X44942004Y-31870658D01*
X44996149Y-31865325D01*
X45048212Y-31849532D01*
X45096195Y-31823885D01*
X45138252Y-31789370D01*
X45172767Y-31747313D01*
X45198414Y-31699330D01*
X45214207Y-31647267D01*
X45219540Y-31593122D01*
X45219540Y-30792777D01*
X69669000Y-30792777D01*
X69669000Y-30907223D01*
X69691328Y-31019471D01*
X69735125Y-31125207D01*
X69798708Y-31220366D01*
X69879634Y-31301292D01*
X69974793Y-31364875D01*
X70080529Y-31408672D01*
X70192777Y-31431000D01*
X70307223Y-31431000D01*
X70419471Y-31408672D01*
X70525207Y-31364875D01*
X70620366Y-31301292D01*
X70701292Y-31220366D01*
X70764875Y-31125207D01*
X70808672Y-31019471D01*
X70831000Y-30907223D01*
X70831000Y-30792777D01*
X70808672Y-30680529D01*
X70764875Y-30574793D01*
X70701292Y-30479634D01*
X70620366Y-30398708D01*
X70525207Y-30335125D01*
X70419471Y-30291328D01*
X70307223Y-30269000D01*
X70192777Y-30269000D01*
X70080529Y-30291328D01*
X69974793Y-30335125D01*
X69879634Y-30398708D01*
X69798708Y-30479634D01*
X69735125Y-30574793D01*
X69691328Y-30680529D01*
X69669000Y-30792777D01*
X45219540Y-30792777D01*
X45219540Y-29025645D01*
X59193800Y-29025645D01*
X59193800Y-29554354D01*
X59205393Y-29672062D01*
X59251207Y-29823088D01*
X59325604Y-29962275D01*
X59425725Y-30084275D01*
X59547724Y-30184396D01*
X59686911Y-30258793D01*
X59837937Y-30304607D01*
X59995000Y-30320076D01*
X60152062Y-30304607D01*
X60303088Y-30258793D01*
X60442275Y-30184396D01*
X60564275Y-30084275D01*
X60630000Y-30004188D01*
X60695725Y-30084275D01*
X60817724Y-30184396D01*
X60956911Y-30258793D01*
X61107937Y-30304607D01*
X61265000Y-30320076D01*
X61422062Y-30304607D01*
X61573088Y-30258793D01*
X61712275Y-30184396D01*
X61755181Y-30149185D01*
X61779237Y-30194191D01*
X61813752Y-30236248D01*
X61855809Y-30270763D01*
X61903792Y-30296410D01*
X61955855Y-30312203D01*
X62010000Y-30317536D01*
X63060000Y-30317536D01*
X63114145Y-30312203D01*
X63166208Y-30296410D01*
X63214191Y-30270763D01*
X63256248Y-30236248D01*
X63290763Y-30194191D01*
X63316410Y-30146208D01*
X63332203Y-30094145D01*
X63337536Y-30040000D01*
X63337536Y-28540000D01*
X63332203Y-28485855D01*
X63316410Y-28433792D01*
X63290763Y-28385809D01*
X63269277Y-28359628D01*
X65138355Y-28359628D01*
X65206353Y-28580770D01*
X65316187Y-28784397D01*
X65463637Y-28962684D01*
X65643035Y-29108779D01*
X65847488Y-29217068D01*
X66060373Y-29281642D01*
X66244200Y-29221474D01*
X66244200Y-28175800D01*
X66345800Y-28175800D01*
X66345800Y-29221474D01*
X66529627Y-29281642D01*
X66742512Y-29217068D01*
X66946965Y-29108779D01*
X67126363Y-28962684D01*
X67273813Y-28784397D01*
X67383647Y-28580770D01*
X67451645Y-28359628D01*
X67391559Y-28175800D01*
X66345800Y-28175800D01*
X66244200Y-28175800D01*
X65198441Y-28175800D01*
X65138355Y-28359628D01*
X63269277Y-28359628D01*
X63256248Y-28343752D01*
X63214191Y-28309237D01*
X63166208Y-28283590D01*
X63114145Y-28267797D01*
X63060000Y-28262464D01*
X62010000Y-28262464D01*
X61955855Y-28267797D01*
X61903792Y-28283590D01*
X61855809Y-28309237D01*
X61813752Y-28343752D01*
X61779237Y-28385809D01*
X61755181Y-28430815D01*
X61712276Y-28395604D01*
X61573089Y-28321207D01*
X61422063Y-28275393D01*
X61265000Y-28259924D01*
X61107938Y-28275393D01*
X60956912Y-28321207D01*
X60817725Y-28395604D01*
X60695726Y-28495725D01*
X60630000Y-28575812D01*
X60564275Y-28495725D01*
X60442276Y-28395604D01*
X60303089Y-28321207D01*
X60152063Y-28275393D01*
X59995000Y-28259924D01*
X59837938Y-28275393D01*
X59686912Y-28321207D01*
X59547725Y-28395604D01*
X59425726Y-28495725D01*
X59325604Y-28617724D01*
X59251207Y-28756911D01*
X59205393Y-28907937D01*
X59193800Y-29025645D01*
X45219540Y-29025645D01*
X45219540Y-28993122D01*
X45214207Y-28938977D01*
X45198414Y-28886914D01*
X45172767Y-28838931D01*
X45138252Y-28796874D01*
X45096195Y-28762359D01*
X45048212Y-28736712D01*
X44996149Y-28720919D01*
X44942004Y-28715586D01*
X42342004Y-28715586D01*
X42287859Y-28720919D01*
X42235796Y-28736712D01*
X42187813Y-28762359D01*
X42145756Y-28796874D01*
X42111241Y-28838931D01*
X42085594Y-28886914D01*
X42069801Y-28938977D01*
X42064468Y-28993122D01*
X30253600Y-28993122D01*
X30253600Y-27126346D01*
X31845496Y-27126346D01*
X32167552Y-27499166D01*
X32704476Y-27802319D01*
X33290226Y-27994899D01*
X33902291Y-28069505D01*
X34517151Y-28023270D01*
X35111176Y-27857969D01*
X35661538Y-27579956D01*
X35782448Y-27499166D01*
X36094540Y-27137880D01*
X37365804Y-27137880D01*
X37365804Y-27448364D01*
X37426376Y-27752883D01*
X37545193Y-28039733D01*
X37717689Y-28297891D01*
X37937235Y-28517437D01*
X38195393Y-28689933D01*
X38482243Y-28808750D01*
X38786762Y-28869322D01*
X39097246Y-28869322D01*
X39401765Y-28808750D01*
X39688615Y-28689933D01*
X39946773Y-28517437D01*
X40166319Y-28297891D01*
X40338815Y-28039733D01*
X40400682Y-27890372D01*
X65138355Y-27890372D01*
X65198441Y-28074200D01*
X66244200Y-28074200D01*
X66244200Y-27028526D01*
X66345800Y-27028526D01*
X66345800Y-28074200D01*
X67391559Y-28074200D01*
X67411210Y-28014079D01*
X67708800Y-28014079D01*
X67708800Y-28235921D01*
X67752079Y-28453500D01*
X67836975Y-28658456D01*
X67960223Y-28842911D01*
X68117089Y-28999777D01*
X68301544Y-29123025D01*
X68506500Y-29207921D01*
X68724079Y-29251200D01*
X68945921Y-29251200D01*
X69163500Y-29207921D01*
X69368456Y-29123025D01*
X69552911Y-28999777D01*
X69709777Y-28842911D01*
X69833025Y-28658456D01*
X69917921Y-28453500D01*
X69961200Y-28235921D01*
X69961200Y-28014079D01*
X69917921Y-27796500D01*
X69833025Y-27591544D01*
X69709777Y-27407089D01*
X69577688Y-27275000D01*
X70247464Y-27275000D01*
X70247464Y-28975000D01*
X70252797Y-29029145D01*
X70268590Y-29081208D01*
X70294237Y-29129191D01*
X70328752Y-29171248D01*
X70370809Y-29205763D01*
X70418792Y-29231410D01*
X70470855Y-29247203D01*
X70525000Y-29252536D01*
X72225000Y-29252536D01*
X72279145Y-29247203D01*
X72331208Y-29231410D01*
X72379191Y-29205763D01*
X72421248Y-29171248D01*
X72455763Y-29129191D01*
X72481410Y-29081208D01*
X72497203Y-29029145D01*
X72502536Y-28975000D01*
X72502536Y-27275000D01*
X72497203Y-27220855D01*
X72481410Y-27168792D01*
X72455763Y-27120809D01*
X72421248Y-27078752D01*
X72379191Y-27044237D01*
X72331208Y-27018590D01*
X72279145Y-27002797D01*
X72225000Y-26997464D01*
X70525000Y-26997464D01*
X70470855Y-27002797D01*
X70418792Y-27018590D01*
X70370809Y-27044237D01*
X70328752Y-27078752D01*
X70294237Y-27120809D01*
X70268590Y-27168792D01*
X70252797Y-27220855D01*
X70247464Y-27275000D01*
X69577688Y-27275000D01*
X69552911Y-27250223D01*
X69368456Y-27126975D01*
X69163500Y-27042079D01*
X68945921Y-26998800D01*
X68724079Y-26998800D01*
X68506500Y-27042079D01*
X68301544Y-27126975D01*
X68117089Y-27250223D01*
X67960223Y-27407089D01*
X67836975Y-27591544D01*
X67752079Y-27796500D01*
X67708800Y-28014079D01*
X67411210Y-28014079D01*
X67451645Y-27890372D01*
X67383647Y-27669230D01*
X67273813Y-27465603D01*
X67126363Y-27287316D01*
X66946965Y-27141221D01*
X66742512Y-27032932D01*
X66529627Y-26968358D01*
X66345800Y-27028526D01*
X66244200Y-27028526D01*
X66060373Y-26968358D01*
X65847488Y-27032932D01*
X65643035Y-27141221D01*
X65463637Y-27287316D01*
X65316187Y-27465603D01*
X65206353Y-27669230D01*
X65138355Y-27890372D01*
X40400682Y-27890372D01*
X40457632Y-27752883D01*
X40518204Y-27448364D01*
X40518204Y-27137880D01*
X40457632Y-26833361D01*
X40338815Y-26546511D01*
X40166319Y-26288353D01*
X39946773Y-26068807D01*
X39688615Y-25896311D01*
X39401765Y-25777494D01*
X39097246Y-25716922D01*
X38786762Y-25716922D01*
X38482243Y-25777494D01*
X38195393Y-25896311D01*
X37937235Y-26068807D01*
X37717689Y-26288353D01*
X37545193Y-26546511D01*
X37426376Y-26833361D01*
X37365804Y-27137880D01*
X36094540Y-27137880D01*
X36104504Y-27126346D01*
X33975000Y-24996842D01*
X31845496Y-27126346D01*
X30253600Y-27126346D01*
X30253600Y-24852291D01*
X30830495Y-24852291D01*
X30876730Y-25467151D01*
X31042031Y-26061176D01*
X31320044Y-26611538D01*
X31400834Y-26732448D01*
X31773654Y-27054504D01*
X33903158Y-24925000D01*
X34046842Y-24925000D01*
X36176346Y-27054504D01*
X36549166Y-26732448D01*
X36852319Y-26195524D01*
X37044899Y-25609774D01*
X37067008Y-25428388D01*
X42578580Y-25428388D01*
X42720722Y-25647585D01*
X43002666Y-25801293D01*
X43309180Y-25897042D01*
X43628485Y-25931154D01*
X43948309Y-25902317D01*
X44256362Y-25811640D01*
X44540805Y-25662608D01*
X44563286Y-25647585D01*
X44705428Y-25428388D01*
X43642004Y-24364964D01*
X42578580Y-25428388D01*
X37067008Y-25428388D01*
X37119505Y-24997709D01*
X37073270Y-24382849D01*
X37044540Y-24279603D01*
X42003972Y-24279603D01*
X42032809Y-24599427D01*
X42123486Y-24907480D01*
X42272518Y-25191923D01*
X42287541Y-25214404D01*
X42506738Y-25356546D01*
X43570162Y-24293122D01*
X43713846Y-24293122D01*
X44777270Y-25356546D01*
X44996467Y-25214404D01*
X45150175Y-24932460D01*
X45245924Y-24625946D01*
X45280036Y-24306641D01*
X45251199Y-23986817D01*
X45160522Y-23678764D01*
X45104595Y-23572021D01*
X71873801Y-23572021D01*
X71873801Y-24177979D01*
X71992018Y-24772294D01*
X72223908Y-25332126D01*
X72560561Y-25835962D01*
X72989038Y-26264439D01*
X73492874Y-26601092D01*
X74052706Y-26832982D01*
X74647021Y-26951199D01*
X75252979Y-26951199D01*
X75847294Y-26832982D01*
X76407126Y-26601092D01*
X76910962Y-26264439D01*
X77339439Y-25835962D01*
X77676092Y-25332126D01*
X77907982Y-24772294D01*
X78026199Y-24177979D01*
X78026199Y-23572021D01*
X77907982Y-22977706D01*
X77676092Y-22417874D01*
X77339439Y-21914038D01*
X76910962Y-21485561D01*
X76407126Y-21148908D01*
X75847294Y-20917018D01*
X75252979Y-20798801D01*
X74647021Y-20798801D01*
X74052706Y-20917018D01*
X73492874Y-21148908D01*
X72989038Y-21485561D01*
X72560561Y-21914038D01*
X72223908Y-22417874D01*
X71992018Y-22977706D01*
X71873801Y-23572021D01*
X45104595Y-23572021D01*
X45011490Y-23394321D01*
X44996467Y-23371840D01*
X44777270Y-23229698D01*
X43713846Y-24293122D01*
X43570162Y-24293122D01*
X42506738Y-23229698D01*
X42287541Y-23371840D01*
X42133833Y-23653784D01*
X42038084Y-23960298D01*
X42003972Y-24279603D01*
X37044540Y-24279603D01*
X36907969Y-23788824D01*
X36629956Y-23238462D01*
X36576097Y-23157856D01*
X42578580Y-23157856D01*
X43642004Y-24221280D01*
X44705428Y-23157856D01*
X44563286Y-22938659D01*
X44281342Y-22784951D01*
X43974828Y-22689202D01*
X43655523Y-22655090D01*
X43335699Y-22683927D01*
X43027646Y-22774604D01*
X42743203Y-22923636D01*
X42720722Y-22938659D01*
X42578580Y-23157856D01*
X36576097Y-23157856D01*
X36549166Y-23117552D01*
X36176346Y-22795496D01*
X34046842Y-24925000D01*
X33903158Y-24925000D01*
X31773654Y-22795496D01*
X31400834Y-23117552D01*
X31097681Y-23654476D01*
X30905101Y-24240226D01*
X30830495Y-24852291D01*
X30253600Y-24852291D01*
X30253600Y-22723654D01*
X31845496Y-22723654D01*
X33975000Y-24853158D01*
X36104504Y-22723654D01*
X35782448Y-22350834D01*
X35245524Y-22047681D01*
X34659774Y-21855101D01*
X34047709Y-21780495D01*
X33432849Y-21826730D01*
X32838824Y-21992031D01*
X32288462Y-22270044D01*
X32167552Y-22350834D01*
X31845496Y-22723654D01*
X30253600Y-22723654D01*
X30253600Y-20753600D01*
X78246401Y-20753600D01*
X78246401Y-44423800D01*
G37*
X78246401Y-44423800D02*
X73175000Y-44423800D01*
X73160134Y-44425264D01*
X73145840Y-44429600D01*
X73132666Y-44436642D01*
X73121118Y-44446118D01*
X73111642Y-44457666D01*
X73104600Y-44470840D01*
X73100264Y-44485134D01*
X73098800Y-44500000D01*
X73098800Y-46000000D01*
X73100264Y-46014866D01*
X73104600Y-46029160D01*
X73111642Y-46042334D01*
X73121118Y-46053882D01*
X73132666Y-46063358D01*
X73145840Y-46070400D01*
X73160134Y-46074736D01*
X73175000Y-46076200D01*
X78246401Y-46076200D01*
X78246400Y-64273800D01*
X73150000Y-64273800D01*
X73135134Y-64275264D01*
X73120840Y-64279600D01*
X73107666Y-64286642D01*
X73096118Y-64296118D01*
X73086642Y-64307666D01*
X73079600Y-64320840D01*
X73075264Y-64335134D01*
X73073800Y-64350000D01*
X73073800Y-65900000D01*
X73075264Y-65914866D01*
X73079600Y-65929160D01*
X73086642Y-65942334D01*
X73096118Y-65953882D01*
X73107666Y-65963358D01*
X73120840Y-65970400D01*
X73135134Y-65974736D01*
X73150000Y-65976200D01*
X78246400Y-65976200D01*
X78246400Y-83146400D01*
X51551200Y-83146400D01*
X51551200Y-81076346D01*
X72245496Y-81076346D01*
X72567552Y-81449166D01*
X73104476Y-81752319D01*
X73690226Y-81944899D01*
X74302291Y-82019505D01*
X74917151Y-81973270D01*
X75511176Y-81807969D01*
X76061538Y-81529956D01*
X76182448Y-81449166D01*
X76504504Y-81076346D01*
X74375000Y-78946842D01*
X72245496Y-81076346D01*
X51551200Y-81076346D01*
X51551200Y-78802291D01*
X71230495Y-78802291D01*
X71276730Y-79417151D01*
X71442031Y-80011176D01*
X71720044Y-80561538D01*
X71800834Y-80682448D01*
X72173654Y-81004504D01*
X74303158Y-78875000D01*
X74446842Y-78875000D01*
X76576346Y-81004504D01*
X76949166Y-80682448D01*
X77252319Y-80145524D01*
X77444899Y-79559774D01*
X77519505Y-78947709D01*
X77473270Y-78332849D01*
X77307969Y-77738824D01*
X77029956Y-77188462D01*
X76949166Y-77067552D01*
X76576346Y-76745496D01*
X74446842Y-78875000D01*
X74303158Y-78875000D01*
X72173654Y-76745496D01*
X71800834Y-77067552D01*
X71497681Y-77604476D01*
X71305101Y-78190226D01*
X71230495Y-78802291D01*
X51551200Y-78802291D01*
X51551200Y-78099386D01*
X51549736Y-78084520D01*
X51545400Y-78070226D01*
X51538358Y-78057052D01*
X51528882Y-78045504D01*
X51517334Y-78036028D01*
X51504160Y-78028986D01*
X51489866Y-78024650D01*
X51475000Y-78023186D01*
X49975000Y-78023186D01*
X49960134Y-78024650D01*
X49945840Y-78028986D01*
X49932666Y-78036028D01*
X49921118Y-78045504D01*
X49911642Y-78057052D01*
X49904600Y-78070226D01*
X49900264Y-78084520D01*
X49898800Y-78099386D01*
X49898800Y-83146400D01*
X30253600Y-83146400D01*
X30253600Y-81076346D01*
X38245496Y-81076346D01*
X38567552Y-81449166D01*
X39104476Y-81752319D01*
X39690226Y-81944899D01*
X40302291Y-82019505D01*
X40917151Y-81973270D01*
X41511176Y-81807969D01*
X42061538Y-81529956D01*
X42182448Y-81449166D01*
X42504504Y-81076346D01*
X40375000Y-78946842D01*
X38245496Y-81076346D01*
X30253600Y-81076346D01*
X30253600Y-78802291D01*
X37230495Y-78802291D01*
X37276730Y-79417151D01*
X37442031Y-80011176D01*
X37720044Y-80561538D01*
X37800834Y-80682448D01*
X38173654Y-81004504D01*
X40303158Y-78875000D01*
X40446842Y-78875000D01*
X42576346Y-81004504D01*
X42949166Y-80682448D01*
X43252319Y-80145524D01*
X43444899Y-79559774D01*
X43519505Y-78947709D01*
X43473270Y-78332849D01*
X43307969Y-77738824D01*
X43029956Y-77188462D01*
X42949166Y-77067552D01*
X42576346Y-76745496D01*
X40446842Y-78875000D01*
X40303158Y-78875000D01*
X38173654Y-76745496D01*
X37800834Y-77067552D01*
X37497681Y-77604476D01*
X37305101Y-78190226D01*
X37230495Y-78802291D01*
X30253600Y-78802291D01*
X30253600Y-76673654D01*
X38245496Y-76673654D01*
X40375000Y-78803158D01*
X42504504Y-76673654D01*
X42182448Y-76300834D01*
X41645524Y-75997681D01*
X41059774Y-75805101D01*
X40608581Y-75750104D01*
X50148800Y-75750104D01*
X50150010Y-76633987D01*
X50151474Y-76648749D01*
X50155810Y-76663043D01*
X50162852Y-76676217D01*
X50172328Y-76687765D01*
X50183876Y-76697241D01*
X50197050Y-76704283D01*
X50211344Y-76708619D01*
X50226210Y-76710083D01*
X51180805Y-76710083D01*
X51195773Y-76708598D01*
X51210062Y-76704243D01*
X51223226Y-76697183D01*
X51234760Y-76687691D01*
X51244221Y-76676131D01*
X51245540Y-76673654D01*
X72245496Y-76673654D01*
X74375000Y-78803158D01*
X76504504Y-76673654D01*
X76182448Y-76300834D01*
X75645524Y-75997681D01*
X75059774Y-75805101D01*
X74447709Y-75730495D01*
X73832849Y-75776730D01*
X73238824Y-75942031D01*
X72688462Y-76220044D01*
X72567552Y-76300834D01*
X72245496Y-76673654D01*
X51245540Y-76673654D01*
X51251245Y-76662947D01*
X51255561Y-76648646D01*
X51257005Y-76633779D01*
X51255794Y-75749896D01*
X51254330Y-75735134D01*
X51249994Y-75720840D01*
X51242952Y-75707666D01*
X51233476Y-75696118D01*
X51221928Y-75686642D01*
X51208754Y-75679600D01*
X51194460Y-75675264D01*
X51179594Y-75673800D01*
X50225000Y-75673800D01*
X50210032Y-75675285D01*
X50195743Y-75679640D01*
X50182579Y-75686700D01*
X50171045Y-75696192D01*
X50161584Y-75707752D01*
X50154561Y-75720936D01*
X50150244Y-75735236D01*
X50148800Y-75750104D01*
X40608581Y-75750104D01*
X40447709Y-75730495D01*
X39832849Y-75776730D01*
X39238824Y-75942031D01*
X38688462Y-76220044D01*
X38567552Y-76300834D01*
X38245496Y-76673654D01*
X30253600Y-76673654D01*
X30253600Y-75201810D01*
X35399639Y-75226199D01*
X35414866Y-75224736D01*
X35429160Y-75220400D01*
X35442334Y-75213358D01*
X35453882Y-75203882D01*
X35463358Y-75192334D01*
X35470400Y-75179160D01*
X35474736Y-75164866D01*
X35476200Y-75150000D01*
X35476200Y-74175104D01*
X50148800Y-74175104D01*
X50150010Y-75058987D01*
X50151474Y-75073749D01*
X50155810Y-75088043D01*
X50162852Y-75101217D01*
X50172328Y-75112765D01*
X50183876Y-75122241D01*
X50197050Y-75129283D01*
X50211344Y-75133619D01*
X50226210Y-75135083D01*
X51180805Y-75135083D01*
X51195773Y-75133598D01*
X51210062Y-75129243D01*
X51223226Y-75122183D01*
X51234760Y-75112691D01*
X51244221Y-75101131D01*
X51251245Y-75087947D01*
X51255561Y-75073646D01*
X51257005Y-75058779D01*
X51255794Y-74174896D01*
X51254330Y-74160134D01*
X51249994Y-74145840D01*
X51242952Y-74132666D01*
X51233476Y-74121118D01*
X51221928Y-74111642D01*
X51208754Y-74104600D01*
X51194460Y-74100264D01*
X51179594Y-74098800D01*
X50225000Y-74098800D01*
X50210032Y-74100285D01*
X50195743Y-74104640D01*
X50182579Y-74111700D01*
X50171045Y-74121192D01*
X50161584Y-74132752D01*
X50154561Y-74145936D01*
X50150244Y-74160236D01*
X50148800Y-74175104D01*
X35476200Y-74175104D01*
X35476200Y-73600000D01*
X35474736Y-73585134D01*
X35470400Y-73570840D01*
X35463358Y-73557666D01*
X35453882Y-73546118D01*
X35442334Y-73536642D01*
X35429160Y-73529600D01*
X35414866Y-73525264D01*
X35400000Y-73523800D01*
X30253600Y-73523800D01*
X30253600Y-73400000D01*
X50173800Y-73400000D01*
X50175264Y-73414866D01*
X50179600Y-73429160D01*
X50186642Y-73442334D01*
X50196118Y-73453882D01*
X50207666Y-73463358D01*
X50220840Y-73470400D01*
X50235134Y-73474736D01*
X50250000Y-73476200D01*
X50900000Y-73476200D01*
X50914866Y-73474736D01*
X50929160Y-73470400D01*
X50942334Y-73463358D01*
X50953882Y-73453882D01*
X50963358Y-73442334D01*
X50970400Y-73429160D01*
X50974736Y-73414866D01*
X50976200Y-73400000D01*
X50976200Y-72325000D01*
X50974736Y-72310134D01*
X50970400Y-72295840D01*
X50963358Y-72282666D01*
X50953882Y-72271118D01*
X50942334Y-72261642D01*
X50929160Y-72254600D01*
X50914866Y-72250264D01*
X50900000Y-72248800D01*
X50250001Y-72248800D01*
X50235135Y-72250264D01*
X50220841Y-72254600D01*
X50207667Y-72261642D01*
X50196120Y-72271118D01*
X50186643Y-72282665D01*
X50179601Y-72295839D01*
X50175265Y-72310134D01*
X50173801Y-72325000D01*
X50173800Y-73400000D01*
X30253600Y-73400000D01*
X30253600Y-71717777D01*
X52019000Y-71717777D01*
X52019000Y-71832223D01*
X52041328Y-71944471D01*
X52085125Y-72050207D01*
X52148708Y-72145366D01*
X52229634Y-72226292D01*
X52324793Y-72289875D01*
X52430529Y-72333672D01*
X52542777Y-72356000D01*
X52657223Y-72356000D01*
X52769471Y-72333672D01*
X52875207Y-72289875D01*
X52970366Y-72226292D01*
X53051292Y-72145366D01*
X53114875Y-72050207D01*
X53158672Y-71944471D01*
X53181000Y-71832223D01*
X53181000Y-71717777D01*
X53158672Y-71605529D01*
X53114875Y-71499793D01*
X53051292Y-71404634D01*
X52970366Y-71323708D01*
X52875207Y-71260125D01*
X52769471Y-71216328D01*
X52657223Y-71194000D01*
X52542777Y-71194000D01*
X52430529Y-71216328D01*
X52324793Y-71260125D01*
X52229634Y-71323708D01*
X52148708Y-71404634D01*
X52085125Y-71499793D01*
X52041328Y-71605529D01*
X52019000Y-71717777D01*
X30253600Y-71717777D01*
X30253600Y-71225000D01*
X51123800Y-71225000D01*
X51125264Y-71239866D01*
X51129600Y-71254160D01*
X51136642Y-71267334D01*
X51146118Y-71278882D01*
X51157666Y-71288358D01*
X51170840Y-71295400D01*
X51185134Y-71299736D01*
X51200000Y-71301200D01*
X51850000Y-71301200D01*
X51864866Y-71299736D01*
X51879160Y-71295400D01*
X51892334Y-71288358D01*
X51903882Y-71278882D01*
X51913358Y-71267334D01*
X51920400Y-71254160D01*
X51924736Y-71239866D01*
X51926200Y-71225000D01*
X51926200Y-70542777D01*
X53469000Y-70542777D01*
X53469000Y-70657223D01*
X53491328Y-70769471D01*
X53535125Y-70875207D01*
X53598708Y-70970366D01*
X53679634Y-71051292D01*
X53774793Y-71114875D01*
X53880529Y-71158672D01*
X53992777Y-71181000D01*
X54107223Y-71181000D01*
X54219471Y-71158672D01*
X54325207Y-71114875D01*
X54420366Y-71051292D01*
X54501292Y-70970366D01*
X54564875Y-70875207D01*
X54608672Y-70769471D01*
X54631000Y-70657223D01*
X54631000Y-70542777D01*
X54608672Y-70430529D01*
X54564875Y-70324793D01*
X54501292Y-70229634D01*
X54421658Y-70150000D01*
X55724539Y-70150000D01*
X55724539Y-70825000D01*
X55726003Y-70839866D01*
X55730339Y-70854160D01*
X55737381Y-70867334D01*
X55746857Y-70878882D01*
X55758405Y-70888358D01*
X55771579Y-70895400D01*
X55785873Y-70899736D01*
X55800739Y-70901200D01*
X56875739Y-70901200D01*
X56890605Y-70899736D01*
X56904899Y-70895400D01*
X56918073Y-70888358D01*
X56929621Y-70878882D01*
X56939097Y-70867334D01*
X56946139Y-70854160D01*
X56950475Y-70839866D01*
X56951939Y-70825000D01*
X56951939Y-70350000D01*
X57598799Y-70350000D01*
X57598799Y-71425000D01*
X57600263Y-71439866D01*
X57604599Y-71454160D01*
X57611641Y-71467334D01*
X57621117Y-71478882D01*
X57632665Y-71488358D01*
X57645839Y-71495400D01*
X57660133Y-71499736D01*
X57674999Y-71501200D01*
X58325000Y-71501200D01*
X58339866Y-71499736D01*
X58354160Y-71495400D01*
X58367334Y-71488358D01*
X58378882Y-71478882D01*
X58388358Y-71467334D01*
X58395400Y-71454160D01*
X58399736Y-71439866D01*
X58401200Y-71425000D01*
X58401200Y-70792777D01*
X58519000Y-70792777D01*
X58519000Y-70907223D01*
X58541328Y-71019471D01*
X58585125Y-71125207D01*
X58648708Y-71220366D01*
X58729634Y-71301292D01*
X58824793Y-71364875D01*
X58930529Y-71408672D01*
X59042777Y-71431000D01*
X59157223Y-71431000D01*
X59269471Y-71408672D01*
X59375207Y-71364875D01*
X59470366Y-71301292D01*
X59551292Y-71220366D01*
X59614875Y-71125207D01*
X59656381Y-71025000D01*
X61347464Y-71025000D01*
X61347464Y-72375000D01*
X61352797Y-72429145D01*
X61368590Y-72481208D01*
X61394237Y-72529191D01*
X61428752Y-72571248D01*
X61470809Y-72605763D01*
X61518792Y-72631410D01*
X61570855Y-72647203D01*
X61625000Y-72652536D01*
X62975000Y-72652536D01*
X63029145Y-72647203D01*
X63081208Y-72631410D01*
X63129191Y-72605763D01*
X63171248Y-72571248D01*
X63205763Y-72529191D01*
X63231410Y-72481208D01*
X63247203Y-72429145D01*
X63252536Y-72375000D01*
X63252536Y-71025000D01*
X63247203Y-70970855D01*
X63231410Y-70918792D01*
X63205763Y-70870809D01*
X63171248Y-70828752D01*
X63129191Y-70794237D01*
X63081208Y-70768590D01*
X63029145Y-70752797D01*
X62975000Y-70747464D01*
X61625000Y-70747464D01*
X61570855Y-70752797D01*
X61518792Y-70768590D01*
X61470809Y-70794237D01*
X61428752Y-70828752D01*
X61394237Y-70870809D01*
X61368590Y-70918792D01*
X61352797Y-70970855D01*
X61347464Y-71025000D01*
X59656381Y-71025000D01*
X59658672Y-71019471D01*
X59681000Y-70907223D01*
X59681000Y-70792777D01*
X59658672Y-70680529D01*
X59614875Y-70574793D01*
X59551292Y-70479634D01*
X59470366Y-70398708D01*
X59375207Y-70335125D01*
X59269471Y-70291328D01*
X59157223Y-70269000D01*
X59042777Y-70269000D01*
X58930529Y-70291328D01*
X58824793Y-70335125D01*
X58729634Y-70398708D01*
X58648708Y-70479634D01*
X58585125Y-70574793D01*
X58541328Y-70680529D01*
X58519000Y-70792777D01*
X58401200Y-70792777D01*
X58401200Y-70350000D01*
X58399736Y-70335134D01*
X58395400Y-70320840D01*
X58388358Y-70307666D01*
X58378882Y-70296118D01*
X58367334Y-70286642D01*
X58354160Y-70279600D01*
X58339866Y-70275264D01*
X58325000Y-70273800D01*
X57674999Y-70273800D01*
X57660133Y-70275264D01*
X57645839Y-70279600D01*
X57632665Y-70286642D01*
X57621117Y-70296118D01*
X57611641Y-70307666D01*
X57604599Y-70320840D01*
X57600263Y-70335134D01*
X57598799Y-70350000D01*
X56951939Y-70350000D01*
X56951939Y-70150000D01*
X56950475Y-70135134D01*
X56946139Y-70120840D01*
X56939097Y-70107666D01*
X56929621Y-70096118D01*
X56918073Y-70086642D01*
X56904899Y-70079600D01*
X56890605Y-70075264D01*
X56875739Y-70073800D01*
X55800739Y-70073800D01*
X55785873Y-70075264D01*
X55771579Y-70079600D01*
X55758405Y-70086642D01*
X55746857Y-70096118D01*
X55737381Y-70107666D01*
X55730339Y-70120840D01*
X55726003Y-70135134D01*
X55724539Y-70150000D01*
X54421658Y-70150000D01*
X54420366Y-70148708D01*
X54325207Y-70085125D01*
X54219471Y-70041328D01*
X54107223Y-70019000D01*
X53992777Y-70019000D01*
X53880529Y-70041328D01*
X53774793Y-70085125D01*
X53679634Y-70148708D01*
X53598708Y-70229634D01*
X53535125Y-70324793D01*
X53491328Y-70430529D01*
X53469000Y-70542777D01*
X51926200Y-70542777D01*
X51926200Y-70150000D01*
X51924736Y-70135134D01*
X51920400Y-70120840D01*
X51913358Y-70107666D01*
X51903882Y-70096118D01*
X51892334Y-70086642D01*
X51879160Y-70079600D01*
X51864866Y-70075264D01*
X51850000Y-70073800D01*
X51200001Y-70073800D01*
X51185135Y-70075264D01*
X51170841Y-70079600D01*
X51157667Y-70086642D01*
X51146120Y-70096118D01*
X51136643Y-70107665D01*
X51129601Y-70120839D01*
X51125265Y-70135134D01*
X51123801Y-70150000D01*
X51123800Y-71225000D01*
X30253600Y-71225000D01*
X30253600Y-69225000D01*
X53548800Y-69225000D01*
X53548800Y-69875000D01*
X53550264Y-69889866D01*
X53554600Y-69904160D01*
X53561642Y-69917334D01*
X53571118Y-69928882D01*
X53582666Y-69938358D01*
X53595840Y-69945400D01*
X53610134Y-69949736D01*
X53625000Y-69951200D01*
X54675000Y-69951200D01*
X54689866Y-69949736D01*
X54704160Y-69945400D01*
X54717334Y-69938358D01*
X54728882Y-69928882D01*
X54738358Y-69917334D01*
X54745400Y-69904160D01*
X54749736Y-69889866D01*
X54751200Y-69875000D01*
X54751200Y-69225000D01*
X54749736Y-69210134D01*
X54745400Y-69195840D01*
X54738358Y-69182666D01*
X54728882Y-69171118D01*
X54717334Y-69161642D01*
X54704160Y-69154600D01*
X54689866Y-69150264D01*
X54675000Y-69148800D01*
X53625000Y-69148800D01*
X53610134Y-69150264D01*
X53595840Y-69154600D01*
X53582666Y-69161642D01*
X53571118Y-69171118D01*
X53561642Y-69182666D01*
X53554600Y-69195840D01*
X53550264Y-69210134D01*
X53548800Y-69225000D01*
X30253600Y-69225000D01*
X30253600Y-68142421D01*
X58548800Y-68142421D01*
X58548800Y-69217421D01*
X58550264Y-69232287D01*
X58554600Y-69246581D01*
X58561642Y-69259755D01*
X58571118Y-69271303D01*
X58582666Y-69280779D01*
X58595840Y-69287821D01*
X58610134Y-69292157D01*
X58625000Y-69293621D01*
X59275001Y-69293621D01*
X59289867Y-69292157D01*
X59304161Y-69287821D01*
X59317335Y-69280779D01*
X59328883Y-69271303D01*
X59338359Y-69259755D01*
X59345401Y-69246581D01*
X59349737Y-69232287D01*
X59351201Y-69217421D01*
X59351201Y-68142421D01*
X59349737Y-68127555D01*
X59345401Y-68113261D01*
X59338359Y-68100087D01*
X59328883Y-68088539D01*
X59317335Y-68079063D01*
X59304161Y-68072021D01*
X59289867Y-68067685D01*
X59275001Y-68066221D01*
X58625000Y-68066221D01*
X58610134Y-68067685D01*
X58595840Y-68072021D01*
X58582666Y-68079063D01*
X58571118Y-68088539D01*
X58561642Y-68100087D01*
X58554600Y-68113261D01*
X58550264Y-68127555D01*
X58548800Y-68142421D01*
X30253600Y-68142421D01*
X30253600Y-66650000D01*
X58383248Y-66650000D01*
X58383248Y-67350000D01*
X58384712Y-67364866D01*
X58389048Y-67379160D01*
X58396090Y-67392334D01*
X58405566Y-67403882D01*
X58417114Y-67413358D01*
X58430288Y-67420400D01*
X58444582Y-67424736D01*
X58459448Y-67426200D01*
X59534448Y-67426200D01*
X59549314Y-67424736D01*
X59563608Y-67420400D01*
X59576782Y-67413358D01*
X59588330Y-67403882D01*
X59597806Y-67392334D01*
X59604848Y-67379160D01*
X59609184Y-67364866D01*
X59610648Y-67350000D01*
X59610648Y-66650000D01*
X59609184Y-66635134D01*
X59604848Y-66620840D01*
X59597806Y-66607666D01*
X59588330Y-66596118D01*
X59576782Y-66586642D01*
X59563608Y-66579600D01*
X59549314Y-66575264D01*
X59534448Y-66573800D01*
X58459448Y-66573800D01*
X58444582Y-66575264D01*
X58430288Y-66579600D01*
X58417114Y-66586642D01*
X58405566Y-66596118D01*
X58396090Y-66607666D01*
X58389048Y-66620840D01*
X58384712Y-66635134D01*
X58383248Y-66650000D01*
X30253600Y-66650000D01*
X30253600Y-65700000D01*
X56191753Y-65700000D01*
X56191753Y-66374998D01*
X56193217Y-66389864D01*
X56197553Y-66404158D01*
X56204595Y-66417332D01*
X56214071Y-66428879D01*
X56225618Y-66438356D01*
X56238792Y-66445398D01*
X56253087Y-66449734D01*
X56267953Y-66451198D01*
X57342954Y-66451201D01*
X57357820Y-66449737D01*
X57372115Y-66445401D01*
X57385289Y-66438359D01*
X57396836Y-66428882D01*
X57406312Y-66417335D01*
X57413354Y-66404161D01*
X57417690Y-66389867D01*
X57419154Y-66375001D01*
X57419153Y-65700000D01*
X57417689Y-65685134D01*
X57413353Y-65670840D01*
X57406311Y-65657666D01*
X57396835Y-65646118D01*
X57385287Y-65636642D01*
X57372113Y-65629600D01*
X57357819Y-65625264D01*
X57342953Y-65623800D01*
X56267953Y-65623800D01*
X56253087Y-65625264D01*
X56238793Y-65629600D01*
X56225619Y-65636642D01*
X56214071Y-65646118D01*
X56204595Y-65657666D01*
X56197553Y-65670840D01*
X56193217Y-65685134D01*
X56191753Y-65700000D01*
X30253600Y-65700000D01*
X30253600Y-65092777D01*
X57419000Y-65092777D01*
X57419000Y-65207223D01*
X57441328Y-65319471D01*
X57485125Y-65425207D01*
X57548708Y-65520366D01*
X57629634Y-65601292D01*
X57724793Y-65664875D01*
X57830529Y-65708672D01*
X57942777Y-65731000D01*
X58057223Y-65731000D01*
X58169471Y-65708672D01*
X58275207Y-65664875D01*
X58370366Y-65601292D01*
X58451292Y-65520366D01*
X58514875Y-65425207D01*
X58558672Y-65319471D01*
X58581000Y-65207223D01*
X58581000Y-65092777D01*
X58558672Y-64980529D01*
X58514875Y-64874793D01*
X58451292Y-64779634D01*
X58370366Y-64698708D01*
X58275207Y-64635125D01*
X58169471Y-64591328D01*
X58057223Y-64569000D01*
X57942777Y-64569000D01*
X57830529Y-64591328D01*
X57724793Y-64635125D01*
X57629634Y-64698708D01*
X57548708Y-64779634D01*
X57485125Y-64874793D01*
X57441328Y-64980529D01*
X57419000Y-65092777D01*
X30253600Y-65092777D01*
X30253600Y-61150000D01*
X38698800Y-61150000D01*
X38698800Y-62025000D01*
X38700264Y-62039866D01*
X38704600Y-62054160D01*
X38711642Y-62067334D01*
X38721118Y-62078882D01*
X38732666Y-62088358D01*
X38745840Y-62095400D01*
X38760134Y-62099736D01*
X38775000Y-62101200D01*
X39775000Y-62101200D01*
X39789866Y-62099736D01*
X39804160Y-62095400D01*
X39817334Y-62088358D01*
X39828882Y-62078882D01*
X39838358Y-62067334D01*
X39845400Y-62054160D01*
X39849736Y-62039866D01*
X39851200Y-62025000D01*
X39851200Y-61150000D01*
X39849736Y-61135134D01*
X39845400Y-61120840D01*
X39838358Y-61107666D01*
X39828882Y-61096118D01*
X39817334Y-61086642D01*
X39804160Y-61079600D01*
X39789866Y-61075264D01*
X39775000Y-61073800D01*
X38775000Y-61073800D01*
X38760134Y-61075264D01*
X38745840Y-61079600D01*
X38732666Y-61086642D01*
X38721118Y-61096118D01*
X38711642Y-61107666D01*
X38704600Y-61120840D01*
X38700264Y-61135134D01*
X38698800Y-61150000D01*
X30253600Y-61150000D01*
X30253600Y-59575000D01*
X38698800Y-59575000D01*
X38698800Y-60450000D01*
X38700264Y-60464866D01*
X38704600Y-60479160D01*
X38711642Y-60492334D01*
X38721118Y-60503882D01*
X38732666Y-60513358D01*
X38745840Y-60520400D01*
X38760134Y-60524736D01*
X38775000Y-60526200D01*
X39775000Y-60526200D01*
X39789866Y-60524736D01*
X39804160Y-60520400D01*
X39817334Y-60513358D01*
X39828882Y-60503882D01*
X39838358Y-60492334D01*
X39845400Y-60479160D01*
X39849736Y-60464866D01*
X39851200Y-60450000D01*
X39851200Y-59575000D01*
X39849736Y-59560134D01*
X39845400Y-59545840D01*
X39838358Y-59532666D01*
X39828882Y-59521118D01*
X39817334Y-59511642D01*
X39804160Y-59504600D01*
X39789866Y-59500264D01*
X39775000Y-59498800D01*
X38775000Y-59498800D01*
X38760134Y-59500264D01*
X38745840Y-59504600D01*
X38732666Y-59511642D01*
X38721118Y-59521118D01*
X38711642Y-59532666D01*
X38704600Y-59545840D01*
X38700264Y-59560134D01*
X38698800Y-59575000D01*
X30253600Y-59575000D01*
X30253600Y-58551200D01*
X35378767Y-58551200D01*
X35393633Y-58549736D01*
X35407927Y-58545400D01*
X35421101Y-58538358D01*
X35432649Y-58528882D01*
X35442125Y-58517334D01*
X35449167Y-58504160D01*
X35453503Y-58489866D01*
X35454967Y-58475000D01*
X35454967Y-57875000D01*
X37098800Y-57875000D01*
X37098800Y-58750000D01*
X37100264Y-58764866D01*
X37104600Y-58779160D01*
X37111642Y-58792334D01*
X37121118Y-58803882D01*
X37132666Y-58813358D01*
X37145840Y-58820400D01*
X37160134Y-58824736D01*
X37175000Y-58826200D01*
X38175000Y-58826200D01*
X38189866Y-58824736D01*
X38204160Y-58820400D01*
X38217334Y-58813358D01*
X38228882Y-58803882D01*
X38238358Y-58792334D01*
X38245400Y-58779160D01*
X38249736Y-58764866D01*
X38251200Y-58750000D01*
X38251200Y-57875000D01*
X38249736Y-57860134D01*
X38245400Y-57845840D01*
X38238358Y-57832666D01*
X38228882Y-57821118D01*
X38217334Y-57811642D01*
X38204160Y-57804600D01*
X38189866Y-57800264D01*
X38175000Y-57798800D01*
X37175000Y-57798800D01*
X37160134Y-57800264D01*
X37145840Y-57804600D01*
X37132666Y-57811642D01*
X37121118Y-57821118D01*
X37111642Y-57832666D01*
X37104600Y-57845840D01*
X37100264Y-57860134D01*
X37098800Y-57875000D01*
X35454967Y-57875000D01*
X35454967Y-56875000D01*
X35453503Y-56860134D01*
X35449167Y-56845840D01*
X35442125Y-56832666D01*
X35432649Y-56821118D01*
X35421101Y-56811642D01*
X35407927Y-56804600D01*
X35393633Y-56800264D01*
X35378767Y-56798800D01*
X30253600Y-56798800D01*
X30253600Y-56300000D01*
X37073800Y-56300000D01*
X37073800Y-57200000D01*
X37075264Y-57214866D01*
X37079600Y-57229160D01*
X37086642Y-57242334D01*
X37096118Y-57253882D01*
X37107666Y-57263358D01*
X37120840Y-57270400D01*
X37135134Y-57274736D01*
X37150000Y-57276200D01*
X38175000Y-57276200D01*
X38189866Y-57274736D01*
X38204160Y-57270400D01*
X38217334Y-57263358D01*
X38228882Y-57253882D01*
X38238358Y-57242334D01*
X38245400Y-57229160D01*
X38249736Y-57214866D01*
X38251200Y-57200000D01*
X38251200Y-57175000D01*
X39048800Y-57175000D01*
X39048800Y-57975000D01*
X39050264Y-57989866D01*
X39054600Y-58004160D01*
X39061642Y-58017334D01*
X39071118Y-58028882D01*
X39082666Y-58038358D01*
X39095840Y-58045400D01*
X39110134Y-58049736D01*
X39125000Y-58051200D01*
X39425000Y-58051200D01*
X39439866Y-58049736D01*
X39454160Y-58045400D01*
X39467334Y-58038358D01*
X39478882Y-58028882D01*
X39488358Y-58017334D01*
X39495400Y-58004160D01*
X39499736Y-57989866D01*
X39501200Y-57975000D01*
X39501200Y-57250000D01*
X68973800Y-57250000D01*
X68973800Y-58150000D01*
X68975264Y-58164866D01*
X68979600Y-58179160D01*
X68986642Y-58192334D01*
X68996118Y-58203882D01*
X69007666Y-58213358D01*
X69020840Y-58220400D01*
X69035134Y-58224736D01*
X69050000Y-58226200D01*
X70050000Y-58226200D01*
X70064866Y-58224736D01*
X70079160Y-58220400D01*
X70092334Y-58213358D01*
X70103882Y-58203882D01*
X70113358Y-58192334D01*
X70120400Y-58179160D01*
X70124736Y-58164866D01*
X70126200Y-58150000D01*
X70126200Y-57250000D01*
X70124736Y-57235134D01*
X70120400Y-57220840D01*
X70113358Y-57207666D01*
X70103882Y-57196118D01*
X70092334Y-57186642D01*
X70079160Y-57179600D01*
X70064866Y-57175264D01*
X70050000Y-57173800D01*
X69050000Y-57173800D01*
X69035134Y-57175264D01*
X69020840Y-57179600D01*
X69007666Y-57186642D01*
X68996118Y-57196118D01*
X68986642Y-57207666D01*
X68979600Y-57220840D01*
X68975264Y-57235134D01*
X68973800Y-57250000D01*
X39501200Y-57250000D01*
X39501200Y-57175813D01*
X39580529Y-57208672D01*
X39692777Y-57231000D01*
X39807223Y-57231000D01*
X39919471Y-57208672D01*
X40025207Y-57164875D01*
X40120366Y-57101292D01*
X40201292Y-57020366D01*
X40264875Y-56925207D01*
X40308672Y-56819471D01*
X40331000Y-56707223D01*
X40331000Y-56592777D01*
X40308672Y-56480529D01*
X40264875Y-56374793D01*
X40201292Y-56279634D01*
X40120366Y-56198708D01*
X40025207Y-56135125D01*
X39919471Y-56091328D01*
X39807223Y-56069000D01*
X39692777Y-56069000D01*
X39580529Y-56091328D01*
X39474793Y-56135125D01*
X39379634Y-56198708D01*
X39298708Y-56279634D01*
X39235125Y-56374793D01*
X39191328Y-56480529D01*
X39169000Y-56592777D01*
X39169000Y-56707223D01*
X39191328Y-56819471D01*
X39235125Y-56925207D01*
X39298708Y-57020366D01*
X39377142Y-57098800D01*
X39125000Y-57098800D01*
X39110134Y-57100264D01*
X39095840Y-57104600D01*
X39082666Y-57111642D01*
X39071118Y-57121118D01*
X39061642Y-57132666D01*
X39054600Y-57145840D01*
X39050264Y-57160134D01*
X39048800Y-57175000D01*
X38251200Y-57175000D01*
X38251200Y-56300000D01*
X38249736Y-56285134D01*
X38245400Y-56270840D01*
X38238358Y-56257666D01*
X38228882Y-56246118D01*
X38217334Y-56236642D01*
X38204160Y-56229600D01*
X38189866Y-56225264D01*
X38175000Y-56223800D01*
X37150000Y-56223800D01*
X37135134Y-56225264D01*
X37120840Y-56229600D01*
X37107666Y-56236642D01*
X37096118Y-56246118D01*
X37086642Y-56257666D01*
X37079600Y-56270840D01*
X37075264Y-56285134D01*
X37073800Y-56300000D01*
X30253600Y-56300000D01*
X30253600Y-55600001D01*
X65173799Y-55600001D01*
X65173799Y-56600000D01*
X65175263Y-56614866D01*
X65179599Y-56629160D01*
X65186641Y-56642334D01*
X65196117Y-56653882D01*
X65207665Y-56663358D01*
X65220839Y-56670400D01*
X65235133Y-56674736D01*
X65249999Y-56676200D01*
X66149999Y-56676200D01*
X66164865Y-56674736D01*
X66179159Y-56670400D01*
X66192333Y-56663358D01*
X66203880Y-56653882D01*
X66213357Y-56642335D01*
X66220399Y-56629161D01*
X66224735Y-56614866D01*
X66226199Y-56600000D01*
X66226199Y-55625000D01*
X66773800Y-55625000D01*
X66773800Y-56624999D01*
X66775264Y-56639865D01*
X66779600Y-56654159D01*
X66786642Y-56667333D01*
X66796118Y-56678881D01*
X66807666Y-56688357D01*
X66820840Y-56695399D01*
X66835134Y-56699735D01*
X66850000Y-56701199D01*
X67750000Y-56701199D01*
X67764866Y-56699735D01*
X67779160Y-56695399D01*
X67792334Y-56688357D01*
X67803881Y-56678881D01*
X67813358Y-56667334D01*
X67820400Y-56654160D01*
X67824736Y-56639865D01*
X67826200Y-56624999D01*
X67826200Y-55663600D01*
X69023800Y-55663600D01*
X69023800Y-56563600D01*
X69025264Y-56578466D01*
X69029600Y-56592760D01*
X69036642Y-56605934D01*
X69046118Y-56617482D01*
X69057666Y-56626958D01*
X69070840Y-56634000D01*
X69085134Y-56638336D01*
X69100000Y-56639800D01*
X70100000Y-56639800D01*
X70114866Y-56638336D01*
X70129160Y-56634000D01*
X70142334Y-56626958D01*
X70153882Y-56617482D01*
X70163358Y-56605934D01*
X70170400Y-56592760D01*
X70174736Y-56578466D01*
X70176200Y-56563600D01*
X70176200Y-55663600D01*
X70174736Y-55648734D01*
X70170400Y-55634440D01*
X70163358Y-55621266D01*
X70153882Y-55609718D01*
X70142334Y-55600242D01*
X70129160Y-55593200D01*
X70114866Y-55588864D01*
X70100000Y-55587400D01*
X69100000Y-55587400D01*
X69085134Y-55588864D01*
X69070840Y-55593200D01*
X69057666Y-55600242D01*
X69046118Y-55609718D01*
X69036642Y-55621266D01*
X69029600Y-55634440D01*
X69025264Y-55648734D01*
X69023800Y-55663600D01*
X67826200Y-55663600D01*
X67826201Y-55624999D01*
X67824737Y-55610133D01*
X67820401Y-55595838D01*
X67813359Y-55582664D01*
X67803882Y-55571117D01*
X67792335Y-55561641D01*
X67779161Y-55554599D01*
X67764867Y-55550263D01*
X67750001Y-55548799D01*
X66850000Y-55548800D01*
X66835134Y-55550264D01*
X66820840Y-55554600D01*
X66807666Y-55561642D01*
X66796118Y-55571118D01*
X66786642Y-55582666D01*
X66779600Y-55595840D01*
X66775264Y-55610134D01*
X66773800Y-55625000D01*
X66226199Y-55625000D01*
X66226200Y-55600000D01*
X66224736Y-55585134D01*
X66220400Y-55570839D01*
X66213358Y-55557665D01*
X66203881Y-55546118D01*
X66192334Y-55536642D01*
X66179160Y-55529600D01*
X66164866Y-55525264D01*
X66150000Y-55523800D01*
X65249999Y-55523801D01*
X65235133Y-55525265D01*
X65220839Y-55529601D01*
X65207665Y-55536643D01*
X65196117Y-55546119D01*
X65186641Y-55557667D01*
X65179599Y-55570841D01*
X65175263Y-55585135D01*
X65173799Y-55600001D01*
X30253600Y-55600001D01*
X30253600Y-54100000D01*
X39548800Y-54100000D01*
X39548800Y-54900000D01*
X39550264Y-54914866D01*
X39554600Y-54929160D01*
X39561642Y-54942334D01*
X39571118Y-54953882D01*
X39582666Y-54963358D01*
X39595840Y-54970400D01*
X39610134Y-54974736D01*
X39625000Y-54976200D01*
X39925000Y-54976200D01*
X39939866Y-54974736D01*
X39954160Y-54970400D01*
X39967334Y-54963358D01*
X39978882Y-54953882D01*
X39988358Y-54942334D01*
X39995400Y-54929160D01*
X39999736Y-54914866D01*
X40001200Y-54900000D01*
X40001200Y-54100000D01*
X39999736Y-54085134D01*
X39995400Y-54070840D01*
X39988358Y-54057666D01*
X39978882Y-54046118D01*
X39967334Y-54036642D01*
X39954160Y-54029600D01*
X39939866Y-54025264D01*
X39925000Y-54023800D01*
X39625000Y-54023800D01*
X39610134Y-54025264D01*
X39595840Y-54029600D01*
X39582666Y-54036642D01*
X39571118Y-54046118D01*
X39561642Y-54057666D01*
X39554600Y-54070840D01*
X39550264Y-54085134D01*
X39548800Y-54100000D01*
X30253600Y-54100000D01*
X30253600Y-53492777D01*
X39794000Y-53492777D01*
X39794000Y-53607223D01*
X39816328Y-53719471D01*
X39860125Y-53825207D01*
X39923708Y-53920366D01*
X40004634Y-54001292D01*
X40071389Y-54045896D01*
X40071118Y-54046118D01*
X40061642Y-54057666D01*
X40054600Y-54070840D01*
X40050264Y-54085134D01*
X40048800Y-54100000D01*
X40048800Y-54900000D01*
X40050264Y-54914866D01*
X40054600Y-54929160D01*
X40061642Y-54942334D01*
X40071118Y-54953882D01*
X40082666Y-54963358D01*
X40095840Y-54970400D01*
X40110134Y-54974736D01*
X40125000Y-54976200D01*
X40425000Y-54976200D01*
X40439866Y-54974736D01*
X40454160Y-54970400D01*
X40467334Y-54963358D01*
X40478882Y-54953882D01*
X40488358Y-54942334D01*
X40495400Y-54929160D01*
X40499736Y-54914866D01*
X40501200Y-54900000D01*
X40501200Y-54150000D01*
X68923800Y-54150000D01*
X68923800Y-54850000D01*
X68925264Y-54864866D01*
X68929600Y-54879160D01*
X68936642Y-54892334D01*
X68946118Y-54903882D01*
X68957666Y-54913358D01*
X68970840Y-54920400D01*
X68985134Y-54924736D01*
X69000000Y-54926200D01*
X70150000Y-54926200D01*
X70164866Y-54924736D01*
X70179160Y-54920400D01*
X70192334Y-54913358D01*
X70203882Y-54903882D01*
X70213358Y-54892334D01*
X70220400Y-54879160D01*
X70224736Y-54864866D01*
X70226200Y-54850000D01*
X70226200Y-54150000D01*
X70224736Y-54135134D01*
X70220400Y-54120840D01*
X70213358Y-54107666D01*
X70203882Y-54096118D01*
X70192334Y-54086642D01*
X70179160Y-54079600D01*
X70164866Y-54075264D01*
X70150000Y-54073800D01*
X69000000Y-54073800D01*
X68985134Y-54075264D01*
X68970840Y-54079600D01*
X68957666Y-54086642D01*
X68946118Y-54096118D01*
X68936642Y-54107666D01*
X68929600Y-54120840D01*
X68925264Y-54135134D01*
X68923800Y-54150000D01*
X40501200Y-54150000D01*
X40501200Y-54117279D01*
X40544471Y-54108672D01*
X40650207Y-54064875D01*
X40745366Y-54001292D01*
X40826292Y-53920366D01*
X40889875Y-53825207D01*
X40933672Y-53719471D01*
X40956000Y-53607223D01*
X40956000Y-53492777D01*
X40933672Y-53380529D01*
X40889875Y-53274793D01*
X40826292Y-53179634D01*
X40745366Y-53098708D01*
X40674265Y-53051200D01*
X41075000Y-53051200D01*
X41089866Y-53049736D01*
X41104160Y-53045400D01*
X41117334Y-53038358D01*
X41128882Y-53028882D01*
X41138358Y-53017334D01*
X41145400Y-53004160D01*
X41149736Y-52989866D01*
X41151200Y-52975000D01*
X41151200Y-51900000D01*
X41149736Y-51885134D01*
X41146662Y-51875000D01*
X43272464Y-51875000D01*
X43272464Y-53225000D01*
X43277797Y-53279145D01*
X43293590Y-53331208D01*
X43319237Y-53379191D01*
X43353752Y-53421248D01*
X43395809Y-53455763D01*
X43443792Y-53481410D01*
X43495855Y-53497203D01*
X43550000Y-53502536D01*
X44900000Y-53502536D01*
X44954145Y-53497203D01*
X45006208Y-53481410D01*
X45054191Y-53455763D01*
X45096248Y-53421248D01*
X45130763Y-53379191D01*
X45156410Y-53331208D01*
X45172203Y-53279145D01*
X45177536Y-53225000D01*
X45177536Y-53200000D01*
X66723800Y-53200000D01*
X66723800Y-53900000D01*
X66725264Y-53914866D01*
X66729600Y-53929160D01*
X66736642Y-53942334D01*
X66746118Y-53953882D01*
X66757666Y-53963358D01*
X66770840Y-53970400D01*
X66785134Y-53974736D01*
X66800000Y-53976200D01*
X67900000Y-53976200D01*
X67914866Y-53974736D01*
X67929160Y-53970400D01*
X67942334Y-53963358D01*
X67953882Y-53953882D01*
X67963358Y-53942334D01*
X67970400Y-53929160D01*
X67974736Y-53914866D01*
X67976200Y-53900000D01*
X67976200Y-53292777D01*
X68119000Y-53292777D01*
X68119000Y-53407223D01*
X68141328Y-53519471D01*
X68185125Y-53625207D01*
X68248708Y-53720366D01*
X68329634Y-53801292D01*
X68424793Y-53864875D01*
X68530529Y-53908672D01*
X68642777Y-53931000D01*
X68757223Y-53931000D01*
X68869471Y-53908672D01*
X68975207Y-53864875D01*
X69070366Y-53801292D01*
X69151292Y-53720366D01*
X69214875Y-53625207D01*
X69258672Y-53519471D01*
X69281000Y-53407223D01*
X69281000Y-53292777D01*
X69258672Y-53180529D01*
X69214875Y-53074793D01*
X69151292Y-52979634D01*
X69070366Y-52898708D01*
X68975207Y-52835125D01*
X68869471Y-52791328D01*
X68757223Y-52769000D01*
X68642777Y-52769000D01*
X68530529Y-52791328D01*
X68424793Y-52835125D01*
X68329634Y-52898708D01*
X68248708Y-52979634D01*
X68185125Y-53074793D01*
X68141328Y-53180529D01*
X68119000Y-53292777D01*
X67976200Y-53292777D01*
X67976200Y-53200000D01*
X67974736Y-53185134D01*
X67970400Y-53170840D01*
X67963358Y-53157666D01*
X67953882Y-53146118D01*
X67942334Y-53136642D01*
X67929160Y-53129600D01*
X67914866Y-53125264D01*
X67900000Y-53123800D01*
X66800000Y-53123800D01*
X66785134Y-53125264D01*
X66770840Y-53129600D01*
X66757666Y-53136642D01*
X66746118Y-53146118D01*
X66736642Y-53157666D01*
X66729600Y-53170840D01*
X66725264Y-53185134D01*
X66723800Y-53200000D01*
X45177536Y-53200000D01*
X45177536Y-52225000D01*
X70997464Y-52225000D01*
X70997464Y-53575000D01*
X71002797Y-53629145D01*
X71018590Y-53681208D01*
X71044237Y-53729191D01*
X71078752Y-53771248D01*
X71120809Y-53805763D01*
X71168792Y-53831410D01*
X71220855Y-53847203D01*
X71275000Y-53852536D01*
X72625000Y-53852536D01*
X72679145Y-53847203D01*
X72731208Y-53831410D01*
X72779191Y-53805763D01*
X72821248Y-53771248D01*
X72855763Y-53729191D01*
X72881410Y-53681208D01*
X72897203Y-53629145D01*
X72902536Y-53575000D01*
X72902536Y-52225000D01*
X72897203Y-52170855D01*
X72881410Y-52118792D01*
X72855763Y-52070809D01*
X72821248Y-52028752D01*
X72779191Y-51994237D01*
X72731208Y-51968590D01*
X72679145Y-51952797D01*
X72625000Y-51947464D01*
X71275000Y-51947464D01*
X71220855Y-51952797D01*
X71168792Y-51968590D01*
X71120809Y-51994237D01*
X71078752Y-52028752D01*
X71044237Y-52070809D01*
X71018590Y-52118792D01*
X71002797Y-52170855D01*
X70997464Y-52225000D01*
X45177536Y-52225000D01*
X45177536Y-51875000D01*
X45172203Y-51820855D01*
X45156410Y-51768792D01*
X45130763Y-51720809D01*
X45096248Y-51678752D01*
X45054191Y-51644237D01*
X45006208Y-51618590D01*
X44954145Y-51602797D01*
X44900000Y-51597464D01*
X43550000Y-51597464D01*
X43495855Y-51602797D01*
X43443792Y-51618590D01*
X43395809Y-51644237D01*
X43353752Y-51678752D01*
X43319237Y-51720809D01*
X43293590Y-51768792D01*
X43277797Y-51820855D01*
X43272464Y-51875000D01*
X41146662Y-51875000D01*
X41145400Y-51870840D01*
X41138358Y-51857666D01*
X41128882Y-51846118D01*
X41117334Y-51836642D01*
X41104160Y-51829600D01*
X41089866Y-51825264D01*
X41075000Y-51823800D01*
X40425000Y-51823800D01*
X40410134Y-51825264D01*
X40395840Y-51829600D01*
X40382666Y-51836642D01*
X40371118Y-51846118D01*
X40361642Y-51857666D01*
X40354600Y-51870840D01*
X40350264Y-51885134D01*
X40348800Y-51900000D01*
X40348800Y-52969000D01*
X40317777Y-52969000D01*
X40205529Y-52991328D01*
X40099793Y-53035125D01*
X40004634Y-53098708D01*
X39923708Y-53179634D01*
X39860125Y-53274793D01*
X39816328Y-53380529D01*
X39794000Y-53492777D01*
X30253600Y-53492777D01*
X30253600Y-50992777D01*
X38744000Y-50992777D01*
X38744000Y-51107223D01*
X38766328Y-51219471D01*
X38810125Y-51325207D01*
X38873708Y-51420366D01*
X38954634Y-51501292D01*
X39049793Y-51564875D01*
X39155529Y-51608672D01*
X39267777Y-51631000D01*
X39382223Y-51631000D01*
X39494471Y-51608672D01*
X39600207Y-51564875D01*
X39695366Y-51501292D01*
X39776292Y-51420366D01*
X39839875Y-51325207D01*
X39883672Y-51219471D01*
X39903900Y-51117777D01*
X40494000Y-51117777D01*
X40494000Y-51232223D01*
X40516328Y-51344471D01*
X40560125Y-51450207D01*
X40623708Y-51545366D01*
X40704634Y-51626292D01*
X40799793Y-51689875D01*
X40905529Y-51733672D01*
X41017777Y-51756000D01*
X41132223Y-51756000D01*
X41244471Y-51733672D01*
X41350207Y-51689875D01*
X41445366Y-51626292D01*
X41526292Y-51545366D01*
X41589875Y-51450207D01*
X41633672Y-51344471D01*
X41656000Y-51232223D01*
X41656000Y-51117777D01*
X41633672Y-51005529D01*
X41589875Y-50899793D01*
X41557406Y-50851200D01*
X42025000Y-50851200D01*
X42039866Y-50849736D01*
X42054160Y-50845400D01*
X42067334Y-50838358D01*
X42078882Y-50828882D01*
X42088358Y-50817334D01*
X42095400Y-50804160D01*
X42099736Y-50789866D01*
X42101200Y-50775000D01*
X42101200Y-49700000D01*
X42099736Y-49685134D01*
X42095400Y-49670840D01*
X42088358Y-49657666D01*
X42078882Y-49646118D01*
X42067334Y-49636642D01*
X42054160Y-49629600D01*
X42039866Y-49625264D01*
X42025000Y-49623800D01*
X41375000Y-49623800D01*
X41360134Y-49625264D01*
X41345840Y-49629600D01*
X41332666Y-49636642D01*
X41321118Y-49646118D01*
X41311642Y-49657666D01*
X41304600Y-49670840D01*
X41300264Y-49685134D01*
X41298800Y-49700000D01*
X41298800Y-50638832D01*
X41244471Y-50616328D01*
X41132223Y-50594000D01*
X41017777Y-50594000D01*
X40905529Y-50616328D01*
X40799793Y-50660125D01*
X40704634Y-50723708D01*
X40623708Y-50804634D01*
X40560125Y-50899793D01*
X40516328Y-51005529D01*
X40494000Y-51117777D01*
X39903900Y-51117777D01*
X39906000Y-51107223D01*
X39906000Y-50992777D01*
X39883672Y-50880529D01*
X39839875Y-50774793D01*
X39776292Y-50679634D01*
X39695366Y-50598708D01*
X39600207Y-50535125D01*
X39494471Y-50491328D01*
X39382223Y-50469000D01*
X39267777Y-50469000D01*
X39155529Y-50491328D01*
X39049793Y-50535125D01*
X38954634Y-50598708D01*
X38873708Y-50679634D01*
X38810125Y-50774793D01*
X38766328Y-50880529D01*
X38744000Y-50992777D01*
X30253600Y-50992777D01*
X30253600Y-48850000D01*
X68473800Y-48850000D01*
X68473800Y-49750000D01*
X68475264Y-49764866D01*
X68479600Y-49779160D01*
X68486642Y-49792334D01*
X68496118Y-49803882D01*
X68507666Y-49813358D01*
X68520840Y-49820400D01*
X68535134Y-49824736D01*
X68550000Y-49826200D01*
X69550000Y-49826200D01*
X69564866Y-49824736D01*
X69579160Y-49820400D01*
X69592334Y-49813358D01*
X69603882Y-49803882D01*
X69613358Y-49792334D01*
X69620400Y-49779160D01*
X69624736Y-49764866D01*
X69626200Y-49750000D01*
X69626200Y-48850000D01*
X69624736Y-48835134D01*
X69620400Y-48820840D01*
X69613358Y-48807666D01*
X69603882Y-48796118D01*
X69592334Y-48786642D01*
X69579160Y-48779600D01*
X69564866Y-48775264D01*
X69550000Y-48773800D01*
X68550000Y-48773800D01*
X68535134Y-48775264D01*
X68520840Y-48779600D01*
X68507666Y-48786642D01*
X68496118Y-48796118D01*
X68486642Y-48807666D01*
X68479600Y-48820840D01*
X68475264Y-48835134D01*
X68473800Y-48850000D01*
X30253600Y-48850000D01*
X30253600Y-47300000D01*
X68473800Y-47300000D01*
X68473800Y-48200000D01*
X68475264Y-48214866D01*
X68479600Y-48229160D01*
X68486642Y-48242334D01*
X68496118Y-48253882D01*
X68507666Y-48263358D01*
X68520840Y-48270400D01*
X68535134Y-48274736D01*
X68550000Y-48276200D01*
X69550000Y-48276200D01*
X69564866Y-48274736D01*
X69579160Y-48270400D01*
X69592334Y-48263358D01*
X69603882Y-48253882D01*
X69613358Y-48242334D01*
X69620400Y-48229160D01*
X69624736Y-48214866D01*
X69626200Y-48200000D01*
X69626200Y-47300000D01*
X69624736Y-47285134D01*
X69620400Y-47270840D01*
X69613358Y-47257666D01*
X69603882Y-47246118D01*
X69592334Y-47236642D01*
X69579160Y-47229600D01*
X69564866Y-47225264D01*
X69550000Y-47223800D01*
X68550000Y-47223800D01*
X68535134Y-47225264D01*
X68520840Y-47229600D01*
X68507666Y-47236642D01*
X68496118Y-47246118D01*
X68486642Y-47257666D01*
X68479600Y-47270840D01*
X68475264Y-47285134D01*
X68473800Y-47300000D01*
X30253600Y-47300000D01*
X30253600Y-40901200D01*
X35350000Y-40901200D01*
X35364866Y-40899736D01*
X35379160Y-40895400D01*
X35392334Y-40888358D01*
X35403882Y-40878882D01*
X35413358Y-40867334D01*
X35420400Y-40854160D01*
X35424736Y-40839866D01*
X35426200Y-40825000D01*
X35426200Y-39275000D01*
X35424736Y-39260134D01*
X35420400Y-39245840D01*
X35413358Y-39232666D01*
X35403882Y-39221118D01*
X35392334Y-39211642D01*
X35379160Y-39204600D01*
X35364866Y-39200264D01*
X35350000Y-39198800D01*
X30253600Y-39198800D01*
X30253600Y-37983400D01*
X68998800Y-37983400D01*
X68998800Y-38116600D01*
X69024786Y-38247240D01*
X69075759Y-38370301D01*
X69149761Y-38481052D01*
X69243948Y-38575239D01*
X69354699Y-38649241D01*
X69477760Y-38700214D01*
X69608400Y-38726200D01*
X69741600Y-38726200D01*
X69872240Y-38700214D01*
X69995301Y-38649241D01*
X70106052Y-38575239D01*
X70200239Y-38481052D01*
X70274241Y-38370301D01*
X70325214Y-38247240D01*
X70351200Y-38116600D01*
X70351200Y-37983400D01*
X70325214Y-37852760D01*
X70274241Y-37729699D01*
X70200239Y-37618948D01*
X70106052Y-37524761D01*
X69995301Y-37450759D01*
X69872240Y-37399786D01*
X69741600Y-37373800D01*
X69608400Y-37373800D01*
X69477760Y-37399786D01*
X69354699Y-37450759D01*
X69243948Y-37524761D01*
X69149761Y-37618948D01*
X69075759Y-37729699D01*
X69024786Y-37852760D01*
X68998800Y-37983400D01*
X30253600Y-37983400D01*
X30253600Y-33242777D01*
X59719000Y-33242777D01*
X59719000Y-33357223D01*
X59741328Y-33469471D01*
X59785125Y-33575207D01*
X59848708Y-33670366D01*
X59929634Y-33751292D01*
X60024793Y-33814875D01*
X60130529Y-33858672D01*
X60242777Y-33881000D01*
X60357223Y-33881000D01*
X60469471Y-33858672D01*
X60575207Y-33814875D01*
X60670366Y-33751292D01*
X60751292Y-33670366D01*
X60814875Y-33575207D01*
X60858672Y-33469471D01*
X60881000Y-33357223D01*
X60881000Y-33242777D01*
X60858672Y-33130529D01*
X60814875Y-33024793D01*
X60751292Y-32929634D01*
X60670366Y-32848708D01*
X60575207Y-32785125D01*
X60469471Y-32741328D01*
X60357223Y-32719000D01*
X60242777Y-32719000D01*
X60130529Y-32741328D01*
X60024793Y-32785125D01*
X59929634Y-32848708D01*
X59848708Y-32929634D01*
X59785125Y-33024793D01*
X59741328Y-33130529D01*
X59719000Y-33242777D01*
X30253600Y-33242777D01*
X30253600Y-28993122D01*
X42064468Y-28993122D01*
X42064468Y-31593122D01*
X42069801Y-31647267D01*
X42085594Y-31699330D01*
X42111241Y-31747313D01*
X42145756Y-31789370D01*
X42187813Y-31823885D01*
X42235796Y-31849532D01*
X42287859Y-31865325D01*
X42342004Y-31870658D01*
X44942004Y-31870658D01*
X44996149Y-31865325D01*
X45048212Y-31849532D01*
X45096195Y-31823885D01*
X45138252Y-31789370D01*
X45172767Y-31747313D01*
X45198414Y-31699330D01*
X45214207Y-31647267D01*
X45219540Y-31593122D01*
X45219540Y-30792777D01*
X69669000Y-30792777D01*
X69669000Y-30907223D01*
X69691328Y-31019471D01*
X69735125Y-31125207D01*
X69798708Y-31220366D01*
X69879634Y-31301292D01*
X69974793Y-31364875D01*
X70080529Y-31408672D01*
X70192777Y-31431000D01*
X70307223Y-31431000D01*
X70419471Y-31408672D01*
X70525207Y-31364875D01*
X70620366Y-31301292D01*
X70701292Y-31220366D01*
X70764875Y-31125207D01*
X70808672Y-31019471D01*
X70831000Y-30907223D01*
X70831000Y-30792777D01*
X70808672Y-30680529D01*
X70764875Y-30574793D01*
X70701292Y-30479634D01*
X70620366Y-30398708D01*
X70525207Y-30335125D01*
X70419471Y-30291328D01*
X70307223Y-30269000D01*
X70192777Y-30269000D01*
X70080529Y-30291328D01*
X69974793Y-30335125D01*
X69879634Y-30398708D01*
X69798708Y-30479634D01*
X69735125Y-30574793D01*
X69691328Y-30680529D01*
X69669000Y-30792777D01*
X45219540Y-30792777D01*
X45219540Y-29025645D01*
X59193800Y-29025645D01*
X59193800Y-29554354D01*
X59205393Y-29672062D01*
X59251207Y-29823088D01*
X59325604Y-29962275D01*
X59425725Y-30084275D01*
X59547724Y-30184396D01*
X59686911Y-30258793D01*
X59837937Y-30304607D01*
X59995000Y-30320076D01*
X60152062Y-30304607D01*
X60303088Y-30258793D01*
X60442275Y-30184396D01*
X60564275Y-30084275D01*
X60630000Y-30004188D01*
X60695725Y-30084275D01*
X60817724Y-30184396D01*
X60956911Y-30258793D01*
X61107937Y-30304607D01*
X61265000Y-30320076D01*
X61422062Y-30304607D01*
X61573088Y-30258793D01*
X61712275Y-30184396D01*
X61755181Y-30149185D01*
X61779237Y-30194191D01*
X61813752Y-30236248D01*
X61855809Y-30270763D01*
X61903792Y-30296410D01*
X61955855Y-30312203D01*
X62010000Y-30317536D01*
X63060000Y-30317536D01*
X63114145Y-30312203D01*
X63166208Y-30296410D01*
X63214191Y-30270763D01*
X63256248Y-30236248D01*
X63290763Y-30194191D01*
X63316410Y-30146208D01*
X63332203Y-30094145D01*
X63337536Y-30040000D01*
X63337536Y-28540000D01*
X63332203Y-28485855D01*
X63316410Y-28433792D01*
X63290763Y-28385809D01*
X63269277Y-28359628D01*
X65138355Y-28359628D01*
X65206353Y-28580770D01*
X65316187Y-28784397D01*
X65463637Y-28962684D01*
X65643035Y-29108779D01*
X65847488Y-29217068D01*
X66060373Y-29281642D01*
X66244200Y-29221474D01*
X66244200Y-28175800D01*
X66345800Y-28175800D01*
X66345800Y-29221474D01*
X66529627Y-29281642D01*
X66742512Y-29217068D01*
X66946965Y-29108779D01*
X67126363Y-28962684D01*
X67273813Y-28784397D01*
X67383647Y-28580770D01*
X67451645Y-28359628D01*
X67391559Y-28175800D01*
X66345800Y-28175800D01*
X66244200Y-28175800D01*
X65198441Y-28175800D01*
X65138355Y-28359628D01*
X63269277Y-28359628D01*
X63256248Y-28343752D01*
X63214191Y-28309237D01*
X63166208Y-28283590D01*
X63114145Y-28267797D01*
X63060000Y-28262464D01*
X62010000Y-28262464D01*
X61955855Y-28267797D01*
X61903792Y-28283590D01*
X61855809Y-28309237D01*
X61813752Y-28343752D01*
X61779237Y-28385809D01*
X61755181Y-28430815D01*
X61712276Y-28395604D01*
X61573089Y-28321207D01*
X61422063Y-28275393D01*
X61265000Y-28259924D01*
X61107938Y-28275393D01*
X60956912Y-28321207D01*
X60817725Y-28395604D01*
X60695726Y-28495725D01*
X60630000Y-28575812D01*
X60564275Y-28495725D01*
X60442276Y-28395604D01*
X60303089Y-28321207D01*
X60152063Y-28275393D01*
X59995000Y-28259924D01*
X59837938Y-28275393D01*
X59686912Y-28321207D01*
X59547725Y-28395604D01*
X59425726Y-28495725D01*
X59325604Y-28617724D01*
X59251207Y-28756911D01*
X59205393Y-28907937D01*
X59193800Y-29025645D01*
X45219540Y-29025645D01*
X45219540Y-28993122D01*
X45214207Y-28938977D01*
X45198414Y-28886914D01*
X45172767Y-28838931D01*
X45138252Y-28796874D01*
X45096195Y-28762359D01*
X45048212Y-28736712D01*
X44996149Y-28720919D01*
X44942004Y-28715586D01*
X42342004Y-28715586D01*
X42287859Y-28720919D01*
X42235796Y-28736712D01*
X42187813Y-28762359D01*
X42145756Y-28796874D01*
X42111241Y-28838931D01*
X42085594Y-28886914D01*
X42069801Y-28938977D01*
X42064468Y-28993122D01*
X30253600Y-28993122D01*
X30253600Y-27126346D01*
X31845496Y-27126346D01*
X32167552Y-27499166D01*
X32704476Y-27802319D01*
X33290226Y-27994899D01*
X33902291Y-28069505D01*
X34517151Y-28023270D01*
X35111176Y-27857969D01*
X35661538Y-27579956D01*
X35782448Y-27499166D01*
X36094540Y-27137880D01*
X37365804Y-27137880D01*
X37365804Y-27448364D01*
X37426376Y-27752883D01*
X37545193Y-28039733D01*
X37717689Y-28297891D01*
X37937235Y-28517437D01*
X38195393Y-28689933D01*
X38482243Y-28808750D01*
X38786762Y-28869322D01*
X39097246Y-28869322D01*
X39401765Y-28808750D01*
X39688615Y-28689933D01*
X39946773Y-28517437D01*
X40166319Y-28297891D01*
X40338815Y-28039733D01*
X40400682Y-27890372D01*
X65138355Y-27890372D01*
X65198441Y-28074200D01*
X66244200Y-28074200D01*
X66244200Y-27028526D01*
X66345800Y-27028526D01*
X66345800Y-28074200D01*
X67391559Y-28074200D01*
X67411210Y-28014079D01*
X67708800Y-28014079D01*
X67708800Y-28235921D01*
X67752079Y-28453500D01*
X67836975Y-28658456D01*
X67960223Y-28842911D01*
X68117089Y-28999777D01*
X68301544Y-29123025D01*
X68506500Y-29207921D01*
X68724079Y-29251200D01*
X68945921Y-29251200D01*
X69163500Y-29207921D01*
X69368456Y-29123025D01*
X69552911Y-28999777D01*
X69709777Y-28842911D01*
X69833025Y-28658456D01*
X69917921Y-28453500D01*
X69961200Y-28235921D01*
X69961200Y-28014079D01*
X69917921Y-27796500D01*
X69833025Y-27591544D01*
X69709777Y-27407089D01*
X69577688Y-27275000D01*
X70247464Y-27275000D01*
X70247464Y-28975000D01*
X70252797Y-29029145D01*
X70268590Y-29081208D01*
X70294237Y-29129191D01*
X70328752Y-29171248D01*
X70370809Y-29205763D01*
X70418792Y-29231410D01*
X70470855Y-29247203D01*
X70525000Y-29252536D01*
X72225000Y-29252536D01*
X72279145Y-29247203D01*
X72331208Y-29231410D01*
X72379191Y-29205763D01*
X72421248Y-29171248D01*
X72455763Y-29129191D01*
X72481410Y-29081208D01*
X72497203Y-29029145D01*
X72502536Y-28975000D01*
X72502536Y-27275000D01*
X72497203Y-27220855D01*
X72481410Y-27168792D01*
X72455763Y-27120809D01*
X72421248Y-27078752D01*
X72379191Y-27044237D01*
X72331208Y-27018590D01*
X72279145Y-27002797D01*
X72225000Y-26997464D01*
X70525000Y-26997464D01*
X70470855Y-27002797D01*
X70418792Y-27018590D01*
X70370809Y-27044237D01*
X70328752Y-27078752D01*
X70294237Y-27120809D01*
X70268590Y-27168792D01*
X70252797Y-27220855D01*
X70247464Y-27275000D01*
X69577688Y-27275000D01*
X69552911Y-27250223D01*
X69368456Y-27126975D01*
X69163500Y-27042079D01*
X68945921Y-26998800D01*
X68724079Y-26998800D01*
X68506500Y-27042079D01*
X68301544Y-27126975D01*
X68117089Y-27250223D01*
X67960223Y-27407089D01*
X67836975Y-27591544D01*
X67752079Y-27796500D01*
X67708800Y-28014079D01*
X67411210Y-28014079D01*
X67451645Y-27890372D01*
X67383647Y-27669230D01*
X67273813Y-27465603D01*
X67126363Y-27287316D01*
X66946965Y-27141221D01*
X66742512Y-27032932D01*
X66529627Y-26968358D01*
X66345800Y-27028526D01*
X66244200Y-27028526D01*
X66060373Y-26968358D01*
X65847488Y-27032932D01*
X65643035Y-27141221D01*
X65463637Y-27287316D01*
X65316187Y-27465603D01*
X65206353Y-27669230D01*
X65138355Y-27890372D01*
X40400682Y-27890372D01*
X40457632Y-27752883D01*
X40518204Y-27448364D01*
X40518204Y-27137880D01*
X40457632Y-26833361D01*
X40338815Y-26546511D01*
X40166319Y-26288353D01*
X39946773Y-26068807D01*
X39688615Y-25896311D01*
X39401765Y-25777494D01*
X39097246Y-25716922D01*
X38786762Y-25716922D01*
X38482243Y-25777494D01*
X38195393Y-25896311D01*
X37937235Y-26068807D01*
X37717689Y-26288353D01*
X37545193Y-26546511D01*
X37426376Y-26833361D01*
X37365804Y-27137880D01*
X36094540Y-27137880D01*
X36104504Y-27126346D01*
X33975000Y-24996842D01*
X31845496Y-27126346D01*
X30253600Y-27126346D01*
X30253600Y-24852291D01*
X30830495Y-24852291D01*
X30876730Y-25467151D01*
X31042031Y-26061176D01*
X31320044Y-26611538D01*
X31400834Y-26732448D01*
X31773654Y-27054504D01*
X33903158Y-24925000D01*
X34046842Y-24925000D01*
X36176346Y-27054504D01*
X36549166Y-26732448D01*
X36852319Y-26195524D01*
X37044899Y-25609774D01*
X37067008Y-25428388D01*
X42578580Y-25428388D01*
X42720722Y-25647585D01*
X43002666Y-25801293D01*
X43309180Y-25897042D01*
X43628485Y-25931154D01*
X43948309Y-25902317D01*
X44256362Y-25811640D01*
X44540805Y-25662608D01*
X44563286Y-25647585D01*
X44705428Y-25428388D01*
X43642004Y-24364964D01*
X42578580Y-25428388D01*
X37067008Y-25428388D01*
X37119505Y-24997709D01*
X37073270Y-24382849D01*
X37044540Y-24279603D01*
X42003972Y-24279603D01*
X42032809Y-24599427D01*
X42123486Y-24907480D01*
X42272518Y-25191923D01*
X42287541Y-25214404D01*
X42506738Y-25356546D01*
X43570162Y-24293122D01*
X43713846Y-24293122D01*
X44777270Y-25356546D01*
X44996467Y-25214404D01*
X45150175Y-24932460D01*
X45245924Y-24625946D01*
X45280036Y-24306641D01*
X45251199Y-23986817D01*
X45160522Y-23678764D01*
X45104595Y-23572021D01*
X71873801Y-23572021D01*
X71873801Y-24177979D01*
X71992018Y-24772294D01*
X72223908Y-25332126D01*
X72560561Y-25835962D01*
X72989038Y-26264439D01*
X73492874Y-26601092D01*
X74052706Y-26832982D01*
X74647021Y-26951199D01*
X75252979Y-26951199D01*
X75847294Y-26832982D01*
X76407126Y-26601092D01*
X76910962Y-26264439D01*
X77339439Y-25835962D01*
X77676092Y-25332126D01*
X77907982Y-24772294D01*
X78026199Y-24177979D01*
X78026199Y-23572021D01*
X77907982Y-22977706D01*
X77676092Y-22417874D01*
X77339439Y-21914038D01*
X76910962Y-21485561D01*
X76407126Y-21148908D01*
X75847294Y-20917018D01*
X75252979Y-20798801D01*
X74647021Y-20798801D01*
X74052706Y-20917018D01*
X73492874Y-21148908D01*
X72989038Y-21485561D01*
X72560561Y-21914038D01*
X72223908Y-22417874D01*
X71992018Y-22977706D01*
X71873801Y-23572021D01*
X45104595Y-23572021D01*
X45011490Y-23394321D01*
X44996467Y-23371840D01*
X44777270Y-23229698D01*
X43713846Y-24293122D01*
X43570162Y-24293122D01*
X42506738Y-23229698D01*
X42287541Y-23371840D01*
X42133833Y-23653784D01*
X42038084Y-23960298D01*
X42003972Y-24279603D01*
X37044540Y-24279603D01*
X36907969Y-23788824D01*
X36629956Y-23238462D01*
X36576097Y-23157856D01*
X42578580Y-23157856D01*
X43642004Y-24221280D01*
X44705428Y-23157856D01*
X44563286Y-22938659D01*
X44281342Y-22784951D01*
X43974828Y-22689202D01*
X43655523Y-22655090D01*
X43335699Y-22683927D01*
X43027646Y-22774604D01*
X42743203Y-22923636D01*
X42720722Y-22938659D01*
X42578580Y-23157856D01*
X36576097Y-23157856D01*
X36549166Y-23117552D01*
X36176346Y-22795496D01*
X34046842Y-24925000D01*
X33903158Y-24925000D01*
X31773654Y-22795496D01*
X31400834Y-23117552D01*
X31097681Y-23654476D01*
X30905101Y-24240226D01*
X30830495Y-24852291D01*
X30253600Y-24852291D01*
X30253600Y-22723654D01*
X31845496Y-22723654D01*
X33975000Y-24853158D01*
X36104504Y-22723654D01*
X35782448Y-22350834D01*
X35245524Y-22047681D01*
X34659774Y-21855101D01*
X34047709Y-21780495D01*
X33432849Y-21826730D01*
X32838824Y-21992031D01*
X32288462Y-22270044D01*
X32167552Y-22350834D01*
X31845496Y-22723654D01*
X30253600Y-22723654D01*
X30253600Y-20753600D01*
X78246401Y-20753600D01*
X78246401Y-44423800D01*
M02*
