G04 #@! TF.GenerationSoftware,KiCad,Pcbnew,(5.1.5)-3*
G04 #@! TF.CreationDate,2020-05-10T15:52:49-07:00*
G04 #@! TF.ProjectId,april_proj,61707269-6c5f-4707-926f-6a2e6b696361,rev?*
G04 #@! TF.SameCoordinates,Original*
G04 #@! TF.FileFunction,Soldermask,Bot*
G04 #@! TF.FilePolarity,Negative*
%FSLAX46Y46*%
G04 Gerber Fmt 4.6, Leading zero omitted, Abs format (unit mm)*
G04 Created by KiCad (PCBNEW (5.1.5)-3) date 2020-05-10 15:52:49*
%MOMM*%
%LPD*%
G04 APERTURE LIST*
%ADD10C,0.100000*%
G04 APERTURE END LIST*
D10*
G36*
X55776000Y-83216000D02*
G01*
X54174000Y-83216000D01*
X54174000Y-78034000D01*
X55776000Y-78034000D01*
X55776000Y-83216000D01*
G37*
G36*
X47276000Y-83216000D02*
G01*
X45674000Y-83216000D01*
X45674000Y-78034000D01*
X47276000Y-78034000D01*
X47276000Y-83216000D01*
G37*
G36*
X75206606Y-76133563D02*
G01*
X75725455Y-76348477D01*
X76192406Y-76660484D01*
X76589516Y-77057594D01*
X76901523Y-77524545D01*
X77116437Y-78043394D01*
X77225999Y-78594201D01*
X77225999Y-79155799D01*
X77116437Y-79706606D01*
X76901523Y-80225455D01*
X76589516Y-80692406D01*
X76192406Y-81089516D01*
X75725455Y-81401523D01*
X75206606Y-81616437D01*
X74655800Y-81725999D01*
X74094200Y-81725999D01*
X73543394Y-81616437D01*
X73024545Y-81401523D01*
X72557594Y-81089516D01*
X72160484Y-80692406D01*
X71848477Y-80225455D01*
X71633563Y-79706606D01*
X71524001Y-79155799D01*
X71524001Y-78594201D01*
X71633563Y-78043394D01*
X71848477Y-77524545D01*
X72160484Y-77057594D01*
X72557594Y-76660484D01*
X73024545Y-76348477D01*
X73543394Y-76133563D01*
X74094200Y-76024001D01*
X74655800Y-76024001D01*
X75206606Y-76133563D01*
G37*
G36*
X41206606Y-76133563D02*
G01*
X41725455Y-76348477D01*
X42192406Y-76660484D01*
X42589516Y-77057594D01*
X42901523Y-77524545D01*
X43116437Y-78043394D01*
X43225999Y-78594201D01*
X43225999Y-79155799D01*
X43116437Y-79706606D01*
X42901523Y-80225455D01*
X42589516Y-80692406D01*
X42192406Y-81089516D01*
X41725455Y-81401523D01*
X41206606Y-81616437D01*
X40655800Y-81725999D01*
X40094200Y-81725999D01*
X39543394Y-81616437D01*
X39024545Y-81401523D01*
X38557594Y-81089516D01*
X38160484Y-80692406D01*
X37848477Y-80225455D01*
X37633563Y-79706606D01*
X37524001Y-79155799D01*
X37524001Y-78594201D01*
X37633563Y-78043394D01*
X37848477Y-77524545D01*
X38160484Y-77057594D01*
X38557594Y-76660484D01*
X39024545Y-76348477D01*
X39543394Y-76133563D01*
X40094200Y-76024001D01*
X40655800Y-76024001D01*
X41206606Y-76133563D01*
G37*
G36*
X35416000Y-79426000D02*
G01*
X30234000Y-79426000D01*
X30234000Y-77824000D01*
X35416000Y-77824000D01*
X35416000Y-79426000D01*
G37*
G36*
X52809468Y-72228565D02*
G01*
X52848138Y-72240296D01*
X52883777Y-72259346D01*
X52915017Y-72284983D01*
X52940654Y-72316223D01*
X52959704Y-72351862D01*
X52971435Y-72390532D01*
X52976000Y-72436888D01*
X52976000Y-73513112D01*
X52971435Y-73559468D01*
X52959704Y-73598138D01*
X52940654Y-73633777D01*
X52915017Y-73665017D01*
X52883777Y-73690654D01*
X52848138Y-73709704D01*
X52809468Y-73721435D01*
X52763112Y-73726000D01*
X52111888Y-73726000D01*
X52065532Y-73721435D01*
X52026862Y-73709704D01*
X51991223Y-73690654D01*
X51959983Y-73665017D01*
X51934346Y-73633777D01*
X51915296Y-73598138D01*
X51903565Y-73559468D01*
X51899000Y-73513112D01*
X51899000Y-72436888D01*
X51903565Y-72390532D01*
X51915296Y-72351862D01*
X51934346Y-72316223D01*
X51959983Y-72284983D01*
X51991223Y-72259346D01*
X52026862Y-72240296D01*
X52065532Y-72228565D01*
X52111888Y-72224000D01*
X52763112Y-72224000D01*
X52809468Y-72228565D01*
G37*
G36*
X50934468Y-72228565D02*
G01*
X50973138Y-72240296D01*
X51008777Y-72259346D01*
X51040017Y-72284983D01*
X51065654Y-72316223D01*
X51084704Y-72351862D01*
X51096435Y-72390532D01*
X51101000Y-72436888D01*
X51101000Y-73513112D01*
X51096435Y-73559468D01*
X51084704Y-73598138D01*
X51065654Y-73633777D01*
X51040017Y-73665017D01*
X51008777Y-73690654D01*
X50973138Y-73709704D01*
X50934468Y-73721435D01*
X50888112Y-73726000D01*
X50236888Y-73726000D01*
X50190532Y-73721435D01*
X50151862Y-73709704D01*
X50116223Y-73690654D01*
X50084983Y-73665017D01*
X50059346Y-73633777D01*
X50040296Y-73598138D01*
X50028565Y-73559468D01*
X50024000Y-73513112D01*
X50024000Y-72436888D01*
X50028565Y-72390532D01*
X50040296Y-72351862D01*
X50059346Y-72316223D01*
X50084983Y-72284983D01*
X50116223Y-72259346D01*
X50151862Y-72240296D01*
X50190532Y-72228565D01*
X50236888Y-72224000D01*
X50888112Y-72224000D01*
X50934468Y-72228565D01*
G37*
G36*
X63026000Y-72426000D02*
G01*
X61574000Y-72426000D01*
X61574000Y-70974000D01*
X63026000Y-70974000D01*
X63026000Y-72426000D01*
G37*
G36*
X55609468Y-70841065D02*
G01*
X55648138Y-70852796D01*
X55683777Y-70871846D01*
X55715017Y-70897483D01*
X55740654Y-70928723D01*
X55759704Y-70964362D01*
X55771435Y-71003032D01*
X55776000Y-71049388D01*
X55776000Y-71700612D01*
X55771435Y-71746968D01*
X55759704Y-71785638D01*
X55740654Y-71821277D01*
X55715017Y-71852517D01*
X55683777Y-71878154D01*
X55648138Y-71897204D01*
X55609468Y-71908935D01*
X55563112Y-71913500D01*
X54486888Y-71913500D01*
X54440532Y-71908935D01*
X54401862Y-71897204D01*
X54366223Y-71878154D01*
X54334983Y-71852517D01*
X54309346Y-71821277D01*
X54290296Y-71785638D01*
X54278565Y-71746968D01*
X54274000Y-71700612D01*
X54274000Y-71049388D01*
X54278565Y-71003032D01*
X54290296Y-70964362D01*
X54309346Y-70928723D01*
X54334983Y-70897483D01*
X54366223Y-70871846D01*
X54401862Y-70852796D01*
X54440532Y-70841065D01*
X54486888Y-70836500D01*
X55563112Y-70836500D01*
X55609468Y-70841065D01*
G37*
G36*
X35416000Y-70926000D02*
G01*
X30234000Y-70926000D01*
X30234000Y-69324000D01*
X35416000Y-69324000D01*
X35416000Y-70926000D01*
G37*
G36*
X60333795Y-69203565D02*
G01*
X60372465Y-69215296D01*
X60408104Y-69234346D01*
X60439344Y-69259983D01*
X60464981Y-69291223D01*
X60484031Y-69326862D01*
X60495762Y-69365532D01*
X60500327Y-69411888D01*
X60500327Y-70488112D01*
X60495762Y-70534468D01*
X60484031Y-70573138D01*
X60464981Y-70608777D01*
X60439344Y-70640017D01*
X60408104Y-70665654D01*
X60372465Y-70684704D01*
X60333795Y-70696435D01*
X60287439Y-70701000D01*
X59636215Y-70701000D01*
X59589859Y-70696435D01*
X59551189Y-70684704D01*
X59515550Y-70665654D01*
X59484310Y-70640017D01*
X59458673Y-70608777D01*
X59439623Y-70573138D01*
X59427892Y-70534468D01*
X59423327Y-70488112D01*
X59423327Y-69411888D01*
X59427892Y-69365532D01*
X59439623Y-69326862D01*
X59458673Y-69291223D01*
X59484310Y-69259983D01*
X59515550Y-69234346D01*
X59551189Y-69215296D01*
X59589859Y-69203565D01*
X59636215Y-69199000D01*
X60287439Y-69199000D01*
X60333795Y-69203565D01*
G37*
G36*
X58458795Y-69203565D02*
G01*
X58497465Y-69215296D01*
X58533104Y-69234346D01*
X58564344Y-69259983D01*
X58589981Y-69291223D01*
X58609031Y-69326862D01*
X58620762Y-69365532D01*
X58625327Y-69411888D01*
X58625327Y-70488112D01*
X58620762Y-70534468D01*
X58609031Y-70573138D01*
X58589981Y-70608777D01*
X58564344Y-70640017D01*
X58533104Y-70665654D01*
X58497465Y-70684704D01*
X58458795Y-70696435D01*
X58412439Y-70701000D01*
X57761215Y-70701000D01*
X57714859Y-70696435D01*
X57676189Y-70684704D01*
X57640550Y-70665654D01*
X57609310Y-70640017D01*
X57583673Y-70608777D01*
X57564623Y-70573138D01*
X57552892Y-70534468D01*
X57548327Y-70488112D01*
X57548327Y-69411888D01*
X57552892Y-69365532D01*
X57564623Y-69326862D01*
X57583673Y-69291223D01*
X57609310Y-69259983D01*
X57640550Y-69234346D01*
X57676189Y-69215296D01*
X57714859Y-69203565D01*
X57761215Y-69199000D01*
X58412439Y-69199000D01*
X58458795Y-69203565D01*
G37*
G36*
X62409468Y-69341065D02*
G01*
X62448138Y-69352796D01*
X62483777Y-69371846D01*
X62515017Y-69397483D01*
X62540654Y-69428723D01*
X62559704Y-69464362D01*
X62571435Y-69503032D01*
X62576000Y-69549388D01*
X62576000Y-70200612D01*
X62571435Y-70246968D01*
X62559704Y-70285638D01*
X62540654Y-70321277D01*
X62515017Y-70352517D01*
X62483777Y-70378154D01*
X62448138Y-70397204D01*
X62409468Y-70408935D01*
X62363112Y-70413500D01*
X61286888Y-70413500D01*
X61240532Y-70408935D01*
X61201862Y-70397204D01*
X61166223Y-70378154D01*
X61134983Y-70352517D01*
X61109346Y-70321277D01*
X61090296Y-70285638D01*
X61078565Y-70246968D01*
X61074000Y-70200612D01*
X61074000Y-69549388D01*
X61078565Y-69503032D01*
X61090296Y-69464362D01*
X61109346Y-69428723D01*
X61134983Y-69397483D01*
X61166223Y-69371846D01*
X61201862Y-69352796D01*
X61240532Y-69341065D01*
X61286888Y-69336500D01*
X62363112Y-69336500D01*
X62409468Y-69341065D01*
G37*
G36*
X78291000Y-70151000D02*
G01*
X73109000Y-70151000D01*
X73109000Y-68549000D01*
X78291000Y-68549000D01*
X78291000Y-70151000D01*
G37*
G36*
X55609468Y-68966065D02*
G01*
X55648138Y-68977796D01*
X55683777Y-68996846D01*
X55715017Y-69022483D01*
X55740654Y-69053723D01*
X55759704Y-69089362D01*
X55771435Y-69128032D01*
X55776000Y-69174388D01*
X55776000Y-69825612D01*
X55771435Y-69871968D01*
X55759704Y-69910638D01*
X55740654Y-69946277D01*
X55715017Y-69977517D01*
X55683777Y-70003154D01*
X55648138Y-70022204D01*
X55609468Y-70033935D01*
X55563112Y-70038500D01*
X54486888Y-70038500D01*
X54440532Y-70033935D01*
X54401862Y-70022204D01*
X54366223Y-70003154D01*
X54334983Y-69977517D01*
X54309346Y-69946277D01*
X54290296Y-69910638D01*
X54278565Y-69871968D01*
X54274000Y-69825612D01*
X54274000Y-69174388D01*
X54278565Y-69128032D01*
X54290296Y-69089362D01*
X54309346Y-69053723D01*
X54334983Y-69022483D01*
X54366223Y-68996846D01*
X54401862Y-68977796D01*
X54440532Y-68966065D01*
X54486888Y-68961500D01*
X55563112Y-68961500D01*
X55609468Y-68966065D01*
G37*
G36*
X62409468Y-67466065D02*
G01*
X62448138Y-67477796D01*
X62483777Y-67496846D01*
X62515017Y-67522483D01*
X62540654Y-67553723D01*
X62559704Y-67589362D01*
X62571435Y-67628032D01*
X62576000Y-67674388D01*
X62576000Y-68325612D01*
X62571435Y-68371968D01*
X62559704Y-68410638D01*
X62540654Y-68446277D01*
X62515017Y-68477517D01*
X62483777Y-68503154D01*
X62448138Y-68522204D01*
X62409468Y-68533935D01*
X62363112Y-68538500D01*
X61286888Y-68538500D01*
X61240532Y-68533935D01*
X61201862Y-68522204D01*
X61166223Y-68503154D01*
X61134983Y-68477517D01*
X61109346Y-68446277D01*
X61090296Y-68410638D01*
X61078565Y-68371968D01*
X61074000Y-68325612D01*
X61074000Y-67674388D01*
X61078565Y-67628032D01*
X61090296Y-67589362D01*
X61109346Y-67553723D01*
X61134983Y-67522483D01*
X61166223Y-67496846D01*
X61201862Y-67477796D01*
X61240532Y-67466065D01*
X61286888Y-67461500D01*
X62363112Y-67461500D01*
X62409468Y-67466065D01*
G37*
G36*
X59321295Y-65209631D02*
G01*
X59359965Y-65221362D01*
X59395604Y-65240412D01*
X59426844Y-65266049D01*
X59452481Y-65297289D01*
X59471531Y-65332928D01*
X59483262Y-65371598D01*
X59487827Y-65417954D01*
X59487827Y-66494178D01*
X59483262Y-66540534D01*
X59471531Y-66579204D01*
X59452481Y-66614843D01*
X59426844Y-66646083D01*
X59395604Y-66671720D01*
X59359965Y-66690770D01*
X59321295Y-66702501D01*
X59274939Y-66707066D01*
X58623715Y-66707066D01*
X58577359Y-66702501D01*
X58538689Y-66690770D01*
X58503050Y-66671720D01*
X58471810Y-66646083D01*
X58446173Y-66614843D01*
X58427123Y-66579204D01*
X58415392Y-66540534D01*
X58410827Y-66494178D01*
X58410827Y-65417954D01*
X58415392Y-65371598D01*
X58427123Y-65332928D01*
X58446173Y-65297289D01*
X58471810Y-65266049D01*
X58503050Y-65240412D01*
X58538689Y-65221362D01*
X58577359Y-65209631D01*
X58623715Y-65205066D01*
X59274939Y-65205066D01*
X59321295Y-65209631D01*
G37*
G36*
X57446295Y-65209631D02*
G01*
X57484965Y-65221362D01*
X57520604Y-65240412D01*
X57551844Y-65266049D01*
X57577481Y-65297289D01*
X57596531Y-65332928D01*
X57608262Y-65371598D01*
X57612827Y-65417954D01*
X57612827Y-66494178D01*
X57608262Y-66540534D01*
X57596531Y-66579204D01*
X57577481Y-66614843D01*
X57551844Y-66646083D01*
X57520604Y-66671720D01*
X57484965Y-66690770D01*
X57446295Y-66702501D01*
X57399939Y-66707066D01*
X56748715Y-66707066D01*
X56702359Y-66702501D01*
X56663689Y-66690770D01*
X56628050Y-66671720D01*
X56596810Y-66646083D01*
X56571173Y-66614843D01*
X56552123Y-66579204D01*
X56540392Y-66540534D01*
X56535827Y-66494178D01*
X56535827Y-65417954D01*
X56540392Y-65371598D01*
X56552123Y-65332928D01*
X56571173Y-65297289D01*
X56596810Y-65266049D01*
X56628050Y-65240412D01*
X56663689Y-65221362D01*
X56702359Y-65209631D01*
X56748715Y-65205066D01*
X57399939Y-65205066D01*
X57446295Y-65209631D01*
G37*
G36*
X64046968Y-64803565D02*
G01*
X64085638Y-64815296D01*
X64121277Y-64834346D01*
X64152517Y-64859983D01*
X64178154Y-64891223D01*
X64197204Y-64926862D01*
X64208935Y-64965532D01*
X64213500Y-65011888D01*
X64213500Y-66088112D01*
X64208935Y-66134468D01*
X64197204Y-66173138D01*
X64178154Y-66208777D01*
X64152517Y-66240017D01*
X64121277Y-66265654D01*
X64085638Y-66284704D01*
X64046968Y-66296435D01*
X64000612Y-66301000D01*
X63349388Y-66301000D01*
X63303032Y-66296435D01*
X63264362Y-66284704D01*
X63228723Y-66265654D01*
X63197483Y-66240017D01*
X63171846Y-66208777D01*
X63152796Y-66173138D01*
X63141065Y-66134468D01*
X63136500Y-66088112D01*
X63136500Y-65011888D01*
X63141065Y-64965532D01*
X63152796Y-64926862D01*
X63171846Y-64891223D01*
X63197483Y-64859983D01*
X63228723Y-64834346D01*
X63264362Y-64815296D01*
X63303032Y-64803565D01*
X63349388Y-64799000D01*
X64000612Y-64799000D01*
X64046968Y-64803565D01*
G37*
G36*
X62171968Y-64803565D02*
G01*
X62210638Y-64815296D01*
X62246277Y-64834346D01*
X62277517Y-64859983D01*
X62303154Y-64891223D01*
X62322204Y-64926862D01*
X62333935Y-64965532D01*
X62338500Y-65011888D01*
X62338500Y-66088112D01*
X62333935Y-66134468D01*
X62322204Y-66173138D01*
X62303154Y-66208777D01*
X62277517Y-66240017D01*
X62246277Y-66265654D01*
X62210638Y-66284704D01*
X62171968Y-66296435D01*
X62125612Y-66301000D01*
X61474388Y-66301000D01*
X61428032Y-66296435D01*
X61389362Y-66284704D01*
X61353723Y-66265654D01*
X61322483Y-66240017D01*
X61296846Y-66208777D01*
X61277796Y-66173138D01*
X61266065Y-66134468D01*
X61261500Y-66088112D01*
X61261500Y-65011888D01*
X61266065Y-64965532D01*
X61277796Y-64926862D01*
X61296846Y-64891223D01*
X61322483Y-64859983D01*
X61353723Y-64834346D01*
X61389362Y-64815296D01*
X61428032Y-64803565D01*
X61474388Y-64799000D01*
X62125612Y-64799000D01*
X62171968Y-64803565D01*
G37*
G36*
X35391000Y-62726000D02*
G01*
X30209000Y-62726000D01*
X30209000Y-61124000D01*
X35391000Y-61124000D01*
X35391000Y-62726000D01*
G37*
G36*
X78291000Y-61651000D02*
G01*
X73109000Y-61651000D01*
X73109000Y-60049000D01*
X78291000Y-60049000D01*
X78291000Y-61651000D01*
G37*
G36*
X41084468Y-56753565D02*
G01*
X41123138Y-56765296D01*
X41158777Y-56784346D01*
X41190017Y-56809983D01*
X41215654Y-56841223D01*
X41234704Y-56876862D01*
X41246435Y-56915532D01*
X41251000Y-56961888D01*
X41251000Y-57613112D01*
X41246435Y-57659468D01*
X41234704Y-57698138D01*
X41215654Y-57733777D01*
X41190017Y-57765017D01*
X41158777Y-57790654D01*
X41123138Y-57809704D01*
X41084468Y-57821435D01*
X41038112Y-57826000D01*
X39961888Y-57826000D01*
X39915532Y-57821435D01*
X39876862Y-57809704D01*
X39841223Y-57790654D01*
X39809983Y-57765017D01*
X39784346Y-57733777D01*
X39765296Y-57698138D01*
X39753565Y-57659468D01*
X39749000Y-57613112D01*
X39749000Y-56961888D01*
X39753565Y-56915532D01*
X39765296Y-56876862D01*
X39784346Y-56841223D01*
X39809983Y-56809983D01*
X39841223Y-56784346D01*
X39876862Y-56765296D01*
X39915532Y-56753565D01*
X39961888Y-56749000D01*
X41038112Y-56749000D01*
X41084468Y-56753565D01*
G37*
G36*
X41084468Y-54878565D02*
G01*
X41123138Y-54890296D01*
X41158777Y-54909346D01*
X41190017Y-54934983D01*
X41215654Y-54966223D01*
X41234704Y-55001862D01*
X41246435Y-55040532D01*
X41251000Y-55086888D01*
X41251000Y-55738112D01*
X41246435Y-55784468D01*
X41234704Y-55823138D01*
X41215654Y-55858777D01*
X41190017Y-55890017D01*
X41158777Y-55915654D01*
X41123138Y-55934704D01*
X41084468Y-55946435D01*
X41038112Y-55951000D01*
X39961888Y-55951000D01*
X39915532Y-55946435D01*
X39876862Y-55934704D01*
X39841223Y-55915654D01*
X39809983Y-55890017D01*
X39784346Y-55858777D01*
X39765296Y-55823138D01*
X39753565Y-55784468D01*
X39749000Y-55738112D01*
X39749000Y-55086888D01*
X39753565Y-55040532D01*
X39765296Y-55001862D01*
X39784346Y-54966223D01*
X39809983Y-54934983D01*
X39841223Y-54909346D01*
X39876862Y-54890296D01*
X39915532Y-54878565D01*
X39961888Y-54874000D01*
X41038112Y-54874000D01*
X41084468Y-54878565D01*
G37*
G36*
X70184468Y-53803565D02*
G01*
X70223138Y-53815296D01*
X70258777Y-53834346D01*
X70290017Y-53859983D01*
X70315654Y-53891223D01*
X70334704Y-53926862D01*
X70346435Y-53965532D01*
X70351000Y-54011888D01*
X70351000Y-54663112D01*
X70346435Y-54709468D01*
X70334704Y-54748138D01*
X70315654Y-54783777D01*
X70290017Y-54815017D01*
X70258777Y-54840654D01*
X70223138Y-54859704D01*
X70184468Y-54871435D01*
X70138112Y-54876000D01*
X69061888Y-54876000D01*
X69015532Y-54871435D01*
X68976862Y-54859704D01*
X68941223Y-54840654D01*
X68909983Y-54815017D01*
X68884346Y-54783777D01*
X68865296Y-54748138D01*
X68853565Y-54709468D01*
X68849000Y-54663112D01*
X68849000Y-54011888D01*
X68853565Y-53965532D01*
X68865296Y-53926862D01*
X68884346Y-53891223D01*
X68909983Y-53859983D01*
X68941223Y-53834346D01*
X68976862Y-53815296D01*
X69015532Y-53803565D01*
X69061888Y-53799000D01*
X70138112Y-53799000D01*
X70184468Y-53803565D01*
G37*
G36*
X35391000Y-54226000D02*
G01*
X30209000Y-54226000D01*
X30209000Y-52624000D01*
X35391000Y-52624000D01*
X35391000Y-54226000D01*
G37*
G36*
X72676000Y-53626000D02*
G01*
X71224000Y-53626000D01*
X71224000Y-52174000D01*
X72676000Y-52174000D01*
X72676000Y-53626000D01*
G37*
G36*
X44951000Y-53276000D02*
G01*
X43499000Y-53276000D01*
X43499000Y-51824000D01*
X44951000Y-51824000D01*
X44951000Y-53276000D01*
G37*
G36*
X70184468Y-51928565D02*
G01*
X70223138Y-51940296D01*
X70258777Y-51959346D01*
X70290017Y-51984983D01*
X70315654Y-52016223D01*
X70334704Y-52051862D01*
X70346435Y-52090532D01*
X70351000Y-52136888D01*
X70351000Y-52788112D01*
X70346435Y-52834468D01*
X70334704Y-52873138D01*
X70315654Y-52908777D01*
X70290017Y-52940017D01*
X70258777Y-52965654D01*
X70223138Y-52984704D01*
X70184468Y-52996435D01*
X70138112Y-53001000D01*
X69061888Y-53001000D01*
X69015532Y-52996435D01*
X68976862Y-52984704D01*
X68941223Y-52965654D01*
X68909983Y-52940017D01*
X68884346Y-52908777D01*
X68865296Y-52873138D01*
X68853565Y-52834468D01*
X68849000Y-52788112D01*
X68849000Y-52136888D01*
X68853565Y-52090532D01*
X68865296Y-52051862D01*
X68884346Y-52016223D01*
X68909983Y-51984983D01*
X68941223Y-51959346D01*
X68976862Y-51940296D01*
X69015532Y-51928565D01*
X69061888Y-51924000D01*
X70138112Y-51924000D01*
X70184468Y-51928565D01*
G37*
G36*
X40684468Y-51453565D02*
G01*
X40723138Y-51465296D01*
X40758777Y-51484346D01*
X40790017Y-51509983D01*
X40815654Y-51541223D01*
X40834704Y-51576862D01*
X40846435Y-51615532D01*
X40851000Y-51661888D01*
X40851000Y-52313112D01*
X40846435Y-52359468D01*
X40834704Y-52398138D01*
X40815654Y-52433777D01*
X40790017Y-52465017D01*
X40758777Y-52490654D01*
X40723138Y-52509704D01*
X40684468Y-52521435D01*
X40638112Y-52526000D01*
X39561888Y-52526000D01*
X39515532Y-52521435D01*
X39476862Y-52509704D01*
X39441223Y-52490654D01*
X39409983Y-52465017D01*
X39384346Y-52433777D01*
X39365296Y-52398138D01*
X39353565Y-52359468D01*
X39349000Y-52313112D01*
X39349000Y-51661888D01*
X39353565Y-51615532D01*
X39365296Y-51576862D01*
X39384346Y-51541223D01*
X39409983Y-51509983D01*
X39441223Y-51484346D01*
X39476862Y-51465296D01*
X39515532Y-51453565D01*
X39561888Y-51449000D01*
X40638112Y-51449000D01*
X40684468Y-51453565D01*
G37*
G36*
X71659468Y-50003565D02*
G01*
X71698138Y-50015296D01*
X71733777Y-50034346D01*
X71765017Y-50059983D01*
X71790654Y-50091223D01*
X71809704Y-50126862D01*
X71821435Y-50165532D01*
X71826000Y-50211888D01*
X71826000Y-51288112D01*
X71821435Y-51334468D01*
X71809704Y-51373138D01*
X71790654Y-51408777D01*
X71765017Y-51440017D01*
X71733777Y-51465654D01*
X71698138Y-51484704D01*
X71659468Y-51496435D01*
X71613112Y-51501000D01*
X70961888Y-51501000D01*
X70915532Y-51496435D01*
X70876862Y-51484704D01*
X70841223Y-51465654D01*
X70809983Y-51440017D01*
X70784346Y-51408777D01*
X70765296Y-51373138D01*
X70753565Y-51334468D01*
X70749000Y-51288112D01*
X70749000Y-50211888D01*
X70753565Y-50165532D01*
X70765296Y-50126862D01*
X70784346Y-50091223D01*
X70809983Y-50059983D01*
X70841223Y-50034346D01*
X70876862Y-50015296D01*
X70915532Y-50003565D01*
X70961888Y-49999000D01*
X71613112Y-49999000D01*
X71659468Y-50003565D01*
G37*
G36*
X69784468Y-50003565D02*
G01*
X69823138Y-50015296D01*
X69858777Y-50034346D01*
X69890017Y-50059983D01*
X69915654Y-50091223D01*
X69934704Y-50126862D01*
X69946435Y-50165532D01*
X69951000Y-50211888D01*
X69951000Y-51288112D01*
X69946435Y-51334468D01*
X69934704Y-51373138D01*
X69915654Y-51408777D01*
X69890017Y-51440017D01*
X69858777Y-51465654D01*
X69823138Y-51484704D01*
X69784468Y-51496435D01*
X69738112Y-51501000D01*
X69086888Y-51501000D01*
X69040532Y-51496435D01*
X69001862Y-51484704D01*
X68966223Y-51465654D01*
X68934983Y-51440017D01*
X68909346Y-51408777D01*
X68890296Y-51373138D01*
X68878565Y-51334468D01*
X68874000Y-51288112D01*
X68874000Y-50211888D01*
X68878565Y-50165532D01*
X68890296Y-50126862D01*
X68909346Y-50091223D01*
X68934983Y-50059983D01*
X68966223Y-50034346D01*
X69001862Y-50015296D01*
X69040532Y-50003565D01*
X69086888Y-49999000D01*
X69738112Y-49999000D01*
X69784468Y-50003565D01*
G37*
G36*
X46396968Y-49378565D02*
G01*
X46435638Y-49390296D01*
X46471277Y-49409346D01*
X46502517Y-49434983D01*
X46528154Y-49466223D01*
X46547204Y-49501862D01*
X46558935Y-49540532D01*
X46563500Y-49586888D01*
X46563500Y-50663112D01*
X46558935Y-50709468D01*
X46547204Y-50748138D01*
X46528154Y-50783777D01*
X46502517Y-50815017D01*
X46471277Y-50840654D01*
X46435638Y-50859704D01*
X46396968Y-50871435D01*
X46350612Y-50876000D01*
X45699388Y-50876000D01*
X45653032Y-50871435D01*
X45614362Y-50859704D01*
X45578723Y-50840654D01*
X45547483Y-50815017D01*
X45521846Y-50783777D01*
X45502796Y-50748138D01*
X45491065Y-50709468D01*
X45486500Y-50663112D01*
X45486500Y-49586888D01*
X45491065Y-49540532D01*
X45502796Y-49501862D01*
X45521846Y-49466223D01*
X45547483Y-49434983D01*
X45578723Y-49409346D01*
X45614362Y-49390296D01*
X45653032Y-49378565D01*
X45699388Y-49374000D01*
X46350612Y-49374000D01*
X46396968Y-49378565D01*
G37*
G36*
X44521968Y-49378565D02*
G01*
X44560638Y-49390296D01*
X44596277Y-49409346D01*
X44627517Y-49434983D01*
X44653154Y-49466223D01*
X44672204Y-49501862D01*
X44683935Y-49540532D01*
X44688500Y-49586888D01*
X44688500Y-50663112D01*
X44683935Y-50709468D01*
X44672204Y-50748138D01*
X44653154Y-50783777D01*
X44627517Y-50815017D01*
X44596277Y-50840654D01*
X44560638Y-50859704D01*
X44521968Y-50871435D01*
X44475612Y-50876000D01*
X43824388Y-50876000D01*
X43778032Y-50871435D01*
X43739362Y-50859704D01*
X43703723Y-50840654D01*
X43672483Y-50815017D01*
X43646846Y-50783777D01*
X43627796Y-50748138D01*
X43616065Y-50709468D01*
X43611500Y-50663112D01*
X43611500Y-49586888D01*
X43616065Y-49540532D01*
X43627796Y-49501862D01*
X43646846Y-49466223D01*
X43672483Y-49434983D01*
X43703723Y-49409346D01*
X43739362Y-49390296D01*
X43778032Y-49378565D01*
X43824388Y-49374000D01*
X44475612Y-49374000D01*
X44521968Y-49378565D01*
G37*
G36*
X48334468Y-49591065D02*
G01*
X48373138Y-49602796D01*
X48408777Y-49621846D01*
X48440017Y-49647483D01*
X48465654Y-49678723D01*
X48484704Y-49714362D01*
X48496435Y-49753032D01*
X48501000Y-49799388D01*
X48501000Y-50450612D01*
X48496435Y-50496968D01*
X48484704Y-50535638D01*
X48465654Y-50571277D01*
X48440017Y-50602517D01*
X48408777Y-50628154D01*
X48373138Y-50647204D01*
X48334468Y-50658935D01*
X48288112Y-50663500D01*
X47211888Y-50663500D01*
X47165532Y-50658935D01*
X47126862Y-50647204D01*
X47091223Y-50628154D01*
X47059983Y-50602517D01*
X47034346Y-50571277D01*
X47015296Y-50535638D01*
X47003565Y-50496968D01*
X46999000Y-50450612D01*
X46999000Y-49799388D01*
X47003565Y-49753032D01*
X47015296Y-49714362D01*
X47034346Y-49678723D01*
X47059983Y-49647483D01*
X47091223Y-49621846D01*
X47126862Y-49602796D01*
X47165532Y-49591065D01*
X47211888Y-49586500D01*
X48288112Y-49586500D01*
X48334468Y-49591065D01*
G37*
G36*
X40684468Y-49578565D02*
G01*
X40723138Y-49590296D01*
X40758777Y-49609346D01*
X40790017Y-49634983D01*
X40815654Y-49666223D01*
X40834704Y-49701862D01*
X40846435Y-49740532D01*
X40851000Y-49786888D01*
X40851000Y-50438112D01*
X40846435Y-50484468D01*
X40834704Y-50523138D01*
X40815654Y-50558777D01*
X40790017Y-50590017D01*
X40758777Y-50615654D01*
X40723138Y-50634704D01*
X40684468Y-50646435D01*
X40638112Y-50651000D01*
X39561888Y-50651000D01*
X39515532Y-50646435D01*
X39476862Y-50634704D01*
X39441223Y-50615654D01*
X39409983Y-50590017D01*
X39384346Y-50558777D01*
X39365296Y-50523138D01*
X39353565Y-50484468D01*
X39349000Y-50438112D01*
X39349000Y-49786888D01*
X39353565Y-49740532D01*
X39365296Y-49701862D01*
X39384346Y-49666223D01*
X39409983Y-49634983D01*
X39441223Y-49609346D01*
X39476862Y-49590296D01*
X39515532Y-49578565D01*
X39561888Y-49574000D01*
X40638112Y-49574000D01*
X40684468Y-49578565D01*
G37*
G36*
X78316000Y-50301000D02*
G01*
X73134000Y-50301000D01*
X73134000Y-48699000D01*
X78316000Y-48699000D01*
X78316000Y-50301000D01*
G37*
G36*
X69671968Y-48003565D02*
G01*
X69710638Y-48015296D01*
X69746277Y-48034346D01*
X69777517Y-48059983D01*
X69803154Y-48091223D01*
X69822204Y-48126862D01*
X69833935Y-48165532D01*
X69838500Y-48211888D01*
X69838500Y-49288112D01*
X69833935Y-49334468D01*
X69822204Y-49373138D01*
X69803154Y-49408777D01*
X69777517Y-49440017D01*
X69746277Y-49465654D01*
X69710638Y-49484704D01*
X69671968Y-49496435D01*
X69625612Y-49501000D01*
X68974388Y-49501000D01*
X68928032Y-49496435D01*
X68889362Y-49484704D01*
X68853723Y-49465654D01*
X68822483Y-49440017D01*
X68796846Y-49408777D01*
X68777796Y-49373138D01*
X68766065Y-49334468D01*
X68761500Y-49288112D01*
X68761500Y-48211888D01*
X68766065Y-48165532D01*
X68777796Y-48126862D01*
X68796846Y-48091223D01*
X68822483Y-48059983D01*
X68853723Y-48034346D01*
X68889362Y-48015296D01*
X68928032Y-48003565D01*
X68974388Y-47999000D01*
X69625612Y-47999000D01*
X69671968Y-48003565D01*
G37*
G36*
X71546968Y-48003565D02*
G01*
X71585638Y-48015296D01*
X71621277Y-48034346D01*
X71652517Y-48059983D01*
X71678154Y-48091223D01*
X71697204Y-48126862D01*
X71708935Y-48165532D01*
X71713500Y-48211888D01*
X71713500Y-49288112D01*
X71708935Y-49334468D01*
X71697204Y-49373138D01*
X71678154Y-49408777D01*
X71652517Y-49440017D01*
X71621277Y-49465654D01*
X71585638Y-49484704D01*
X71546968Y-49496435D01*
X71500612Y-49501000D01*
X70849388Y-49501000D01*
X70803032Y-49496435D01*
X70764362Y-49484704D01*
X70728723Y-49465654D01*
X70697483Y-49440017D01*
X70671846Y-49408777D01*
X70652796Y-49373138D01*
X70641065Y-49334468D01*
X70636500Y-49288112D01*
X70636500Y-48211888D01*
X70641065Y-48165532D01*
X70652796Y-48126862D01*
X70671846Y-48091223D01*
X70697483Y-48059983D01*
X70728723Y-48034346D01*
X70764362Y-48015296D01*
X70803032Y-48003565D01*
X70849388Y-47999000D01*
X71500612Y-47999000D01*
X71546968Y-48003565D01*
G37*
G36*
X48334468Y-47716065D02*
G01*
X48373138Y-47727796D01*
X48408777Y-47746846D01*
X48440017Y-47772483D01*
X48465654Y-47803723D01*
X48484704Y-47839362D01*
X48496435Y-47878032D01*
X48501000Y-47924388D01*
X48501000Y-48575612D01*
X48496435Y-48621968D01*
X48484704Y-48660638D01*
X48465654Y-48696277D01*
X48440017Y-48727517D01*
X48408777Y-48753154D01*
X48373138Y-48772204D01*
X48334468Y-48783935D01*
X48288112Y-48788500D01*
X47211888Y-48788500D01*
X47165532Y-48783935D01*
X47126862Y-48772204D01*
X47091223Y-48753154D01*
X47059983Y-48727517D01*
X47034346Y-48696277D01*
X47015296Y-48660638D01*
X47003565Y-48621968D01*
X46999000Y-48575612D01*
X46999000Y-47924388D01*
X47003565Y-47878032D01*
X47015296Y-47839362D01*
X47034346Y-47803723D01*
X47059983Y-47772483D01*
X47091223Y-47746846D01*
X47126862Y-47727796D01*
X47165532Y-47716065D01*
X47211888Y-47711500D01*
X48288112Y-47711500D01*
X48334468Y-47716065D01*
G37*
G36*
X35341000Y-45126000D02*
G01*
X30159000Y-45126000D01*
X30159000Y-43524000D01*
X35341000Y-43524000D01*
X35341000Y-45126000D01*
G37*
G36*
X78316000Y-41801000D02*
G01*
X73134000Y-41801000D01*
X73134000Y-40199000D01*
X78316000Y-40199000D01*
X78316000Y-41801000D01*
G37*
G36*
X68159468Y-39763565D02*
G01*
X68198138Y-39775296D01*
X68233777Y-39794346D01*
X68265017Y-39819983D01*
X68290654Y-39851223D01*
X68309704Y-39886862D01*
X68321435Y-39925532D01*
X68326000Y-39971888D01*
X68326000Y-41048112D01*
X68321435Y-41094468D01*
X68309704Y-41133138D01*
X68290654Y-41168777D01*
X68265017Y-41200017D01*
X68233777Y-41225654D01*
X68198138Y-41244704D01*
X68159468Y-41256435D01*
X68113112Y-41261000D01*
X67461888Y-41261000D01*
X67415532Y-41256435D01*
X67376862Y-41244704D01*
X67341223Y-41225654D01*
X67309983Y-41200017D01*
X67284346Y-41168777D01*
X67265296Y-41133138D01*
X67253565Y-41094468D01*
X67249000Y-41048112D01*
X67249000Y-39971888D01*
X67253565Y-39925532D01*
X67265296Y-39886862D01*
X67284346Y-39851223D01*
X67309983Y-39819983D01*
X67341223Y-39794346D01*
X67376862Y-39775296D01*
X67415532Y-39763565D01*
X67461888Y-39759000D01*
X68113112Y-39759000D01*
X68159468Y-39763565D01*
G37*
G36*
X70034468Y-39763565D02*
G01*
X70073138Y-39775296D01*
X70108777Y-39794346D01*
X70140017Y-39819983D01*
X70165654Y-39851223D01*
X70184704Y-39886862D01*
X70196435Y-39925532D01*
X70201000Y-39971888D01*
X70201000Y-41048112D01*
X70196435Y-41094468D01*
X70184704Y-41133138D01*
X70165654Y-41168777D01*
X70140017Y-41200017D01*
X70108777Y-41225654D01*
X70073138Y-41244704D01*
X70034468Y-41256435D01*
X69988112Y-41261000D01*
X69336888Y-41261000D01*
X69290532Y-41256435D01*
X69251862Y-41244704D01*
X69216223Y-41225654D01*
X69184983Y-41200017D01*
X69159346Y-41168777D01*
X69140296Y-41133138D01*
X69128565Y-41094468D01*
X69124000Y-41048112D01*
X69124000Y-39971888D01*
X69128565Y-39925532D01*
X69140296Y-39886862D01*
X69159346Y-39851223D01*
X69184983Y-39819983D01*
X69216223Y-39794346D01*
X69251862Y-39775296D01*
X69290532Y-39763565D01*
X69336888Y-39759000D01*
X69988112Y-39759000D01*
X70034468Y-39763565D01*
G37*
G36*
X35341000Y-36626000D02*
G01*
X30159000Y-36626000D01*
X30159000Y-35024000D01*
X35341000Y-35024000D01*
X35341000Y-36626000D01*
G37*
G36*
X59913674Y-32453465D02*
G01*
X59951367Y-32464899D01*
X59986103Y-32483466D01*
X60016548Y-32508452D01*
X60041534Y-32538897D01*
X60060101Y-32573633D01*
X60071535Y-32611326D01*
X60076000Y-32656661D01*
X60076000Y-33493339D01*
X60071535Y-33538674D01*
X60060101Y-33576367D01*
X60041534Y-33611103D01*
X60016548Y-33641548D01*
X59986103Y-33666534D01*
X59951367Y-33685101D01*
X59913674Y-33696535D01*
X59868339Y-33701000D01*
X58781661Y-33701000D01*
X58736326Y-33696535D01*
X58698633Y-33685101D01*
X58663897Y-33666534D01*
X58633452Y-33641548D01*
X58608466Y-33611103D01*
X58589899Y-33576367D01*
X58578465Y-33538674D01*
X58574000Y-33493339D01*
X58574000Y-32656661D01*
X58578465Y-32611326D01*
X58589899Y-32573633D01*
X58608466Y-32538897D01*
X58633452Y-32508452D01*
X58663897Y-32483466D01*
X58698633Y-32464899D01*
X58736326Y-32453465D01*
X58781661Y-32449000D01*
X59868339Y-32449000D01*
X59913674Y-32453465D01*
G37*
G36*
X61859468Y-32391065D02*
G01*
X61898138Y-32402796D01*
X61933777Y-32421846D01*
X61965017Y-32447483D01*
X61990654Y-32478723D01*
X62009704Y-32514362D01*
X62021435Y-32553032D01*
X62026000Y-32599388D01*
X62026000Y-33250612D01*
X62021435Y-33296968D01*
X62009704Y-33335638D01*
X61990654Y-33371277D01*
X61965017Y-33402517D01*
X61933777Y-33428154D01*
X61898138Y-33447204D01*
X61859468Y-33458935D01*
X61813112Y-33463500D01*
X60736888Y-33463500D01*
X60690532Y-33458935D01*
X60651862Y-33447204D01*
X60616223Y-33428154D01*
X60584983Y-33402517D01*
X60559346Y-33371277D01*
X60540296Y-33335638D01*
X60528565Y-33296968D01*
X60524000Y-33250612D01*
X60524000Y-32599388D01*
X60528565Y-32553032D01*
X60540296Y-32514362D01*
X60559346Y-32478723D01*
X60584983Y-32447483D01*
X60616223Y-32421846D01*
X60651862Y-32402796D01*
X60690532Y-32391065D01*
X60736888Y-32386500D01*
X61813112Y-32386500D01*
X61859468Y-32391065D01*
G37*
G36*
X63476000Y-33101000D02*
G01*
X62874000Y-33101000D01*
X62874000Y-32499000D01*
X63476000Y-32499000D01*
X63476000Y-33101000D01*
G37*
G36*
X71734468Y-31641065D02*
G01*
X71773138Y-31652796D01*
X71808777Y-31671846D01*
X71840017Y-31697483D01*
X71865654Y-31728723D01*
X71884704Y-31764362D01*
X71896435Y-31803032D01*
X71901000Y-31849388D01*
X71901000Y-32500612D01*
X71896435Y-32546968D01*
X71884704Y-32585638D01*
X71865654Y-32621277D01*
X71840017Y-32652517D01*
X71808777Y-32678154D01*
X71773138Y-32697204D01*
X71734468Y-32708935D01*
X71688112Y-32713500D01*
X70611888Y-32713500D01*
X70565532Y-32708935D01*
X70526862Y-32697204D01*
X70491223Y-32678154D01*
X70459983Y-32652517D01*
X70434346Y-32621277D01*
X70415296Y-32585638D01*
X70403565Y-32546968D01*
X70399000Y-32500612D01*
X70399000Y-31849388D01*
X70403565Y-31803032D01*
X70415296Y-31764362D01*
X70434346Y-31728723D01*
X70459983Y-31697483D01*
X70491223Y-31671846D01*
X70526862Y-31652796D01*
X70565532Y-31641065D01*
X70611888Y-31636500D01*
X71688112Y-31636500D01*
X71734468Y-31641065D01*
G37*
G36*
X59913674Y-30403465D02*
G01*
X59951367Y-30414899D01*
X59986103Y-30433466D01*
X60016548Y-30458452D01*
X60041534Y-30488897D01*
X60060101Y-30523633D01*
X60071535Y-30561326D01*
X60076000Y-30606661D01*
X60076000Y-31443339D01*
X60071535Y-31488674D01*
X60060101Y-31526367D01*
X60041534Y-31561103D01*
X60016548Y-31591548D01*
X59986103Y-31616534D01*
X59951367Y-31635101D01*
X59913674Y-31646535D01*
X59868339Y-31651000D01*
X58781661Y-31651000D01*
X58736326Y-31646535D01*
X58698633Y-31635101D01*
X58663897Y-31616534D01*
X58633452Y-31591548D01*
X58608466Y-31561103D01*
X58589899Y-31526367D01*
X58578465Y-31488674D01*
X58574000Y-31443339D01*
X58574000Y-30606661D01*
X58578465Y-30561326D01*
X58589899Y-30523633D01*
X58608466Y-30488897D01*
X58633452Y-30458452D01*
X58663897Y-30433466D01*
X58698633Y-30414899D01*
X58736326Y-30403465D01*
X58781661Y-30399000D01*
X59868339Y-30399000D01*
X59913674Y-30403465D01*
G37*
G36*
X44993004Y-31644122D02*
G01*
X42291004Y-31644122D01*
X42291004Y-28942122D01*
X44993004Y-28942122D01*
X44993004Y-31644122D01*
G37*
G36*
X61859468Y-30516065D02*
G01*
X61898138Y-30527796D01*
X61933777Y-30546846D01*
X61965017Y-30572483D01*
X61990654Y-30603723D01*
X62009704Y-30639362D01*
X62021435Y-30678032D01*
X62026000Y-30724388D01*
X62026000Y-31375612D01*
X62021435Y-31421968D01*
X62009704Y-31460638D01*
X61990654Y-31496277D01*
X61965017Y-31527517D01*
X61933777Y-31553154D01*
X61898138Y-31572204D01*
X61859468Y-31583935D01*
X61813112Y-31588500D01*
X60736888Y-31588500D01*
X60690532Y-31583935D01*
X60651862Y-31572204D01*
X60616223Y-31553154D01*
X60584983Y-31527517D01*
X60559346Y-31496277D01*
X60540296Y-31460638D01*
X60528565Y-31421968D01*
X60524000Y-31375612D01*
X60524000Y-30724388D01*
X60528565Y-30678032D01*
X60540296Y-30639362D01*
X60559346Y-30603723D01*
X60584983Y-30572483D01*
X60616223Y-30546846D01*
X60651862Y-30527796D01*
X60690532Y-30516065D01*
X60736888Y-30511500D01*
X61813112Y-30511500D01*
X61859468Y-30516065D01*
G37*
G36*
X61377916Y-28497334D02*
G01*
X61486492Y-28530271D01*
X61486495Y-28530272D01*
X61522601Y-28549571D01*
X61586557Y-28583756D01*
X61674264Y-28655736D01*
X61737383Y-28732646D01*
X61754702Y-28749965D01*
X61775077Y-28763579D01*
X61797716Y-28772957D01*
X61821749Y-28777737D01*
X61846253Y-28777737D01*
X61870286Y-28772957D01*
X61892925Y-28763579D01*
X61913299Y-28749966D01*
X61930626Y-28732639D01*
X61944240Y-28712264D01*
X61953618Y-28689625D01*
X61958398Y-28665592D01*
X61959000Y-28653340D01*
X61959000Y-28489000D01*
X63111000Y-28489000D01*
X63111000Y-30174001D01*
X63113402Y-30198387D01*
X63120515Y-30221836D01*
X63132066Y-30243447D01*
X63147611Y-30262389D01*
X63166553Y-30277934D01*
X63188164Y-30289485D01*
X63211613Y-30296598D01*
X63235999Y-30299000D01*
X63476000Y-30299000D01*
X63476000Y-30901000D01*
X62874000Y-30901000D01*
X62874000Y-30215999D01*
X62871598Y-30191613D01*
X62864485Y-30168164D01*
X62852934Y-30146553D01*
X62837389Y-30127611D01*
X62818447Y-30112066D01*
X62796836Y-30100515D01*
X62773387Y-30093402D01*
X62749001Y-30091000D01*
X61959000Y-30091000D01*
X61959000Y-29926660D01*
X61956598Y-29902274D01*
X61949485Y-29878825D01*
X61937934Y-29857214D01*
X61922389Y-29838272D01*
X61903447Y-29822727D01*
X61881836Y-29811176D01*
X61858387Y-29804063D01*
X61834001Y-29801661D01*
X61809615Y-29804063D01*
X61786166Y-29811176D01*
X61764555Y-29822727D01*
X61737381Y-29847356D01*
X61674264Y-29924264D01*
X61586556Y-29996244D01*
X61522600Y-30030429D01*
X61486494Y-30049728D01*
X61486491Y-30049729D01*
X61377915Y-30082666D01*
X61265000Y-30093787D01*
X61152084Y-30082666D01*
X61043508Y-30049729D01*
X61043505Y-30049728D01*
X61007399Y-30030429D01*
X60943443Y-29996244D01*
X60855736Y-29924264D01*
X60783756Y-29836556D01*
X60740239Y-29755140D01*
X60726625Y-29734766D01*
X60709298Y-29717439D01*
X60688924Y-29703825D01*
X60666285Y-29694448D01*
X60642251Y-29689668D01*
X60617747Y-29689668D01*
X60593714Y-29694449D01*
X60571075Y-29703826D01*
X60550701Y-29717440D01*
X60533374Y-29734767D01*
X60519762Y-29755140D01*
X60476244Y-29836557D01*
X60404264Y-29924264D01*
X60316556Y-29996244D01*
X60252600Y-30030429D01*
X60216494Y-30049728D01*
X60216491Y-30049729D01*
X60107915Y-30082666D01*
X59995000Y-30093787D01*
X59882084Y-30082666D01*
X59773508Y-30049729D01*
X59773505Y-30049728D01*
X59737399Y-30030429D01*
X59673443Y-29996244D01*
X59585736Y-29924264D01*
X59513756Y-29836556D01*
X59470239Y-29755140D01*
X59460272Y-29736494D01*
X59454492Y-29717440D01*
X59427334Y-29627915D01*
X59419000Y-29543297D01*
X59419000Y-29036702D01*
X59427334Y-28952084D01*
X59460271Y-28843508D01*
X59460272Y-28843505D01*
X59513756Y-28743445D01*
X59513757Y-28743443D01*
X59585737Y-28655736D01*
X59673444Y-28583756D01*
X59737400Y-28549571D01*
X59773506Y-28530272D01*
X59773509Y-28530271D01*
X59882085Y-28497334D01*
X59995000Y-28486213D01*
X60107916Y-28497334D01*
X60216492Y-28530271D01*
X60216495Y-28530272D01*
X60252601Y-28549571D01*
X60316557Y-28583756D01*
X60404264Y-28655736D01*
X60476244Y-28743443D01*
X60492019Y-28772957D01*
X60519761Y-28824859D01*
X60533375Y-28845234D01*
X60550702Y-28862561D01*
X60571076Y-28876174D01*
X60593715Y-28885552D01*
X60617748Y-28890332D01*
X60642252Y-28890332D01*
X60666285Y-28885552D01*
X60688924Y-28876174D01*
X60709299Y-28862560D01*
X60726626Y-28845233D01*
X60740239Y-28824859D01*
X60783756Y-28743445D01*
X60783757Y-28743443D01*
X60855737Y-28655736D01*
X60943444Y-28583756D01*
X61007400Y-28549571D01*
X61043506Y-28530272D01*
X61043509Y-28530271D01*
X61152085Y-28497334D01*
X61265000Y-28486213D01*
X61377916Y-28497334D01*
G37*
G36*
X71734468Y-29766065D02*
G01*
X71773138Y-29777796D01*
X71808777Y-29796846D01*
X71840017Y-29822483D01*
X71865654Y-29853723D01*
X71884704Y-29889362D01*
X71896435Y-29928032D01*
X71901000Y-29974388D01*
X71901000Y-30625612D01*
X71896435Y-30671968D01*
X71884704Y-30710638D01*
X71865654Y-30746277D01*
X71840017Y-30777517D01*
X71808777Y-30803154D01*
X71773138Y-30822204D01*
X71734468Y-30833935D01*
X71688112Y-30838500D01*
X70611888Y-30838500D01*
X70565532Y-30833935D01*
X70526862Y-30822204D01*
X70491223Y-30803154D01*
X70459983Y-30777517D01*
X70434346Y-30746277D01*
X70415296Y-30710638D01*
X70403565Y-30671968D01*
X70399000Y-30625612D01*
X70399000Y-29974388D01*
X70403565Y-29928032D01*
X70415296Y-29889362D01*
X70434346Y-29853723D01*
X70459983Y-29822483D01*
X70491223Y-29796846D01*
X70526862Y-29777796D01*
X70565532Y-29766065D01*
X70611888Y-29761500D01*
X71688112Y-29761500D01*
X71734468Y-29766065D01*
G37*
G36*
X66408512Y-27228927D02*
G01*
X66557812Y-27258624D01*
X66721784Y-27326544D01*
X66869354Y-27425147D01*
X66994853Y-27550646D01*
X67093456Y-27698216D01*
X67161376Y-27862188D01*
X67196000Y-28036259D01*
X67196000Y-28213741D01*
X67161376Y-28387812D01*
X67093456Y-28551784D01*
X66994853Y-28699354D01*
X66869354Y-28824853D01*
X66721784Y-28923456D01*
X66557812Y-28991376D01*
X66408512Y-29021073D01*
X66383742Y-29026000D01*
X66206258Y-29026000D01*
X66181488Y-29021073D01*
X66032188Y-28991376D01*
X65868216Y-28923456D01*
X65720646Y-28824853D01*
X65595147Y-28699354D01*
X65496544Y-28551784D01*
X65428624Y-28387812D01*
X65394000Y-28213741D01*
X65394000Y-28036259D01*
X65428624Y-27862188D01*
X65496544Y-27698216D01*
X65595147Y-27550646D01*
X65720646Y-27425147D01*
X65868216Y-27326544D01*
X66032188Y-27258624D01*
X66181488Y-27228927D01*
X66206258Y-27224000D01*
X66383742Y-27224000D01*
X66408512Y-27228927D01*
G37*
G36*
X68948512Y-27228927D02*
G01*
X69097812Y-27258624D01*
X69261784Y-27326544D01*
X69409354Y-27425147D01*
X69534853Y-27550646D01*
X69633456Y-27698216D01*
X69701376Y-27862188D01*
X69736000Y-28036259D01*
X69736000Y-28213741D01*
X69701376Y-28387812D01*
X69633456Y-28551784D01*
X69534853Y-28699354D01*
X69409354Y-28824853D01*
X69261784Y-28923456D01*
X69097812Y-28991376D01*
X68948512Y-29021073D01*
X68923742Y-29026000D01*
X68746258Y-29026000D01*
X68721488Y-29021073D01*
X68572188Y-28991376D01*
X68408216Y-28923456D01*
X68260646Y-28824853D01*
X68135147Y-28699354D01*
X68036544Y-28551784D01*
X67968624Y-28387812D01*
X67934000Y-28213741D01*
X67934000Y-28036259D01*
X67968624Y-27862188D01*
X68036544Y-27698216D01*
X68135147Y-27550646D01*
X68260646Y-27425147D01*
X68408216Y-27326544D01*
X68572188Y-27258624D01*
X68721488Y-27228927D01*
X68746258Y-27224000D01*
X68923742Y-27224000D01*
X68948512Y-27228927D01*
G37*
G36*
X72276000Y-29026000D02*
G01*
X70474000Y-29026000D01*
X70474000Y-27224000D01*
X72276000Y-27224000D01*
X72276000Y-29026000D01*
G37*
G36*
X39336076Y-25994040D02*
G01*
X39566577Y-26089516D01*
X39581943Y-26095881D01*
X39693332Y-26170309D01*
X39803215Y-26243731D01*
X39991395Y-26431911D01*
X40139246Y-26653185D01*
X40241086Y-26899050D01*
X40293004Y-27160059D01*
X40293004Y-27426185D01*
X40241086Y-27687194D01*
X40168602Y-27862188D01*
X40139245Y-27933061D01*
X39991394Y-28154334D01*
X39803216Y-28342512D01*
X39581943Y-28490363D01*
X39581942Y-28490364D01*
X39581941Y-28490364D01*
X39336076Y-28592204D01*
X39075067Y-28644122D01*
X38808941Y-28644122D01*
X38547932Y-28592204D01*
X38302067Y-28490364D01*
X38302066Y-28490364D01*
X38302065Y-28490363D01*
X38080792Y-28342512D01*
X37892614Y-28154334D01*
X37744763Y-27933061D01*
X37715407Y-27862188D01*
X37642922Y-27687194D01*
X37591004Y-27426185D01*
X37591004Y-27160059D01*
X37642922Y-26899050D01*
X37744762Y-26653185D01*
X37892613Y-26431911D01*
X38080793Y-26243731D01*
X38190676Y-26170309D01*
X38302065Y-26095881D01*
X38317432Y-26089516D01*
X38547932Y-25994040D01*
X38808941Y-25942122D01*
X39075067Y-25942122D01*
X39336076Y-25994040D01*
G37*
G36*
X34531202Y-22128782D02*
G01*
X34806606Y-22183563D01*
X35325455Y-22398477D01*
X35792406Y-22710484D01*
X36189516Y-23107594D01*
X36501523Y-23574545D01*
X36501524Y-23574547D01*
X36716437Y-24093395D01*
X36825999Y-24644200D01*
X36825999Y-25205800D01*
X36716437Y-25756605D01*
X36514664Y-26243731D01*
X36501523Y-26275455D01*
X36189516Y-26742406D01*
X35792406Y-27139516D01*
X35325455Y-27451523D01*
X34806606Y-27666437D01*
X34255800Y-27775999D01*
X33694200Y-27775999D01*
X33143394Y-27666437D01*
X32624545Y-27451523D01*
X32157594Y-27139516D01*
X31760484Y-26742406D01*
X31448477Y-26275455D01*
X31435337Y-26243731D01*
X31233563Y-25756605D01*
X31124001Y-25205800D01*
X31124001Y-24644200D01*
X31233563Y-24093395D01*
X31448476Y-23574547D01*
X31448477Y-23574545D01*
X31760484Y-23107594D01*
X32157594Y-22710484D01*
X32624545Y-22398477D01*
X33143394Y-22183563D01*
X33694200Y-22074001D01*
X34255800Y-22074001D01*
X34531202Y-22128782D01*
G37*
G36*
X75506202Y-21078782D02*
G01*
X75781606Y-21133563D01*
X76300455Y-21348477D01*
X76767406Y-21660484D01*
X77164516Y-22057594D01*
X77392286Y-22398476D01*
X77476524Y-22524547D01*
X77691437Y-23043395D01*
X77800999Y-23594200D01*
X77800999Y-24155800D01*
X77691437Y-24706605D01*
X77484665Y-25205800D01*
X77476523Y-25225455D01*
X77164516Y-25692406D01*
X76767406Y-26089516D01*
X76300455Y-26401523D01*
X75781606Y-26616437D01*
X75506202Y-26671218D01*
X75230800Y-26725999D01*
X74669200Y-26725999D01*
X74393798Y-26671218D01*
X74118394Y-26616437D01*
X73599545Y-26401523D01*
X73132594Y-26089516D01*
X72735484Y-25692406D01*
X72423477Y-25225455D01*
X72415336Y-25205800D01*
X72208563Y-24706605D01*
X72099001Y-24155800D01*
X72099001Y-23594200D01*
X72208563Y-23043395D01*
X72423476Y-22524547D01*
X72507714Y-22398476D01*
X72735484Y-22057594D01*
X73132594Y-21660484D01*
X73599545Y-21348477D01*
X74118394Y-21133563D01*
X74393798Y-21078782D01*
X74669200Y-21024001D01*
X75230800Y-21024001D01*
X75506202Y-21078782D01*
G37*
G36*
X44036076Y-22994040D02*
G01*
X44281943Y-23095881D01*
X44503216Y-23243732D01*
X44691394Y-23431910D01*
X44799834Y-23594200D01*
X44839246Y-23653185D01*
X44941086Y-23899050D01*
X44992157Y-24155799D01*
X44993004Y-24160060D01*
X44993004Y-24426184D01*
X44941086Y-24687194D01*
X44839245Y-24933061D01*
X44691394Y-25154334D01*
X44503216Y-25342512D01*
X44281943Y-25490363D01*
X44281942Y-25490364D01*
X44281941Y-25490364D01*
X44036076Y-25592204D01*
X43775067Y-25644122D01*
X43508941Y-25644122D01*
X43247932Y-25592204D01*
X43002067Y-25490364D01*
X43002066Y-25490364D01*
X43002065Y-25490363D01*
X42780792Y-25342512D01*
X42592614Y-25154334D01*
X42444763Y-24933061D01*
X42342922Y-24687194D01*
X42291004Y-24426184D01*
X42291004Y-24160060D01*
X42291852Y-24155799D01*
X42342922Y-23899050D01*
X42444762Y-23653185D01*
X42484175Y-23594200D01*
X42592614Y-23431910D01*
X42780792Y-23243732D01*
X43002065Y-23095881D01*
X43247932Y-22994040D01*
X43508941Y-22942122D01*
X43775067Y-22942122D01*
X44036076Y-22994040D01*
G37*
M02*
