G04 #@! TF.GenerationSoftware,KiCad,Pcbnew,(5.1.5)-3*
G04 #@! TF.CreationDate,2020-05-10T15:52:49-07:00*
G04 #@! TF.ProjectId,april_proj,61707269-6c5f-4707-926f-6a2e6b696361,rev?*
G04 #@! TF.SameCoordinates,Original*
G04 #@! TF.FileFunction,Legend,Bot*
G04 #@! TF.FilePolarity,Positive*
%FSLAX46Y46*%
G04 Gerber Fmt 4.6, Leading zero omitted, Abs format (unit mm)*
G04 Created by KiCad (PCBNEW (5.1.5)-3) date 2020-05-10 15:52:49*
%MOMM*%
%LPD*%
G04 APERTURE LIST*
%ADD10C,0.120000*%
%ADD11C,0.150000*%
G04 APERTURE END LIST*
D10*
X39790000Y-56608578D02*
X39790000Y-56091422D01*
X41210000Y-56608578D02*
X41210000Y-56091422D01*
X51758578Y-73685000D02*
X51241422Y-73685000D01*
X51758578Y-72265000D02*
X51241422Y-72265000D01*
X64025000Y-33200000D02*
X64025000Y-30650000D01*
X62325000Y-33200000D02*
X62325000Y-30650000D01*
X64025000Y-33200000D02*
X62325000Y-33200000D01*
X70440000Y-30978922D02*
X70440000Y-31496078D01*
X71860000Y-30978922D02*
X71860000Y-31496078D01*
X47040000Y-49446078D02*
X47040000Y-48928922D01*
X48460000Y-49446078D02*
X48460000Y-48928922D01*
X70496078Y-49460000D02*
X69978922Y-49460000D01*
X70496078Y-48040000D02*
X69978922Y-48040000D01*
X62478922Y-64840000D02*
X62996078Y-64840000D01*
X62478922Y-66260000D02*
X62996078Y-66260000D01*
X40810000Y-50791422D02*
X40810000Y-51308578D01*
X39390000Y-50791422D02*
X39390000Y-51308578D01*
X58270405Y-65246066D02*
X57753249Y-65246066D01*
X58270405Y-66666066D02*
X57753249Y-66666066D01*
X70310000Y-53141422D02*
X70310000Y-53658578D01*
X68890000Y-53141422D02*
X68890000Y-53658578D01*
X59282905Y-69240000D02*
X58765749Y-69240000D01*
X59282905Y-70660000D02*
X58765749Y-70660000D01*
X54315000Y-70696078D02*
X54315000Y-70178922D01*
X55735000Y-70696078D02*
X55735000Y-70178922D01*
X68983578Y-39800000D02*
X68466422Y-39800000D01*
X68983578Y-41220000D02*
X68466422Y-41220000D01*
X44828922Y-49415000D02*
X45346078Y-49415000D01*
X44828922Y-50835000D02*
X45346078Y-50835000D01*
X61115000Y-68678922D02*
X61115000Y-69196078D01*
X62535000Y-68678922D02*
X62535000Y-69196078D01*
X70608578Y-51460000D02*
X70091422Y-51460000D01*
X70608578Y-50040000D02*
X70091422Y-50040000D01*
X61985000Y-31728922D02*
X61985000Y-32246078D01*
X60565000Y-31728922D02*
X60565000Y-32246078D01*
X60035000Y-32311252D02*
X60035000Y-31788748D01*
X58615000Y-32311252D02*
X58615000Y-31788748D01*
D11*
X41192857Y-59057142D02*
X41240476Y-59104761D01*
X41383333Y-59152380D01*
X41478571Y-59152380D01*
X41621428Y-59104761D01*
X41716666Y-59009523D01*
X41764285Y-58914285D01*
X41811904Y-58723809D01*
X41811904Y-58580952D01*
X41764285Y-58390476D01*
X41716666Y-58295238D01*
X41621428Y-58200000D01*
X41478571Y-58152380D01*
X41383333Y-58152380D01*
X41240476Y-58200000D01*
X41192857Y-58247619D01*
X40240476Y-59152380D02*
X40811904Y-59152380D01*
X40526190Y-59152380D02*
X40526190Y-58152380D01*
X40621428Y-58295238D01*
X40716666Y-58390476D01*
X40811904Y-58438095D01*
X39383333Y-58152380D02*
X39573809Y-58152380D01*
X39669047Y-58200000D01*
X39716666Y-58247619D01*
X39811904Y-58390476D01*
X39859523Y-58580952D01*
X39859523Y-58961904D01*
X39811904Y-59057142D01*
X39764285Y-59104761D01*
X39669047Y-59152380D01*
X39478571Y-59152380D01*
X39383333Y-59104761D01*
X39335714Y-59057142D01*
X39288095Y-58961904D01*
X39288095Y-58723809D01*
X39335714Y-58628571D01*
X39383333Y-58580952D01*
X39478571Y-58533333D01*
X39669047Y-58533333D01*
X39764285Y-58580952D01*
X39811904Y-58628571D01*
X39859523Y-58723809D01*
X52142857Y-71682142D02*
X52190476Y-71729761D01*
X52333333Y-71777380D01*
X52428571Y-71777380D01*
X52571428Y-71729761D01*
X52666666Y-71634523D01*
X52714285Y-71539285D01*
X52761904Y-71348809D01*
X52761904Y-71205952D01*
X52714285Y-71015476D01*
X52666666Y-70920238D01*
X52571428Y-70825000D01*
X52428571Y-70777380D01*
X52333333Y-70777380D01*
X52190476Y-70825000D01*
X52142857Y-70872619D01*
X51190476Y-71777380D02*
X51761904Y-71777380D01*
X51476190Y-71777380D02*
X51476190Y-70777380D01*
X51571428Y-70920238D01*
X51666666Y-71015476D01*
X51761904Y-71063095D01*
X50571428Y-70777380D02*
X50476190Y-70777380D01*
X50380952Y-70825000D01*
X50333333Y-70872619D01*
X50285714Y-70967857D01*
X50238095Y-71158333D01*
X50238095Y-71396428D01*
X50285714Y-71586904D01*
X50333333Y-71682142D01*
X50380952Y-71729761D01*
X50476190Y-71777380D01*
X50571428Y-71777380D01*
X50666666Y-71729761D01*
X50714285Y-71682142D01*
X50761904Y-71586904D01*
X50809523Y-71396428D01*
X50809523Y-71158333D01*
X50761904Y-70967857D01*
X50714285Y-70872619D01*
X50666666Y-70825000D01*
X50571428Y-70777380D01*
X65477380Y-30961904D02*
X64477380Y-30961904D01*
X64477380Y-31200000D01*
X64525000Y-31342857D01*
X64620238Y-31438095D01*
X64715476Y-31485714D01*
X64905952Y-31533333D01*
X65048809Y-31533333D01*
X65239285Y-31485714D01*
X65334523Y-31438095D01*
X65429761Y-31342857D01*
X65477380Y-31200000D01*
X65477380Y-30961904D01*
X65477380Y-32485714D02*
X65477380Y-31914285D01*
X65477380Y-32200000D02*
X64477380Y-32200000D01*
X64620238Y-32104761D01*
X64715476Y-32009523D01*
X64763095Y-31914285D01*
X74692857Y-31607142D02*
X74740476Y-31654761D01*
X74883333Y-31702380D01*
X74978571Y-31702380D01*
X75121428Y-31654761D01*
X75216666Y-31559523D01*
X75264285Y-31464285D01*
X75311904Y-31273809D01*
X75311904Y-31130952D01*
X75264285Y-30940476D01*
X75216666Y-30845238D01*
X75121428Y-30750000D01*
X74978571Y-30702380D01*
X74883333Y-30702380D01*
X74740476Y-30750000D01*
X74692857Y-30797619D01*
X73740476Y-31702380D02*
X74311904Y-31702380D01*
X74026190Y-31702380D02*
X74026190Y-30702380D01*
X74121428Y-30845238D01*
X74216666Y-30940476D01*
X74311904Y-30988095D01*
X73359523Y-30797619D02*
X73311904Y-30750000D01*
X73216666Y-30702380D01*
X72978571Y-30702380D01*
X72883333Y-30750000D01*
X72835714Y-30797619D01*
X72788095Y-30892857D01*
X72788095Y-30988095D01*
X72835714Y-31130952D01*
X73407142Y-31702380D01*
X72788095Y-31702380D01*
X47941666Y-46857142D02*
X47989285Y-46904761D01*
X48132142Y-46952380D01*
X48227380Y-46952380D01*
X48370238Y-46904761D01*
X48465476Y-46809523D01*
X48513095Y-46714285D01*
X48560714Y-46523809D01*
X48560714Y-46380952D01*
X48513095Y-46190476D01*
X48465476Y-46095238D01*
X48370238Y-46000000D01*
X48227380Y-45952380D01*
X48132142Y-45952380D01*
X47989285Y-46000000D01*
X47941666Y-46047619D01*
X46989285Y-46952380D02*
X47560714Y-46952380D01*
X47275000Y-46952380D02*
X47275000Y-45952380D01*
X47370238Y-46095238D01*
X47465476Y-46190476D01*
X47560714Y-46238095D01*
X69891666Y-47557142D02*
X69939285Y-47604761D01*
X70082142Y-47652380D01*
X70177380Y-47652380D01*
X70320238Y-47604761D01*
X70415476Y-47509523D01*
X70463095Y-47414285D01*
X70510714Y-47223809D01*
X70510714Y-47080952D01*
X70463095Y-46890476D01*
X70415476Y-46795238D01*
X70320238Y-46700000D01*
X70177380Y-46652380D01*
X70082142Y-46652380D01*
X69939285Y-46700000D01*
X69891666Y-46747619D01*
X69510714Y-46747619D02*
X69463095Y-46700000D01*
X69367857Y-46652380D01*
X69129761Y-46652380D01*
X69034523Y-46700000D01*
X68986904Y-46747619D01*
X68939285Y-46842857D01*
X68939285Y-46938095D01*
X68986904Y-47080952D01*
X69558333Y-47652380D01*
X68939285Y-47652380D01*
X64016666Y-69682142D02*
X64064285Y-69729761D01*
X64207142Y-69777380D01*
X64302380Y-69777380D01*
X64445238Y-69729761D01*
X64540476Y-69634523D01*
X64588095Y-69539285D01*
X64635714Y-69348809D01*
X64635714Y-69205952D01*
X64588095Y-69015476D01*
X64540476Y-68920238D01*
X64445238Y-68825000D01*
X64302380Y-68777380D01*
X64207142Y-68777380D01*
X64064285Y-68825000D01*
X64016666Y-68872619D01*
X63683333Y-68777380D02*
X63064285Y-68777380D01*
X63397619Y-69158333D01*
X63254761Y-69158333D01*
X63159523Y-69205952D01*
X63111904Y-69253571D01*
X63064285Y-69348809D01*
X63064285Y-69586904D01*
X63111904Y-69682142D01*
X63159523Y-69729761D01*
X63254761Y-69777380D01*
X63540476Y-69777380D01*
X63635714Y-69729761D01*
X63683333Y-69682142D01*
X40316666Y-49232142D02*
X40364285Y-49279761D01*
X40507142Y-49327380D01*
X40602380Y-49327380D01*
X40745238Y-49279761D01*
X40840476Y-49184523D01*
X40888095Y-49089285D01*
X40935714Y-48898809D01*
X40935714Y-48755952D01*
X40888095Y-48565476D01*
X40840476Y-48470238D01*
X40745238Y-48375000D01*
X40602380Y-48327380D01*
X40507142Y-48327380D01*
X40364285Y-48375000D01*
X40316666Y-48422619D01*
X39459523Y-48660714D02*
X39459523Y-49327380D01*
X39697619Y-48279761D02*
X39935714Y-48994047D01*
X39316666Y-48994047D01*
X58178493Y-64663208D02*
X58226112Y-64710827D01*
X58368969Y-64758446D01*
X58464207Y-64758446D01*
X58607065Y-64710827D01*
X58702303Y-64615589D01*
X58749922Y-64520351D01*
X58797541Y-64329875D01*
X58797541Y-64187018D01*
X58749922Y-63996542D01*
X58702303Y-63901304D01*
X58607065Y-63806066D01*
X58464207Y-63758446D01*
X58368969Y-63758446D01*
X58226112Y-63806066D01*
X58178493Y-63853685D01*
X57273731Y-63758446D02*
X57749922Y-63758446D01*
X57797541Y-64234637D01*
X57749922Y-64187018D01*
X57654684Y-64139399D01*
X57416588Y-64139399D01*
X57321350Y-64187018D01*
X57273731Y-64234637D01*
X57226112Y-64329875D01*
X57226112Y-64567970D01*
X57273731Y-64663208D01*
X57321350Y-64710827D01*
X57416588Y-64758446D01*
X57654684Y-64758446D01*
X57749922Y-64710827D01*
X57797541Y-64663208D01*
X67066666Y-53857142D02*
X67114285Y-53904761D01*
X67257142Y-53952380D01*
X67352380Y-53952380D01*
X67495238Y-53904761D01*
X67590476Y-53809523D01*
X67638095Y-53714285D01*
X67685714Y-53523809D01*
X67685714Y-53380952D01*
X67638095Y-53190476D01*
X67590476Y-53095238D01*
X67495238Y-53000000D01*
X67352380Y-52952380D01*
X67257142Y-52952380D01*
X67114285Y-53000000D01*
X67066666Y-53047619D01*
X66209523Y-52952380D02*
X66400000Y-52952380D01*
X66495238Y-53000000D01*
X66542857Y-53047619D01*
X66638095Y-53190476D01*
X66685714Y-53380952D01*
X66685714Y-53761904D01*
X66638095Y-53857142D01*
X66590476Y-53904761D01*
X66495238Y-53952380D01*
X66304761Y-53952380D01*
X66209523Y-53904761D01*
X66161904Y-53857142D01*
X66114285Y-53761904D01*
X66114285Y-53523809D01*
X66161904Y-53428571D01*
X66209523Y-53380952D01*
X66304761Y-53333333D01*
X66495238Y-53333333D01*
X66590476Y-53380952D01*
X66638095Y-53428571D01*
X66685714Y-53523809D01*
X58641666Y-68757142D02*
X58689285Y-68804761D01*
X58832142Y-68852380D01*
X58927380Y-68852380D01*
X59070238Y-68804761D01*
X59165476Y-68709523D01*
X59213095Y-68614285D01*
X59260714Y-68423809D01*
X59260714Y-68280952D01*
X59213095Y-68090476D01*
X59165476Y-67995238D01*
X59070238Y-67900000D01*
X58927380Y-67852380D01*
X58832142Y-67852380D01*
X58689285Y-67900000D01*
X58641666Y-67947619D01*
X58070238Y-68280952D02*
X58165476Y-68233333D01*
X58213095Y-68185714D01*
X58260714Y-68090476D01*
X58260714Y-68042857D01*
X58213095Y-67947619D01*
X58165476Y-67900000D01*
X58070238Y-67852380D01*
X57879761Y-67852380D01*
X57784523Y-67900000D01*
X57736904Y-67947619D01*
X57689285Y-68042857D01*
X57689285Y-68090476D01*
X57736904Y-68185714D01*
X57784523Y-68233333D01*
X57879761Y-68280952D01*
X58070238Y-68280952D01*
X58165476Y-68328571D01*
X58213095Y-68376190D01*
X58260714Y-68471428D01*
X58260714Y-68661904D01*
X58213095Y-68757142D01*
X58165476Y-68804761D01*
X58070238Y-68852380D01*
X57879761Y-68852380D01*
X57784523Y-68804761D01*
X57736904Y-68757142D01*
X57689285Y-68661904D01*
X57689285Y-68471428D01*
X57736904Y-68376190D01*
X57784523Y-68328571D01*
X57879761Y-68280952D01*
X54866666Y-68432142D02*
X54914285Y-68479761D01*
X55057142Y-68527380D01*
X55152380Y-68527380D01*
X55295238Y-68479761D01*
X55390476Y-68384523D01*
X55438095Y-68289285D01*
X55485714Y-68098809D01*
X55485714Y-67955952D01*
X55438095Y-67765476D01*
X55390476Y-67670238D01*
X55295238Y-67575000D01*
X55152380Y-67527380D01*
X55057142Y-67527380D01*
X54914285Y-67575000D01*
X54866666Y-67622619D01*
X54390476Y-68527380D02*
X54200000Y-68527380D01*
X54104761Y-68479761D01*
X54057142Y-68432142D01*
X53961904Y-68289285D01*
X53914285Y-68098809D01*
X53914285Y-67717857D01*
X53961904Y-67622619D01*
X54009523Y-67575000D01*
X54104761Y-67527380D01*
X54295238Y-67527380D01*
X54390476Y-67575000D01*
X54438095Y-67622619D01*
X54485714Y-67717857D01*
X54485714Y-67955952D01*
X54438095Y-68051190D01*
X54390476Y-68098809D01*
X54295238Y-68146428D01*
X54104761Y-68146428D01*
X54009523Y-68098809D01*
X53961904Y-68051190D01*
X53914285Y-67955952D01*
X68392857Y-39232142D02*
X68440476Y-39279761D01*
X68583333Y-39327380D01*
X68678571Y-39327380D01*
X68821428Y-39279761D01*
X68916666Y-39184523D01*
X68964285Y-39089285D01*
X69011904Y-38898809D01*
X69011904Y-38755952D01*
X68964285Y-38565476D01*
X68916666Y-38470238D01*
X68821428Y-38375000D01*
X68678571Y-38327380D01*
X68583333Y-38327380D01*
X68440476Y-38375000D01*
X68392857Y-38422619D01*
X67440476Y-39327380D02*
X68011904Y-39327380D01*
X67726190Y-39327380D02*
X67726190Y-38327380D01*
X67821428Y-38470238D01*
X67916666Y-38565476D01*
X68011904Y-38613095D01*
X66583333Y-38660714D02*
X66583333Y-39327380D01*
X66821428Y-38279761D02*
X67059523Y-38994047D01*
X66440476Y-38994047D01*
X45920833Y-48303571D02*
X46254166Y-48303571D01*
X46254166Y-48827380D02*
X46254166Y-47827380D01*
X45777976Y-47827380D01*
X45063690Y-48303571D02*
X44920833Y-48351190D01*
X44873214Y-48398809D01*
X44825595Y-48494047D01*
X44825595Y-48636904D01*
X44873214Y-48732142D01*
X44920833Y-48779761D01*
X45016071Y-48827380D01*
X45397023Y-48827380D01*
X45397023Y-47827380D01*
X45063690Y-47827380D01*
X44968452Y-47875000D01*
X44920833Y-47922619D01*
X44873214Y-48017857D01*
X44873214Y-48113095D01*
X44920833Y-48208333D01*
X44968452Y-48255952D01*
X45063690Y-48303571D01*
X45397023Y-48303571D01*
X43873214Y-48827380D02*
X44444642Y-48827380D01*
X44158928Y-48827380D02*
X44158928Y-47827380D01*
X44254166Y-47970238D01*
X44349404Y-48065476D01*
X44444642Y-48113095D01*
X66758333Y-65503571D02*
X67091666Y-65503571D01*
X67091666Y-66027380D02*
X67091666Y-65027380D01*
X66615476Y-65027380D01*
X65901190Y-65503571D02*
X65758333Y-65551190D01*
X65710714Y-65598809D01*
X65663095Y-65694047D01*
X65663095Y-65836904D01*
X65710714Y-65932142D01*
X65758333Y-65979761D01*
X65853571Y-66027380D01*
X66234523Y-66027380D01*
X66234523Y-65027380D01*
X65901190Y-65027380D01*
X65805952Y-65075000D01*
X65758333Y-65122619D01*
X65710714Y-65217857D01*
X65710714Y-65313095D01*
X65758333Y-65408333D01*
X65805952Y-65455952D01*
X65901190Y-65503571D01*
X66234523Y-65503571D01*
X65282142Y-65122619D02*
X65234523Y-65075000D01*
X65139285Y-65027380D01*
X64901190Y-65027380D01*
X64805952Y-65075000D01*
X64758333Y-65122619D01*
X64710714Y-65217857D01*
X64710714Y-65313095D01*
X64758333Y-65455952D01*
X65329761Y-66027380D01*
X64710714Y-66027380D01*
X67533333Y-50803571D02*
X67866666Y-50803571D01*
X67866666Y-51327380D02*
X67866666Y-50327380D01*
X67390476Y-50327380D01*
X66676190Y-50803571D02*
X66533333Y-50851190D01*
X66485714Y-50898809D01*
X66438095Y-50994047D01*
X66438095Y-51136904D01*
X66485714Y-51232142D01*
X66533333Y-51279761D01*
X66628571Y-51327380D01*
X67009523Y-51327380D01*
X67009523Y-50327380D01*
X66676190Y-50327380D01*
X66580952Y-50375000D01*
X66533333Y-50422619D01*
X66485714Y-50517857D01*
X66485714Y-50613095D01*
X66533333Y-50708333D01*
X66580952Y-50755952D01*
X66676190Y-50803571D01*
X67009523Y-50803571D01*
X66104761Y-50327380D02*
X65485714Y-50327380D01*
X65819047Y-50708333D01*
X65676190Y-50708333D01*
X65580952Y-50755952D01*
X65533333Y-50803571D01*
X65485714Y-50898809D01*
X65485714Y-51136904D01*
X65533333Y-51232142D01*
X65580952Y-51279761D01*
X65676190Y-51327380D01*
X65961904Y-51327380D01*
X66057142Y-51279761D01*
X66104761Y-51232142D01*
X61278571Y-34691666D02*
X61278571Y-34358333D01*
X61802380Y-34358333D02*
X60802380Y-34358333D01*
X60802380Y-34834523D01*
X61278571Y-35548809D02*
X61326190Y-35691666D01*
X61373809Y-35739285D01*
X61469047Y-35786904D01*
X61611904Y-35786904D01*
X61707142Y-35739285D01*
X61754761Y-35691666D01*
X61802380Y-35596428D01*
X61802380Y-35215476D01*
X60802380Y-35215476D01*
X60802380Y-35548809D01*
X60850000Y-35644047D01*
X60897619Y-35691666D01*
X60992857Y-35739285D01*
X61088095Y-35739285D01*
X61183333Y-35691666D01*
X61230952Y-35644047D01*
X61278571Y-35548809D01*
X61278571Y-35215476D01*
X61135714Y-36644047D02*
X61802380Y-36644047D01*
X60754761Y-36405952D02*
X61469047Y-36167857D01*
X61469047Y-36786904D01*
X59677380Y-34783333D02*
X59201190Y-34450000D01*
X59677380Y-34211904D02*
X58677380Y-34211904D01*
X58677380Y-34592857D01*
X58725000Y-34688095D01*
X58772619Y-34735714D01*
X58867857Y-34783333D01*
X59010714Y-34783333D01*
X59105952Y-34735714D01*
X59153571Y-34688095D01*
X59201190Y-34592857D01*
X59201190Y-34211904D01*
X59010714Y-35640476D02*
X59677380Y-35640476D01*
X58629761Y-35402380D02*
X59344047Y-35164285D01*
X59344047Y-35783333D01*
M02*
