G04 #@! TF.GenerationSoftware,KiCad,Pcbnew,(5.1.5)-3*
G04 #@! TF.CreationDate,2020-05-10T15:52:49-07:00*
G04 #@! TF.ProjectId,april_proj,61707269-6c5f-4707-926f-6a2e6b696361,rev?*
G04 #@! TF.SameCoordinates,Original*
G04 #@! TF.FileFunction,Copper,L3,Inr*
G04 #@! TF.FilePolarity,Positive*
%FSLAX46Y46*%
G04 Gerber Fmt 4.6, Leading zero omitted, Abs format (unit mm)*
G04 Created by KiCad (PCBNEW (5.1.5)-3) date 2020-05-10 15:52:49*
%MOMM*%
%LPD*%
G04 APERTURE LIST*
%ADD10C,5.599999*%
%ADD11R,1.350000X1.350000*%
%ADD12O,1.700000X1.700000*%
%ADD13R,1.700000X1.700000*%
%ADD14C,2.600000*%
%ADD15R,2.600000X2.600000*%
%ADD16O,1.050000X1.500000*%
%ADD17R,1.050000X1.500000*%
%ADD18C,0.609600*%
%ADD19C,0.800000*%
%ADD20C,0.152400*%
G04 APERTURE END LIST*
D10*
X74950000Y-23875000D03*
X40375000Y-78875000D03*
X74375000Y-78875000D03*
X33975000Y-24925000D03*
D11*
X71950000Y-52900000D03*
X62300000Y-71700000D03*
X44225000Y-52550000D03*
D12*
X66295000Y-28125000D03*
X68835000Y-28125000D03*
D13*
X71375000Y-28125000D03*
D14*
X38942004Y-27293122D03*
X43642004Y-24293122D03*
D15*
X43642004Y-30293122D03*
D16*
X61265000Y-29290000D03*
X59995000Y-29290000D03*
D17*
X62535000Y-29290000D03*
D18*
X47350000Y-77875000D03*
X45300000Y-77775000D03*
X39750000Y-56650000D03*
X38875000Y-51825000D03*
X41075000Y-51175000D03*
X40375000Y-53550000D03*
X39325000Y-51050000D03*
X41850000Y-51425000D03*
X35700000Y-77475000D03*
X35775000Y-79700000D03*
X70275000Y-31675000D03*
X70225000Y-49550000D03*
X35700000Y-43125000D03*
X35600000Y-60900000D03*
X53725000Y-77800000D03*
X56025000Y-77700000D03*
X35500000Y-37075000D03*
X35750000Y-54525000D03*
X47750000Y-49100000D03*
X56325000Y-30725000D03*
X65350000Y-33825000D03*
X73000000Y-61850000D03*
X68450000Y-54500000D03*
X72900000Y-68350000D03*
D19*
X73000000Y-48250000D03*
X73000000Y-50500000D03*
D18*
X73000000Y-42250000D03*
X73000000Y-39750000D03*
X68675000Y-41350000D03*
D19*
X45572004Y-24403122D03*
X43822003Y-26153123D03*
X43822003Y-22403122D03*
D18*
X58900000Y-69725000D03*
X35625000Y-62925000D03*
X35750000Y-52175000D03*
X35500000Y-45575000D03*
X35500000Y-34475000D03*
X72900000Y-70300000D03*
X62875000Y-64550000D03*
X73000000Y-59850000D03*
X68650000Y-31575000D03*
X50650000Y-71750000D03*
X57711827Y-66956066D03*
D19*
X41572004Y-24403124D03*
D18*
X56100000Y-68825000D03*
X60350000Y-34125000D03*
X39200000Y-55500000D03*
X35650000Y-71200000D03*
X35575000Y-69050000D03*
D19*
X69675000Y-38050000D03*
D18*
X59100000Y-70850000D03*
X68700000Y-53350000D03*
X52600000Y-71775000D03*
X58000000Y-65150000D03*
X54050000Y-70600000D03*
X60300000Y-33300000D03*
X70250000Y-30850000D03*
D20*
G36*
X78246400Y-83146400D02*
G01*
X30253600Y-83146400D01*
X30253600Y-81076346D01*
X38245496Y-81076346D01*
X38567552Y-81449166D01*
X39104476Y-81752319D01*
X39690226Y-81944899D01*
X40302291Y-82019505D01*
X40917151Y-81973270D01*
X41511176Y-81807969D01*
X42061538Y-81529956D01*
X42182448Y-81449166D01*
X42504504Y-81076346D01*
X72245496Y-81076346D01*
X72567552Y-81449166D01*
X73104476Y-81752319D01*
X73690226Y-81944899D01*
X74302291Y-82019505D01*
X74917151Y-81973270D01*
X75511176Y-81807969D01*
X76061538Y-81529956D01*
X76182448Y-81449166D01*
X76504504Y-81076346D01*
X74375000Y-78946842D01*
X72245496Y-81076346D01*
X42504504Y-81076346D01*
X40375000Y-78946842D01*
X38245496Y-81076346D01*
X30253600Y-81076346D01*
X30253600Y-78802291D01*
X37230495Y-78802291D01*
X37276730Y-79417151D01*
X37442031Y-80011176D01*
X37720044Y-80561538D01*
X37800834Y-80682448D01*
X38173654Y-81004504D01*
X40303158Y-78875000D01*
X40446842Y-78875000D01*
X42576346Y-81004504D01*
X42949166Y-80682448D01*
X43252319Y-80145524D01*
X43444899Y-79559774D01*
X43519505Y-78947709D01*
X43508571Y-78802291D01*
X71230495Y-78802291D01*
X71276730Y-79417151D01*
X71442031Y-80011176D01*
X71720044Y-80561538D01*
X71800834Y-80682448D01*
X72173654Y-81004504D01*
X74303158Y-78875000D01*
X74446842Y-78875000D01*
X76576346Y-81004504D01*
X76949166Y-80682448D01*
X77252319Y-80145524D01*
X77444899Y-79559774D01*
X77519505Y-78947709D01*
X77473270Y-78332849D01*
X77307969Y-77738824D01*
X77029956Y-77188462D01*
X76949166Y-77067552D01*
X76576346Y-76745496D01*
X74446842Y-78875000D01*
X74303158Y-78875000D01*
X72173654Y-76745496D01*
X71800834Y-77067552D01*
X71497681Y-77604476D01*
X71305101Y-78190226D01*
X71230495Y-78802291D01*
X43508571Y-78802291D01*
X43473270Y-78332849D01*
X43307969Y-77738824D01*
X43029956Y-77188462D01*
X42949166Y-77067552D01*
X42576346Y-76745496D01*
X40446842Y-78875000D01*
X40303158Y-78875000D01*
X38173654Y-76745496D01*
X37800834Y-77067552D01*
X37497681Y-77604476D01*
X37305101Y-78190226D01*
X37230495Y-78802291D01*
X30253600Y-78802291D01*
X30253600Y-76673654D01*
X38245496Y-76673654D01*
X40375000Y-78803158D01*
X42504504Y-76673654D01*
X72245496Y-76673654D01*
X74375000Y-78803158D01*
X76504504Y-76673654D01*
X76182448Y-76300834D01*
X75645524Y-75997681D01*
X75059774Y-75805101D01*
X74447709Y-75730495D01*
X73832849Y-75776730D01*
X73238824Y-75942031D01*
X72688462Y-76220044D01*
X72567552Y-76300834D01*
X72245496Y-76673654D01*
X42504504Y-76673654D01*
X42182448Y-76300834D01*
X41645524Y-75997681D01*
X41059774Y-75805101D01*
X40447709Y-75730495D01*
X39832849Y-75776730D01*
X39238824Y-75942031D01*
X38688462Y-76220044D01*
X38567552Y-76300834D01*
X38245496Y-76673654D01*
X30253600Y-76673654D01*
X30253600Y-71717777D01*
X52019000Y-71717777D01*
X52019000Y-71832223D01*
X52041328Y-71944471D01*
X52085125Y-72050207D01*
X52148708Y-72145366D01*
X52229634Y-72226292D01*
X52324793Y-72289875D01*
X52430529Y-72333672D01*
X52542777Y-72356000D01*
X52657223Y-72356000D01*
X52769471Y-72333672D01*
X52875207Y-72289875D01*
X52970366Y-72226292D01*
X53051292Y-72145366D01*
X53114875Y-72050207D01*
X53158672Y-71944471D01*
X53181000Y-71832223D01*
X53181000Y-71717777D01*
X53158672Y-71605529D01*
X53114875Y-71499793D01*
X53051292Y-71404634D01*
X52970366Y-71323708D01*
X52875207Y-71260125D01*
X52769471Y-71216328D01*
X52657223Y-71194000D01*
X52542777Y-71194000D01*
X52430529Y-71216328D01*
X52324793Y-71260125D01*
X52229634Y-71323708D01*
X52148708Y-71404634D01*
X52085125Y-71499793D01*
X52041328Y-71605529D01*
X52019000Y-71717777D01*
X30253600Y-71717777D01*
X30253600Y-70542777D01*
X53469000Y-70542777D01*
X53469000Y-70657223D01*
X53491328Y-70769471D01*
X53535125Y-70875207D01*
X53598708Y-70970366D01*
X53679634Y-71051292D01*
X53774793Y-71114875D01*
X53880529Y-71158672D01*
X53992777Y-71181000D01*
X54107223Y-71181000D01*
X54219471Y-71158672D01*
X54325207Y-71114875D01*
X54420366Y-71051292D01*
X54501292Y-70970366D01*
X54564875Y-70875207D01*
X54599018Y-70792777D01*
X58519000Y-70792777D01*
X58519000Y-70907223D01*
X58541328Y-71019471D01*
X58585125Y-71125207D01*
X58648708Y-71220366D01*
X58729634Y-71301292D01*
X58824793Y-71364875D01*
X58930529Y-71408672D01*
X59042777Y-71431000D01*
X59157223Y-71431000D01*
X59269471Y-71408672D01*
X59375207Y-71364875D01*
X59470366Y-71301292D01*
X59551292Y-71220366D01*
X59614875Y-71125207D01*
X59656381Y-71025000D01*
X61347464Y-71025000D01*
X61347464Y-72375000D01*
X61352797Y-72429145D01*
X61368590Y-72481208D01*
X61394237Y-72529191D01*
X61428752Y-72571248D01*
X61470809Y-72605763D01*
X61518792Y-72631410D01*
X61570855Y-72647203D01*
X61625000Y-72652536D01*
X62975000Y-72652536D01*
X63029145Y-72647203D01*
X63081208Y-72631410D01*
X63129191Y-72605763D01*
X63171248Y-72571248D01*
X63205763Y-72529191D01*
X63231410Y-72481208D01*
X63247203Y-72429145D01*
X63252536Y-72375000D01*
X63252536Y-71025000D01*
X63247203Y-70970855D01*
X63231410Y-70918792D01*
X63205763Y-70870809D01*
X63171248Y-70828752D01*
X63129191Y-70794237D01*
X63081208Y-70768590D01*
X63029145Y-70752797D01*
X62975000Y-70747464D01*
X61625000Y-70747464D01*
X61570855Y-70752797D01*
X61518792Y-70768590D01*
X61470809Y-70794237D01*
X61428752Y-70828752D01*
X61394237Y-70870809D01*
X61368590Y-70918792D01*
X61352797Y-70970855D01*
X61347464Y-71025000D01*
X59656381Y-71025000D01*
X59658672Y-71019471D01*
X59681000Y-70907223D01*
X59681000Y-70792777D01*
X59658672Y-70680529D01*
X59614875Y-70574793D01*
X59551292Y-70479634D01*
X59470366Y-70398708D01*
X59375207Y-70335125D01*
X59269471Y-70291328D01*
X59157223Y-70269000D01*
X59042777Y-70269000D01*
X58930529Y-70291328D01*
X58824793Y-70335125D01*
X58729634Y-70398708D01*
X58648708Y-70479634D01*
X58585125Y-70574793D01*
X58541328Y-70680529D01*
X58519000Y-70792777D01*
X54599018Y-70792777D01*
X54608672Y-70769471D01*
X54631000Y-70657223D01*
X54631000Y-70542777D01*
X54608672Y-70430529D01*
X54564875Y-70324793D01*
X54501292Y-70229634D01*
X54420366Y-70148708D01*
X54325207Y-70085125D01*
X54219471Y-70041328D01*
X54107223Y-70019000D01*
X53992777Y-70019000D01*
X53880529Y-70041328D01*
X53774793Y-70085125D01*
X53679634Y-70148708D01*
X53598708Y-70229634D01*
X53535125Y-70324793D01*
X53491328Y-70430529D01*
X53469000Y-70542777D01*
X30253600Y-70542777D01*
X30253600Y-65092777D01*
X57419000Y-65092777D01*
X57419000Y-65207223D01*
X57441328Y-65319471D01*
X57485125Y-65425207D01*
X57548708Y-65520366D01*
X57629634Y-65601292D01*
X57724793Y-65664875D01*
X57830529Y-65708672D01*
X57942777Y-65731000D01*
X58057223Y-65731000D01*
X58169471Y-65708672D01*
X58275207Y-65664875D01*
X58370366Y-65601292D01*
X58451292Y-65520366D01*
X58514875Y-65425207D01*
X58558672Y-65319471D01*
X58581000Y-65207223D01*
X58581000Y-65092777D01*
X58558672Y-64980529D01*
X58514875Y-64874793D01*
X58451292Y-64779634D01*
X58370366Y-64698708D01*
X58275207Y-64635125D01*
X58169471Y-64591328D01*
X58057223Y-64569000D01*
X57942777Y-64569000D01*
X57830529Y-64591328D01*
X57724793Y-64635125D01*
X57629634Y-64698708D01*
X57548708Y-64779634D01*
X57485125Y-64874793D01*
X57441328Y-64980529D01*
X57419000Y-65092777D01*
X30253600Y-65092777D01*
X30253600Y-56592777D01*
X39169000Y-56592777D01*
X39169000Y-56707223D01*
X39191328Y-56819471D01*
X39235125Y-56925207D01*
X39298708Y-57020366D01*
X39379634Y-57101292D01*
X39474793Y-57164875D01*
X39580529Y-57208672D01*
X39692777Y-57231000D01*
X39807223Y-57231000D01*
X39919471Y-57208672D01*
X40025207Y-57164875D01*
X40120366Y-57101292D01*
X40201292Y-57020366D01*
X40264875Y-56925207D01*
X40308672Y-56819471D01*
X40331000Y-56707223D01*
X40331000Y-56592777D01*
X40308672Y-56480529D01*
X40264875Y-56374793D01*
X40201292Y-56279634D01*
X40120366Y-56198708D01*
X40025207Y-56135125D01*
X39919471Y-56091328D01*
X39807223Y-56069000D01*
X39692777Y-56069000D01*
X39580529Y-56091328D01*
X39474793Y-56135125D01*
X39379634Y-56198708D01*
X39298708Y-56279634D01*
X39235125Y-56374793D01*
X39191328Y-56480529D01*
X39169000Y-56592777D01*
X30253600Y-56592777D01*
X30253600Y-53492777D01*
X39794000Y-53492777D01*
X39794000Y-53607223D01*
X39816328Y-53719471D01*
X39860125Y-53825207D01*
X39923708Y-53920366D01*
X40004634Y-54001292D01*
X40099793Y-54064875D01*
X40205529Y-54108672D01*
X40317777Y-54131000D01*
X40432223Y-54131000D01*
X40544471Y-54108672D01*
X40650207Y-54064875D01*
X40745366Y-54001292D01*
X40826292Y-53920366D01*
X40889875Y-53825207D01*
X40933672Y-53719471D01*
X40956000Y-53607223D01*
X40956000Y-53492777D01*
X40933672Y-53380529D01*
X40889875Y-53274793D01*
X40826292Y-53179634D01*
X40745366Y-53098708D01*
X40650207Y-53035125D01*
X40544471Y-52991328D01*
X40432223Y-52969000D01*
X40317777Y-52969000D01*
X40205529Y-52991328D01*
X40099793Y-53035125D01*
X40004634Y-53098708D01*
X39923708Y-53179634D01*
X39860125Y-53274793D01*
X39816328Y-53380529D01*
X39794000Y-53492777D01*
X30253600Y-53492777D01*
X30253600Y-51875000D01*
X43272464Y-51875000D01*
X43272464Y-53225000D01*
X43277797Y-53279145D01*
X43293590Y-53331208D01*
X43319237Y-53379191D01*
X43353752Y-53421248D01*
X43395809Y-53455763D01*
X43443792Y-53481410D01*
X43495855Y-53497203D01*
X43550000Y-53502536D01*
X44900000Y-53502536D01*
X44954145Y-53497203D01*
X45006208Y-53481410D01*
X45054191Y-53455763D01*
X45096248Y-53421248D01*
X45130763Y-53379191D01*
X45156410Y-53331208D01*
X45168067Y-53292777D01*
X68119000Y-53292777D01*
X68119000Y-53407223D01*
X68141328Y-53519471D01*
X68185125Y-53625207D01*
X68248708Y-53720366D01*
X68329634Y-53801292D01*
X68424793Y-53864875D01*
X68530529Y-53908672D01*
X68642777Y-53931000D01*
X68757223Y-53931000D01*
X68869471Y-53908672D01*
X68975207Y-53864875D01*
X69070366Y-53801292D01*
X69151292Y-53720366D01*
X69214875Y-53625207D01*
X69258672Y-53519471D01*
X69281000Y-53407223D01*
X69281000Y-53292777D01*
X69258672Y-53180529D01*
X69214875Y-53074793D01*
X69151292Y-52979634D01*
X69070366Y-52898708D01*
X68975207Y-52835125D01*
X68869471Y-52791328D01*
X68757223Y-52769000D01*
X68642777Y-52769000D01*
X68530529Y-52791328D01*
X68424793Y-52835125D01*
X68329634Y-52898708D01*
X68248708Y-52979634D01*
X68185125Y-53074793D01*
X68141328Y-53180529D01*
X68119000Y-53292777D01*
X45168067Y-53292777D01*
X45172203Y-53279145D01*
X45177536Y-53225000D01*
X45177536Y-52225000D01*
X70997464Y-52225000D01*
X70997464Y-53575000D01*
X71002797Y-53629145D01*
X71018590Y-53681208D01*
X71044237Y-53729191D01*
X71078752Y-53771248D01*
X71120809Y-53805763D01*
X71168792Y-53831410D01*
X71220855Y-53847203D01*
X71275000Y-53852536D01*
X72625000Y-53852536D01*
X72679145Y-53847203D01*
X72731208Y-53831410D01*
X72779191Y-53805763D01*
X72821248Y-53771248D01*
X72855763Y-53729191D01*
X72881410Y-53681208D01*
X72897203Y-53629145D01*
X72902536Y-53575000D01*
X72902536Y-52225000D01*
X72897203Y-52170855D01*
X72881410Y-52118792D01*
X72855763Y-52070809D01*
X72821248Y-52028752D01*
X72779191Y-51994237D01*
X72731208Y-51968590D01*
X72679145Y-51952797D01*
X72625000Y-51947464D01*
X71275000Y-51947464D01*
X71220855Y-51952797D01*
X71168792Y-51968590D01*
X71120809Y-51994237D01*
X71078752Y-52028752D01*
X71044237Y-52070809D01*
X71018590Y-52118792D01*
X71002797Y-52170855D01*
X70997464Y-52225000D01*
X45177536Y-52225000D01*
X45177536Y-51875000D01*
X45172203Y-51820855D01*
X45156410Y-51768792D01*
X45130763Y-51720809D01*
X45096248Y-51678752D01*
X45054191Y-51644237D01*
X45006208Y-51618590D01*
X44954145Y-51602797D01*
X44900000Y-51597464D01*
X43550000Y-51597464D01*
X43495855Y-51602797D01*
X43443792Y-51618590D01*
X43395809Y-51644237D01*
X43353752Y-51678752D01*
X43319237Y-51720809D01*
X43293590Y-51768792D01*
X43277797Y-51820855D01*
X43272464Y-51875000D01*
X30253600Y-51875000D01*
X30253600Y-50992777D01*
X38744000Y-50992777D01*
X38744000Y-51107223D01*
X38766328Y-51219471D01*
X38810125Y-51325207D01*
X38873708Y-51420366D01*
X38954634Y-51501292D01*
X39049793Y-51564875D01*
X39155529Y-51608672D01*
X39267777Y-51631000D01*
X39382223Y-51631000D01*
X39494471Y-51608672D01*
X39600207Y-51564875D01*
X39695366Y-51501292D01*
X39776292Y-51420366D01*
X39839875Y-51325207D01*
X39883672Y-51219471D01*
X39903900Y-51117777D01*
X40494000Y-51117777D01*
X40494000Y-51232223D01*
X40516328Y-51344471D01*
X40560125Y-51450207D01*
X40623708Y-51545366D01*
X40704634Y-51626292D01*
X40799793Y-51689875D01*
X40905529Y-51733672D01*
X41017777Y-51756000D01*
X41132223Y-51756000D01*
X41244471Y-51733672D01*
X41350207Y-51689875D01*
X41445366Y-51626292D01*
X41526292Y-51545366D01*
X41589875Y-51450207D01*
X41633672Y-51344471D01*
X41656000Y-51232223D01*
X41656000Y-51117777D01*
X41633672Y-51005529D01*
X41589875Y-50899793D01*
X41526292Y-50804634D01*
X41445366Y-50723708D01*
X41350207Y-50660125D01*
X41244471Y-50616328D01*
X41132223Y-50594000D01*
X41017777Y-50594000D01*
X40905529Y-50616328D01*
X40799793Y-50660125D01*
X40704634Y-50723708D01*
X40623708Y-50804634D01*
X40560125Y-50899793D01*
X40516328Y-51005529D01*
X40494000Y-51117777D01*
X39903900Y-51117777D01*
X39906000Y-51107223D01*
X39906000Y-50992777D01*
X39883672Y-50880529D01*
X39839875Y-50774793D01*
X39776292Y-50679634D01*
X39695366Y-50598708D01*
X39600207Y-50535125D01*
X39494471Y-50491328D01*
X39382223Y-50469000D01*
X39267777Y-50469000D01*
X39155529Y-50491328D01*
X39049793Y-50535125D01*
X38954634Y-50598708D01*
X38873708Y-50679634D01*
X38810125Y-50774793D01*
X38766328Y-50880529D01*
X38744000Y-50992777D01*
X30253600Y-50992777D01*
X30253600Y-37983400D01*
X68998800Y-37983400D01*
X68998800Y-38116600D01*
X69024786Y-38247240D01*
X69075759Y-38370301D01*
X69149761Y-38481052D01*
X69243948Y-38575239D01*
X69354699Y-38649241D01*
X69477760Y-38700214D01*
X69608400Y-38726200D01*
X69741600Y-38726200D01*
X69872240Y-38700214D01*
X69995301Y-38649241D01*
X70106052Y-38575239D01*
X70200239Y-38481052D01*
X70274241Y-38370301D01*
X70325214Y-38247240D01*
X70351200Y-38116600D01*
X70351200Y-37983400D01*
X70325214Y-37852760D01*
X70274241Y-37729699D01*
X70200239Y-37618948D01*
X70106052Y-37524761D01*
X69995301Y-37450759D01*
X69872240Y-37399786D01*
X69741600Y-37373800D01*
X69608400Y-37373800D01*
X69477760Y-37399786D01*
X69354699Y-37450759D01*
X69243948Y-37524761D01*
X69149761Y-37618948D01*
X69075759Y-37729699D01*
X69024786Y-37852760D01*
X68998800Y-37983400D01*
X30253600Y-37983400D01*
X30253600Y-33242777D01*
X59719000Y-33242777D01*
X59719000Y-33357223D01*
X59741328Y-33469471D01*
X59785125Y-33575207D01*
X59848708Y-33670366D01*
X59929634Y-33751292D01*
X60024793Y-33814875D01*
X60130529Y-33858672D01*
X60242777Y-33881000D01*
X60357223Y-33881000D01*
X60469471Y-33858672D01*
X60575207Y-33814875D01*
X60670366Y-33751292D01*
X60751292Y-33670366D01*
X60814875Y-33575207D01*
X60858672Y-33469471D01*
X60881000Y-33357223D01*
X60881000Y-33242777D01*
X60858672Y-33130529D01*
X60814875Y-33024793D01*
X60751292Y-32929634D01*
X60670366Y-32848708D01*
X60575207Y-32785125D01*
X60469471Y-32741328D01*
X60357223Y-32719000D01*
X60242777Y-32719000D01*
X60130529Y-32741328D01*
X60024793Y-32785125D01*
X59929634Y-32848708D01*
X59848708Y-32929634D01*
X59785125Y-33024793D01*
X59741328Y-33130529D01*
X59719000Y-33242777D01*
X30253600Y-33242777D01*
X30253600Y-28993122D01*
X42064468Y-28993122D01*
X42064468Y-31593122D01*
X42069801Y-31647267D01*
X42085594Y-31699330D01*
X42111241Y-31747313D01*
X42145756Y-31789370D01*
X42187813Y-31823885D01*
X42235796Y-31849532D01*
X42287859Y-31865325D01*
X42342004Y-31870658D01*
X44942004Y-31870658D01*
X44996149Y-31865325D01*
X45048212Y-31849532D01*
X45096195Y-31823885D01*
X45138252Y-31789370D01*
X45172767Y-31747313D01*
X45198414Y-31699330D01*
X45214207Y-31647267D01*
X45219540Y-31593122D01*
X45219540Y-30792777D01*
X69669000Y-30792777D01*
X69669000Y-30907223D01*
X69691328Y-31019471D01*
X69735125Y-31125207D01*
X69798708Y-31220366D01*
X69879634Y-31301292D01*
X69974793Y-31364875D01*
X70080529Y-31408672D01*
X70192777Y-31431000D01*
X70307223Y-31431000D01*
X70419471Y-31408672D01*
X70525207Y-31364875D01*
X70620366Y-31301292D01*
X70701292Y-31220366D01*
X70764875Y-31125207D01*
X70808672Y-31019471D01*
X70831000Y-30907223D01*
X70831000Y-30792777D01*
X70808672Y-30680529D01*
X70764875Y-30574793D01*
X70701292Y-30479634D01*
X70620366Y-30398708D01*
X70525207Y-30335125D01*
X70419471Y-30291328D01*
X70307223Y-30269000D01*
X70192777Y-30269000D01*
X70080529Y-30291328D01*
X69974793Y-30335125D01*
X69879634Y-30398708D01*
X69798708Y-30479634D01*
X69735125Y-30574793D01*
X69691328Y-30680529D01*
X69669000Y-30792777D01*
X45219540Y-30792777D01*
X45219540Y-29025645D01*
X59193800Y-29025645D01*
X59193800Y-29554354D01*
X59205393Y-29672062D01*
X59251207Y-29823088D01*
X59325604Y-29962275D01*
X59425725Y-30084275D01*
X59547724Y-30184396D01*
X59686911Y-30258793D01*
X59837937Y-30304607D01*
X59995000Y-30320076D01*
X60152062Y-30304607D01*
X60303088Y-30258793D01*
X60442275Y-30184396D01*
X60564275Y-30084275D01*
X60630000Y-30004188D01*
X60695725Y-30084275D01*
X60817724Y-30184396D01*
X60956911Y-30258793D01*
X61107937Y-30304607D01*
X61265000Y-30320076D01*
X61422062Y-30304607D01*
X61573088Y-30258793D01*
X61712275Y-30184396D01*
X61755181Y-30149185D01*
X61779237Y-30194191D01*
X61813752Y-30236248D01*
X61855809Y-30270763D01*
X61903792Y-30296410D01*
X61955855Y-30312203D01*
X62010000Y-30317536D01*
X63060000Y-30317536D01*
X63114145Y-30312203D01*
X63166208Y-30296410D01*
X63214191Y-30270763D01*
X63256248Y-30236248D01*
X63290763Y-30194191D01*
X63316410Y-30146208D01*
X63332203Y-30094145D01*
X63337536Y-30040000D01*
X63337536Y-28540000D01*
X63332203Y-28485855D01*
X63316410Y-28433792D01*
X63290763Y-28385809D01*
X63269277Y-28359628D01*
X65138355Y-28359628D01*
X65206353Y-28580770D01*
X65316187Y-28784397D01*
X65463637Y-28962684D01*
X65643035Y-29108779D01*
X65847488Y-29217068D01*
X66060373Y-29281642D01*
X66244200Y-29221474D01*
X66244200Y-28175800D01*
X66345800Y-28175800D01*
X66345800Y-29221474D01*
X66529627Y-29281642D01*
X66742512Y-29217068D01*
X66946965Y-29108779D01*
X67126363Y-28962684D01*
X67273813Y-28784397D01*
X67383647Y-28580770D01*
X67451645Y-28359628D01*
X67391559Y-28175800D01*
X66345800Y-28175800D01*
X66244200Y-28175800D01*
X65198441Y-28175800D01*
X65138355Y-28359628D01*
X63269277Y-28359628D01*
X63256248Y-28343752D01*
X63214191Y-28309237D01*
X63166208Y-28283590D01*
X63114145Y-28267797D01*
X63060000Y-28262464D01*
X62010000Y-28262464D01*
X61955855Y-28267797D01*
X61903792Y-28283590D01*
X61855809Y-28309237D01*
X61813752Y-28343752D01*
X61779237Y-28385809D01*
X61755181Y-28430815D01*
X61712276Y-28395604D01*
X61573089Y-28321207D01*
X61422063Y-28275393D01*
X61265000Y-28259924D01*
X61107938Y-28275393D01*
X60956912Y-28321207D01*
X60817725Y-28395604D01*
X60695726Y-28495725D01*
X60630000Y-28575812D01*
X60564275Y-28495725D01*
X60442276Y-28395604D01*
X60303089Y-28321207D01*
X60152063Y-28275393D01*
X59995000Y-28259924D01*
X59837938Y-28275393D01*
X59686912Y-28321207D01*
X59547725Y-28395604D01*
X59425726Y-28495725D01*
X59325604Y-28617724D01*
X59251207Y-28756911D01*
X59205393Y-28907937D01*
X59193800Y-29025645D01*
X45219540Y-29025645D01*
X45219540Y-28993122D01*
X45214207Y-28938977D01*
X45198414Y-28886914D01*
X45172767Y-28838931D01*
X45138252Y-28796874D01*
X45096195Y-28762359D01*
X45048212Y-28736712D01*
X44996149Y-28720919D01*
X44942004Y-28715586D01*
X42342004Y-28715586D01*
X42287859Y-28720919D01*
X42235796Y-28736712D01*
X42187813Y-28762359D01*
X42145756Y-28796874D01*
X42111241Y-28838931D01*
X42085594Y-28886914D01*
X42069801Y-28938977D01*
X42064468Y-28993122D01*
X30253600Y-28993122D01*
X30253600Y-27126346D01*
X31845496Y-27126346D01*
X32167552Y-27499166D01*
X32704476Y-27802319D01*
X33290226Y-27994899D01*
X33902291Y-28069505D01*
X34517151Y-28023270D01*
X35111176Y-27857969D01*
X35661538Y-27579956D01*
X35782448Y-27499166D01*
X36094540Y-27137880D01*
X37365804Y-27137880D01*
X37365804Y-27448364D01*
X37426376Y-27752883D01*
X37545193Y-28039733D01*
X37717689Y-28297891D01*
X37937235Y-28517437D01*
X38195393Y-28689933D01*
X38482243Y-28808750D01*
X38786762Y-28869322D01*
X39097246Y-28869322D01*
X39401765Y-28808750D01*
X39688615Y-28689933D01*
X39946773Y-28517437D01*
X40166319Y-28297891D01*
X40338815Y-28039733D01*
X40400682Y-27890372D01*
X65138355Y-27890372D01*
X65198441Y-28074200D01*
X66244200Y-28074200D01*
X66244200Y-27028526D01*
X66345800Y-27028526D01*
X66345800Y-28074200D01*
X67391559Y-28074200D01*
X67411210Y-28014079D01*
X67708800Y-28014079D01*
X67708800Y-28235921D01*
X67752079Y-28453500D01*
X67836975Y-28658456D01*
X67960223Y-28842911D01*
X68117089Y-28999777D01*
X68301544Y-29123025D01*
X68506500Y-29207921D01*
X68724079Y-29251200D01*
X68945921Y-29251200D01*
X69163500Y-29207921D01*
X69368456Y-29123025D01*
X69552911Y-28999777D01*
X69709777Y-28842911D01*
X69833025Y-28658456D01*
X69917921Y-28453500D01*
X69961200Y-28235921D01*
X69961200Y-28014079D01*
X69917921Y-27796500D01*
X69833025Y-27591544D01*
X69709777Y-27407089D01*
X69577688Y-27275000D01*
X70247464Y-27275000D01*
X70247464Y-28975000D01*
X70252797Y-29029145D01*
X70268590Y-29081208D01*
X70294237Y-29129191D01*
X70328752Y-29171248D01*
X70370809Y-29205763D01*
X70418792Y-29231410D01*
X70470855Y-29247203D01*
X70525000Y-29252536D01*
X72225000Y-29252536D01*
X72279145Y-29247203D01*
X72331208Y-29231410D01*
X72379191Y-29205763D01*
X72421248Y-29171248D01*
X72455763Y-29129191D01*
X72481410Y-29081208D01*
X72497203Y-29029145D01*
X72502536Y-28975000D01*
X72502536Y-27275000D01*
X72497203Y-27220855D01*
X72481410Y-27168792D01*
X72455763Y-27120809D01*
X72421248Y-27078752D01*
X72379191Y-27044237D01*
X72331208Y-27018590D01*
X72279145Y-27002797D01*
X72225000Y-26997464D01*
X70525000Y-26997464D01*
X70470855Y-27002797D01*
X70418792Y-27018590D01*
X70370809Y-27044237D01*
X70328752Y-27078752D01*
X70294237Y-27120809D01*
X70268590Y-27168792D01*
X70252797Y-27220855D01*
X70247464Y-27275000D01*
X69577688Y-27275000D01*
X69552911Y-27250223D01*
X69368456Y-27126975D01*
X69163500Y-27042079D01*
X68945921Y-26998800D01*
X68724079Y-26998800D01*
X68506500Y-27042079D01*
X68301544Y-27126975D01*
X68117089Y-27250223D01*
X67960223Y-27407089D01*
X67836975Y-27591544D01*
X67752079Y-27796500D01*
X67708800Y-28014079D01*
X67411210Y-28014079D01*
X67451645Y-27890372D01*
X67383647Y-27669230D01*
X67273813Y-27465603D01*
X67126363Y-27287316D01*
X66946965Y-27141221D01*
X66742512Y-27032932D01*
X66529627Y-26968358D01*
X66345800Y-27028526D01*
X66244200Y-27028526D01*
X66060373Y-26968358D01*
X65847488Y-27032932D01*
X65643035Y-27141221D01*
X65463637Y-27287316D01*
X65316187Y-27465603D01*
X65206353Y-27669230D01*
X65138355Y-27890372D01*
X40400682Y-27890372D01*
X40457632Y-27752883D01*
X40518204Y-27448364D01*
X40518204Y-27137880D01*
X40457632Y-26833361D01*
X40338815Y-26546511D01*
X40166319Y-26288353D01*
X39946773Y-26068807D01*
X39688615Y-25896311D01*
X39401765Y-25777494D01*
X39097246Y-25716922D01*
X38786762Y-25716922D01*
X38482243Y-25777494D01*
X38195393Y-25896311D01*
X37937235Y-26068807D01*
X37717689Y-26288353D01*
X37545193Y-26546511D01*
X37426376Y-26833361D01*
X37365804Y-27137880D01*
X36094540Y-27137880D01*
X36104504Y-27126346D01*
X33975000Y-24996842D01*
X31845496Y-27126346D01*
X30253600Y-27126346D01*
X30253600Y-24852291D01*
X30830495Y-24852291D01*
X30876730Y-25467151D01*
X31042031Y-26061176D01*
X31320044Y-26611538D01*
X31400834Y-26732448D01*
X31773654Y-27054504D01*
X33903158Y-24925000D01*
X34046842Y-24925000D01*
X36176346Y-27054504D01*
X36549166Y-26732448D01*
X36852319Y-26195524D01*
X37044899Y-25609774D01*
X37067008Y-25428388D01*
X42578580Y-25428388D01*
X42720722Y-25647585D01*
X43002666Y-25801293D01*
X43309180Y-25897042D01*
X43628485Y-25931154D01*
X43948309Y-25902317D01*
X44256362Y-25811640D01*
X44540805Y-25662608D01*
X44563286Y-25647585D01*
X44705428Y-25428388D01*
X43642004Y-24364964D01*
X42578580Y-25428388D01*
X37067008Y-25428388D01*
X37119505Y-24997709D01*
X37073270Y-24382849D01*
X37044540Y-24279603D01*
X42003972Y-24279603D01*
X42032809Y-24599427D01*
X42123486Y-24907480D01*
X42272518Y-25191923D01*
X42287541Y-25214404D01*
X42506738Y-25356546D01*
X43570162Y-24293122D01*
X43713846Y-24293122D01*
X44777270Y-25356546D01*
X44996467Y-25214404D01*
X45150175Y-24932460D01*
X45245924Y-24625946D01*
X45280036Y-24306641D01*
X45251199Y-23986817D01*
X45160522Y-23678764D01*
X45104595Y-23572021D01*
X71873801Y-23572021D01*
X71873801Y-24177979D01*
X71992018Y-24772294D01*
X72223908Y-25332126D01*
X72560561Y-25835962D01*
X72989038Y-26264439D01*
X73492874Y-26601092D01*
X74052706Y-26832982D01*
X74647021Y-26951199D01*
X75252979Y-26951199D01*
X75847294Y-26832982D01*
X76407126Y-26601092D01*
X76910962Y-26264439D01*
X77339439Y-25835962D01*
X77676092Y-25332126D01*
X77907982Y-24772294D01*
X78026199Y-24177979D01*
X78026199Y-23572021D01*
X77907982Y-22977706D01*
X77676092Y-22417874D01*
X77339439Y-21914038D01*
X76910962Y-21485561D01*
X76407126Y-21148908D01*
X75847294Y-20917018D01*
X75252979Y-20798801D01*
X74647021Y-20798801D01*
X74052706Y-20917018D01*
X73492874Y-21148908D01*
X72989038Y-21485561D01*
X72560561Y-21914038D01*
X72223908Y-22417874D01*
X71992018Y-22977706D01*
X71873801Y-23572021D01*
X45104595Y-23572021D01*
X45011490Y-23394321D01*
X44996467Y-23371840D01*
X44777270Y-23229698D01*
X43713846Y-24293122D01*
X43570162Y-24293122D01*
X42506738Y-23229698D01*
X42287541Y-23371840D01*
X42133833Y-23653784D01*
X42038084Y-23960298D01*
X42003972Y-24279603D01*
X37044540Y-24279603D01*
X36907969Y-23788824D01*
X36629956Y-23238462D01*
X36576097Y-23157856D01*
X42578580Y-23157856D01*
X43642004Y-24221280D01*
X44705428Y-23157856D01*
X44563286Y-22938659D01*
X44281342Y-22784951D01*
X43974828Y-22689202D01*
X43655523Y-22655090D01*
X43335699Y-22683927D01*
X43027646Y-22774604D01*
X42743203Y-22923636D01*
X42720722Y-22938659D01*
X42578580Y-23157856D01*
X36576097Y-23157856D01*
X36549166Y-23117552D01*
X36176346Y-22795496D01*
X34046842Y-24925000D01*
X33903158Y-24925000D01*
X31773654Y-22795496D01*
X31400834Y-23117552D01*
X31097681Y-23654476D01*
X30905101Y-24240226D01*
X30830495Y-24852291D01*
X30253600Y-24852291D01*
X30253600Y-22723654D01*
X31845496Y-22723654D01*
X33975000Y-24853158D01*
X36104504Y-22723654D01*
X35782448Y-22350834D01*
X35245524Y-22047681D01*
X34659774Y-21855101D01*
X34047709Y-21780495D01*
X33432849Y-21826730D01*
X32838824Y-21992031D01*
X32288462Y-22270044D01*
X32167552Y-22350834D01*
X31845496Y-22723654D01*
X30253600Y-22723654D01*
X30253600Y-20753600D01*
X78246401Y-20753600D01*
X78246400Y-83146400D01*
G37*
X78246400Y-83146400D02*
X30253600Y-83146400D01*
X30253600Y-81076346D01*
X38245496Y-81076346D01*
X38567552Y-81449166D01*
X39104476Y-81752319D01*
X39690226Y-81944899D01*
X40302291Y-82019505D01*
X40917151Y-81973270D01*
X41511176Y-81807969D01*
X42061538Y-81529956D01*
X42182448Y-81449166D01*
X42504504Y-81076346D01*
X72245496Y-81076346D01*
X72567552Y-81449166D01*
X73104476Y-81752319D01*
X73690226Y-81944899D01*
X74302291Y-82019505D01*
X74917151Y-81973270D01*
X75511176Y-81807969D01*
X76061538Y-81529956D01*
X76182448Y-81449166D01*
X76504504Y-81076346D01*
X74375000Y-78946842D01*
X72245496Y-81076346D01*
X42504504Y-81076346D01*
X40375000Y-78946842D01*
X38245496Y-81076346D01*
X30253600Y-81076346D01*
X30253600Y-78802291D01*
X37230495Y-78802291D01*
X37276730Y-79417151D01*
X37442031Y-80011176D01*
X37720044Y-80561538D01*
X37800834Y-80682448D01*
X38173654Y-81004504D01*
X40303158Y-78875000D01*
X40446842Y-78875000D01*
X42576346Y-81004504D01*
X42949166Y-80682448D01*
X43252319Y-80145524D01*
X43444899Y-79559774D01*
X43519505Y-78947709D01*
X43508571Y-78802291D01*
X71230495Y-78802291D01*
X71276730Y-79417151D01*
X71442031Y-80011176D01*
X71720044Y-80561538D01*
X71800834Y-80682448D01*
X72173654Y-81004504D01*
X74303158Y-78875000D01*
X74446842Y-78875000D01*
X76576346Y-81004504D01*
X76949166Y-80682448D01*
X77252319Y-80145524D01*
X77444899Y-79559774D01*
X77519505Y-78947709D01*
X77473270Y-78332849D01*
X77307969Y-77738824D01*
X77029956Y-77188462D01*
X76949166Y-77067552D01*
X76576346Y-76745496D01*
X74446842Y-78875000D01*
X74303158Y-78875000D01*
X72173654Y-76745496D01*
X71800834Y-77067552D01*
X71497681Y-77604476D01*
X71305101Y-78190226D01*
X71230495Y-78802291D01*
X43508571Y-78802291D01*
X43473270Y-78332849D01*
X43307969Y-77738824D01*
X43029956Y-77188462D01*
X42949166Y-77067552D01*
X42576346Y-76745496D01*
X40446842Y-78875000D01*
X40303158Y-78875000D01*
X38173654Y-76745496D01*
X37800834Y-77067552D01*
X37497681Y-77604476D01*
X37305101Y-78190226D01*
X37230495Y-78802291D01*
X30253600Y-78802291D01*
X30253600Y-76673654D01*
X38245496Y-76673654D01*
X40375000Y-78803158D01*
X42504504Y-76673654D01*
X72245496Y-76673654D01*
X74375000Y-78803158D01*
X76504504Y-76673654D01*
X76182448Y-76300834D01*
X75645524Y-75997681D01*
X75059774Y-75805101D01*
X74447709Y-75730495D01*
X73832849Y-75776730D01*
X73238824Y-75942031D01*
X72688462Y-76220044D01*
X72567552Y-76300834D01*
X72245496Y-76673654D01*
X42504504Y-76673654D01*
X42182448Y-76300834D01*
X41645524Y-75997681D01*
X41059774Y-75805101D01*
X40447709Y-75730495D01*
X39832849Y-75776730D01*
X39238824Y-75942031D01*
X38688462Y-76220044D01*
X38567552Y-76300834D01*
X38245496Y-76673654D01*
X30253600Y-76673654D01*
X30253600Y-71717777D01*
X52019000Y-71717777D01*
X52019000Y-71832223D01*
X52041328Y-71944471D01*
X52085125Y-72050207D01*
X52148708Y-72145366D01*
X52229634Y-72226292D01*
X52324793Y-72289875D01*
X52430529Y-72333672D01*
X52542777Y-72356000D01*
X52657223Y-72356000D01*
X52769471Y-72333672D01*
X52875207Y-72289875D01*
X52970366Y-72226292D01*
X53051292Y-72145366D01*
X53114875Y-72050207D01*
X53158672Y-71944471D01*
X53181000Y-71832223D01*
X53181000Y-71717777D01*
X53158672Y-71605529D01*
X53114875Y-71499793D01*
X53051292Y-71404634D01*
X52970366Y-71323708D01*
X52875207Y-71260125D01*
X52769471Y-71216328D01*
X52657223Y-71194000D01*
X52542777Y-71194000D01*
X52430529Y-71216328D01*
X52324793Y-71260125D01*
X52229634Y-71323708D01*
X52148708Y-71404634D01*
X52085125Y-71499793D01*
X52041328Y-71605529D01*
X52019000Y-71717777D01*
X30253600Y-71717777D01*
X30253600Y-70542777D01*
X53469000Y-70542777D01*
X53469000Y-70657223D01*
X53491328Y-70769471D01*
X53535125Y-70875207D01*
X53598708Y-70970366D01*
X53679634Y-71051292D01*
X53774793Y-71114875D01*
X53880529Y-71158672D01*
X53992777Y-71181000D01*
X54107223Y-71181000D01*
X54219471Y-71158672D01*
X54325207Y-71114875D01*
X54420366Y-71051292D01*
X54501292Y-70970366D01*
X54564875Y-70875207D01*
X54599018Y-70792777D01*
X58519000Y-70792777D01*
X58519000Y-70907223D01*
X58541328Y-71019471D01*
X58585125Y-71125207D01*
X58648708Y-71220366D01*
X58729634Y-71301292D01*
X58824793Y-71364875D01*
X58930529Y-71408672D01*
X59042777Y-71431000D01*
X59157223Y-71431000D01*
X59269471Y-71408672D01*
X59375207Y-71364875D01*
X59470366Y-71301292D01*
X59551292Y-71220366D01*
X59614875Y-71125207D01*
X59656381Y-71025000D01*
X61347464Y-71025000D01*
X61347464Y-72375000D01*
X61352797Y-72429145D01*
X61368590Y-72481208D01*
X61394237Y-72529191D01*
X61428752Y-72571248D01*
X61470809Y-72605763D01*
X61518792Y-72631410D01*
X61570855Y-72647203D01*
X61625000Y-72652536D01*
X62975000Y-72652536D01*
X63029145Y-72647203D01*
X63081208Y-72631410D01*
X63129191Y-72605763D01*
X63171248Y-72571248D01*
X63205763Y-72529191D01*
X63231410Y-72481208D01*
X63247203Y-72429145D01*
X63252536Y-72375000D01*
X63252536Y-71025000D01*
X63247203Y-70970855D01*
X63231410Y-70918792D01*
X63205763Y-70870809D01*
X63171248Y-70828752D01*
X63129191Y-70794237D01*
X63081208Y-70768590D01*
X63029145Y-70752797D01*
X62975000Y-70747464D01*
X61625000Y-70747464D01*
X61570855Y-70752797D01*
X61518792Y-70768590D01*
X61470809Y-70794237D01*
X61428752Y-70828752D01*
X61394237Y-70870809D01*
X61368590Y-70918792D01*
X61352797Y-70970855D01*
X61347464Y-71025000D01*
X59656381Y-71025000D01*
X59658672Y-71019471D01*
X59681000Y-70907223D01*
X59681000Y-70792777D01*
X59658672Y-70680529D01*
X59614875Y-70574793D01*
X59551292Y-70479634D01*
X59470366Y-70398708D01*
X59375207Y-70335125D01*
X59269471Y-70291328D01*
X59157223Y-70269000D01*
X59042777Y-70269000D01*
X58930529Y-70291328D01*
X58824793Y-70335125D01*
X58729634Y-70398708D01*
X58648708Y-70479634D01*
X58585125Y-70574793D01*
X58541328Y-70680529D01*
X58519000Y-70792777D01*
X54599018Y-70792777D01*
X54608672Y-70769471D01*
X54631000Y-70657223D01*
X54631000Y-70542777D01*
X54608672Y-70430529D01*
X54564875Y-70324793D01*
X54501292Y-70229634D01*
X54420366Y-70148708D01*
X54325207Y-70085125D01*
X54219471Y-70041328D01*
X54107223Y-70019000D01*
X53992777Y-70019000D01*
X53880529Y-70041328D01*
X53774793Y-70085125D01*
X53679634Y-70148708D01*
X53598708Y-70229634D01*
X53535125Y-70324793D01*
X53491328Y-70430529D01*
X53469000Y-70542777D01*
X30253600Y-70542777D01*
X30253600Y-65092777D01*
X57419000Y-65092777D01*
X57419000Y-65207223D01*
X57441328Y-65319471D01*
X57485125Y-65425207D01*
X57548708Y-65520366D01*
X57629634Y-65601292D01*
X57724793Y-65664875D01*
X57830529Y-65708672D01*
X57942777Y-65731000D01*
X58057223Y-65731000D01*
X58169471Y-65708672D01*
X58275207Y-65664875D01*
X58370366Y-65601292D01*
X58451292Y-65520366D01*
X58514875Y-65425207D01*
X58558672Y-65319471D01*
X58581000Y-65207223D01*
X58581000Y-65092777D01*
X58558672Y-64980529D01*
X58514875Y-64874793D01*
X58451292Y-64779634D01*
X58370366Y-64698708D01*
X58275207Y-64635125D01*
X58169471Y-64591328D01*
X58057223Y-64569000D01*
X57942777Y-64569000D01*
X57830529Y-64591328D01*
X57724793Y-64635125D01*
X57629634Y-64698708D01*
X57548708Y-64779634D01*
X57485125Y-64874793D01*
X57441328Y-64980529D01*
X57419000Y-65092777D01*
X30253600Y-65092777D01*
X30253600Y-56592777D01*
X39169000Y-56592777D01*
X39169000Y-56707223D01*
X39191328Y-56819471D01*
X39235125Y-56925207D01*
X39298708Y-57020366D01*
X39379634Y-57101292D01*
X39474793Y-57164875D01*
X39580529Y-57208672D01*
X39692777Y-57231000D01*
X39807223Y-57231000D01*
X39919471Y-57208672D01*
X40025207Y-57164875D01*
X40120366Y-57101292D01*
X40201292Y-57020366D01*
X40264875Y-56925207D01*
X40308672Y-56819471D01*
X40331000Y-56707223D01*
X40331000Y-56592777D01*
X40308672Y-56480529D01*
X40264875Y-56374793D01*
X40201292Y-56279634D01*
X40120366Y-56198708D01*
X40025207Y-56135125D01*
X39919471Y-56091328D01*
X39807223Y-56069000D01*
X39692777Y-56069000D01*
X39580529Y-56091328D01*
X39474793Y-56135125D01*
X39379634Y-56198708D01*
X39298708Y-56279634D01*
X39235125Y-56374793D01*
X39191328Y-56480529D01*
X39169000Y-56592777D01*
X30253600Y-56592777D01*
X30253600Y-53492777D01*
X39794000Y-53492777D01*
X39794000Y-53607223D01*
X39816328Y-53719471D01*
X39860125Y-53825207D01*
X39923708Y-53920366D01*
X40004634Y-54001292D01*
X40099793Y-54064875D01*
X40205529Y-54108672D01*
X40317777Y-54131000D01*
X40432223Y-54131000D01*
X40544471Y-54108672D01*
X40650207Y-54064875D01*
X40745366Y-54001292D01*
X40826292Y-53920366D01*
X40889875Y-53825207D01*
X40933672Y-53719471D01*
X40956000Y-53607223D01*
X40956000Y-53492777D01*
X40933672Y-53380529D01*
X40889875Y-53274793D01*
X40826292Y-53179634D01*
X40745366Y-53098708D01*
X40650207Y-53035125D01*
X40544471Y-52991328D01*
X40432223Y-52969000D01*
X40317777Y-52969000D01*
X40205529Y-52991328D01*
X40099793Y-53035125D01*
X40004634Y-53098708D01*
X39923708Y-53179634D01*
X39860125Y-53274793D01*
X39816328Y-53380529D01*
X39794000Y-53492777D01*
X30253600Y-53492777D01*
X30253600Y-51875000D01*
X43272464Y-51875000D01*
X43272464Y-53225000D01*
X43277797Y-53279145D01*
X43293590Y-53331208D01*
X43319237Y-53379191D01*
X43353752Y-53421248D01*
X43395809Y-53455763D01*
X43443792Y-53481410D01*
X43495855Y-53497203D01*
X43550000Y-53502536D01*
X44900000Y-53502536D01*
X44954145Y-53497203D01*
X45006208Y-53481410D01*
X45054191Y-53455763D01*
X45096248Y-53421248D01*
X45130763Y-53379191D01*
X45156410Y-53331208D01*
X45168067Y-53292777D01*
X68119000Y-53292777D01*
X68119000Y-53407223D01*
X68141328Y-53519471D01*
X68185125Y-53625207D01*
X68248708Y-53720366D01*
X68329634Y-53801292D01*
X68424793Y-53864875D01*
X68530529Y-53908672D01*
X68642777Y-53931000D01*
X68757223Y-53931000D01*
X68869471Y-53908672D01*
X68975207Y-53864875D01*
X69070366Y-53801292D01*
X69151292Y-53720366D01*
X69214875Y-53625207D01*
X69258672Y-53519471D01*
X69281000Y-53407223D01*
X69281000Y-53292777D01*
X69258672Y-53180529D01*
X69214875Y-53074793D01*
X69151292Y-52979634D01*
X69070366Y-52898708D01*
X68975207Y-52835125D01*
X68869471Y-52791328D01*
X68757223Y-52769000D01*
X68642777Y-52769000D01*
X68530529Y-52791328D01*
X68424793Y-52835125D01*
X68329634Y-52898708D01*
X68248708Y-52979634D01*
X68185125Y-53074793D01*
X68141328Y-53180529D01*
X68119000Y-53292777D01*
X45168067Y-53292777D01*
X45172203Y-53279145D01*
X45177536Y-53225000D01*
X45177536Y-52225000D01*
X70997464Y-52225000D01*
X70997464Y-53575000D01*
X71002797Y-53629145D01*
X71018590Y-53681208D01*
X71044237Y-53729191D01*
X71078752Y-53771248D01*
X71120809Y-53805763D01*
X71168792Y-53831410D01*
X71220855Y-53847203D01*
X71275000Y-53852536D01*
X72625000Y-53852536D01*
X72679145Y-53847203D01*
X72731208Y-53831410D01*
X72779191Y-53805763D01*
X72821248Y-53771248D01*
X72855763Y-53729191D01*
X72881410Y-53681208D01*
X72897203Y-53629145D01*
X72902536Y-53575000D01*
X72902536Y-52225000D01*
X72897203Y-52170855D01*
X72881410Y-52118792D01*
X72855763Y-52070809D01*
X72821248Y-52028752D01*
X72779191Y-51994237D01*
X72731208Y-51968590D01*
X72679145Y-51952797D01*
X72625000Y-51947464D01*
X71275000Y-51947464D01*
X71220855Y-51952797D01*
X71168792Y-51968590D01*
X71120809Y-51994237D01*
X71078752Y-52028752D01*
X71044237Y-52070809D01*
X71018590Y-52118792D01*
X71002797Y-52170855D01*
X70997464Y-52225000D01*
X45177536Y-52225000D01*
X45177536Y-51875000D01*
X45172203Y-51820855D01*
X45156410Y-51768792D01*
X45130763Y-51720809D01*
X45096248Y-51678752D01*
X45054191Y-51644237D01*
X45006208Y-51618590D01*
X44954145Y-51602797D01*
X44900000Y-51597464D01*
X43550000Y-51597464D01*
X43495855Y-51602797D01*
X43443792Y-51618590D01*
X43395809Y-51644237D01*
X43353752Y-51678752D01*
X43319237Y-51720809D01*
X43293590Y-51768792D01*
X43277797Y-51820855D01*
X43272464Y-51875000D01*
X30253600Y-51875000D01*
X30253600Y-50992777D01*
X38744000Y-50992777D01*
X38744000Y-51107223D01*
X38766328Y-51219471D01*
X38810125Y-51325207D01*
X38873708Y-51420366D01*
X38954634Y-51501292D01*
X39049793Y-51564875D01*
X39155529Y-51608672D01*
X39267777Y-51631000D01*
X39382223Y-51631000D01*
X39494471Y-51608672D01*
X39600207Y-51564875D01*
X39695366Y-51501292D01*
X39776292Y-51420366D01*
X39839875Y-51325207D01*
X39883672Y-51219471D01*
X39903900Y-51117777D01*
X40494000Y-51117777D01*
X40494000Y-51232223D01*
X40516328Y-51344471D01*
X40560125Y-51450207D01*
X40623708Y-51545366D01*
X40704634Y-51626292D01*
X40799793Y-51689875D01*
X40905529Y-51733672D01*
X41017777Y-51756000D01*
X41132223Y-51756000D01*
X41244471Y-51733672D01*
X41350207Y-51689875D01*
X41445366Y-51626292D01*
X41526292Y-51545366D01*
X41589875Y-51450207D01*
X41633672Y-51344471D01*
X41656000Y-51232223D01*
X41656000Y-51117777D01*
X41633672Y-51005529D01*
X41589875Y-50899793D01*
X41526292Y-50804634D01*
X41445366Y-50723708D01*
X41350207Y-50660125D01*
X41244471Y-50616328D01*
X41132223Y-50594000D01*
X41017777Y-50594000D01*
X40905529Y-50616328D01*
X40799793Y-50660125D01*
X40704634Y-50723708D01*
X40623708Y-50804634D01*
X40560125Y-50899793D01*
X40516328Y-51005529D01*
X40494000Y-51117777D01*
X39903900Y-51117777D01*
X39906000Y-51107223D01*
X39906000Y-50992777D01*
X39883672Y-50880529D01*
X39839875Y-50774793D01*
X39776292Y-50679634D01*
X39695366Y-50598708D01*
X39600207Y-50535125D01*
X39494471Y-50491328D01*
X39382223Y-50469000D01*
X39267777Y-50469000D01*
X39155529Y-50491328D01*
X39049793Y-50535125D01*
X38954634Y-50598708D01*
X38873708Y-50679634D01*
X38810125Y-50774793D01*
X38766328Y-50880529D01*
X38744000Y-50992777D01*
X30253600Y-50992777D01*
X30253600Y-37983400D01*
X68998800Y-37983400D01*
X68998800Y-38116600D01*
X69024786Y-38247240D01*
X69075759Y-38370301D01*
X69149761Y-38481052D01*
X69243948Y-38575239D01*
X69354699Y-38649241D01*
X69477760Y-38700214D01*
X69608400Y-38726200D01*
X69741600Y-38726200D01*
X69872240Y-38700214D01*
X69995301Y-38649241D01*
X70106052Y-38575239D01*
X70200239Y-38481052D01*
X70274241Y-38370301D01*
X70325214Y-38247240D01*
X70351200Y-38116600D01*
X70351200Y-37983400D01*
X70325214Y-37852760D01*
X70274241Y-37729699D01*
X70200239Y-37618948D01*
X70106052Y-37524761D01*
X69995301Y-37450759D01*
X69872240Y-37399786D01*
X69741600Y-37373800D01*
X69608400Y-37373800D01*
X69477760Y-37399786D01*
X69354699Y-37450759D01*
X69243948Y-37524761D01*
X69149761Y-37618948D01*
X69075759Y-37729699D01*
X69024786Y-37852760D01*
X68998800Y-37983400D01*
X30253600Y-37983400D01*
X30253600Y-33242777D01*
X59719000Y-33242777D01*
X59719000Y-33357223D01*
X59741328Y-33469471D01*
X59785125Y-33575207D01*
X59848708Y-33670366D01*
X59929634Y-33751292D01*
X60024793Y-33814875D01*
X60130529Y-33858672D01*
X60242777Y-33881000D01*
X60357223Y-33881000D01*
X60469471Y-33858672D01*
X60575207Y-33814875D01*
X60670366Y-33751292D01*
X60751292Y-33670366D01*
X60814875Y-33575207D01*
X60858672Y-33469471D01*
X60881000Y-33357223D01*
X60881000Y-33242777D01*
X60858672Y-33130529D01*
X60814875Y-33024793D01*
X60751292Y-32929634D01*
X60670366Y-32848708D01*
X60575207Y-32785125D01*
X60469471Y-32741328D01*
X60357223Y-32719000D01*
X60242777Y-32719000D01*
X60130529Y-32741328D01*
X60024793Y-32785125D01*
X59929634Y-32848708D01*
X59848708Y-32929634D01*
X59785125Y-33024793D01*
X59741328Y-33130529D01*
X59719000Y-33242777D01*
X30253600Y-33242777D01*
X30253600Y-28993122D01*
X42064468Y-28993122D01*
X42064468Y-31593122D01*
X42069801Y-31647267D01*
X42085594Y-31699330D01*
X42111241Y-31747313D01*
X42145756Y-31789370D01*
X42187813Y-31823885D01*
X42235796Y-31849532D01*
X42287859Y-31865325D01*
X42342004Y-31870658D01*
X44942004Y-31870658D01*
X44996149Y-31865325D01*
X45048212Y-31849532D01*
X45096195Y-31823885D01*
X45138252Y-31789370D01*
X45172767Y-31747313D01*
X45198414Y-31699330D01*
X45214207Y-31647267D01*
X45219540Y-31593122D01*
X45219540Y-30792777D01*
X69669000Y-30792777D01*
X69669000Y-30907223D01*
X69691328Y-31019471D01*
X69735125Y-31125207D01*
X69798708Y-31220366D01*
X69879634Y-31301292D01*
X69974793Y-31364875D01*
X70080529Y-31408672D01*
X70192777Y-31431000D01*
X70307223Y-31431000D01*
X70419471Y-31408672D01*
X70525207Y-31364875D01*
X70620366Y-31301292D01*
X70701292Y-31220366D01*
X70764875Y-31125207D01*
X70808672Y-31019471D01*
X70831000Y-30907223D01*
X70831000Y-30792777D01*
X70808672Y-30680529D01*
X70764875Y-30574793D01*
X70701292Y-30479634D01*
X70620366Y-30398708D01*
X70525207Y-30335125D01*
X70419471Y-30291328D01*
X70307223Y-30269000D01*
X70192777Y-30269000D01*
X70080529Y-30291328D01*
X69974793Y-30335125D01*
X69879634Y-30398708D01*
X69798708Y-30479634D01*
X69735125Y-30574793D01*
X69691328Y-30680529D01*
X69669000Y-30792777D01*
X45219540Y-30792777D01*
X45219540Y-29025645D01*
X59193800Y-29025645D01*
X59193800Y-29554354D01*
X59205393Y-29672062D01*
X59251207Y-29823088D01*
X59325604Y-29962275D01*
X59425725Y-30084275D01*
X59547724Y-30184396D01*
X59686911Y-30258793D01*
X59837937Y-30304607D01*
X59995000Y-30320076D01*
X60152062Y-30304607D01*
X60303088Y-30258793D01*
X60442275Y-30184396D01*
X60564275Y-30084275D01*
X60630000Y-30004188D01*
X60695725Y-30084275D01*
X60817724Y-30184396D01*
X60956911Y-30258793D01*
X61107937Y-30304607D01*
X61265000Y-30320076D01*
X61422062Y-30304607D01*
X61573088Y-30258793D01*
X61712275Y-30184396D01*
X61755181Y-30149185D01*
X61779237Y-30194191D01*
X61813752Y-30236248D01*
X61855809Y-30270763D01*
X61903792Y-30296410D01*
X61955855Y-30312203D01*
X62010000Y-30317536D01*
X63060000Y-30317536D01*
X63114145Y-30312203D01*
X63166208Y-30296410D01*
X63214191Y-30270763D01*
X63256248Y-30236248D01*
X63290763Y-30194191D01*
X63316410Y-30146208D01*
X63332203Y-30094145D01*
X63337536Y-30040000D01*
X63337536Y-28540000D01*
X63332203Y-28485855D01*
X63316410Y-28433792D01*
X63290763Y-28385809D01*
X63269277Y-28359628D01*
X65138355Y-28359628D01*
X65206353Y-28580770D01*
X65316187Y-28784397D01*
X65463637Y-28962684D01*
X65643035Y-29108779D01*
X65847488Y-29217068D01*
X66060373Y-29281642D01*
X66244200Y-29221474D01*
X66244200Y-28175800D01*
X66345800Y-28175800D01*
X66345800Y-29221474D01*
X66529627Y-29281642D01*
X66742512Y-29217068D01*
X66946965Y-29108779D01*
X67126363Y-28962684D01*
X67273813Y-28784397D01*
X67383647Y-28580770D01*
X67451645Y-28359628D01*
X67391559Y-28175800D01*
X66345800Y-28175800D01*
X66244200Y-28175800D01*
X65198441Y-28175800D01*
X65138355Y-28359628D01*
X63269277Y-28359628D01*
X63256248Y-28343752D01*
X63214191Y-28309237D01*
X63166208Y-28283590D01*
X63114145Y-28267797D01*
X63060000Y-28262464D01*
X62010000Y-28262464D01*
X61955855Y-28267797D01*
X61903792Y-28283590D01*
X61855809Y-28309237D01*
X61813752Y-28343752D01*
X61779237Y-28385809D01*
X61755181Y-28430815D01*
X61712276Y-28395604D01*
X61573089Y-28321207D01*
X61422063Y-28275393D01*
X61265000Y-28259924D01*
X61107938Y-28275393D01*
X60956912Y-28321207D01*
X60817725Y-28395604D01*
X60695726Y-28495725D01*
X60630000Y-28575812D01*
X60564275Y-28495725D01*
X60442276Y-28395604D01*
X60303089Y-28321207D01*
X60152063Y-28275393D01*
X59995000Y-28259924D01*
X59837938Y-28275393D01*
X59686912Y-28321207D01*
X59547725Y-28395604D01*
X59425726Y-28495725D01*
X59325604Y-28617724D01*
X59251207Y-28756911D01*
X59205393Y-28907937D01*
X59193800Y-29025645D01*
X45219540Y-29025645D01*
X45219540Y-28993122D01*
X45214207Y-28938977D01*
X45198414Y-28886914D01*
X45172767Y-28838931D01*
X45138252Y-28796874D01*
X45096195Y-28762359D01*
X45048212Y-28736712D01*
X44996149Y-28720919D01*
X44942004Y-28715586D01*
X42342004Y-28715586D01*
X42287859Y-28720919D01*
X42235796Y-28736712D01*
X42187813Y-28762359D01*
X42145756Y-28796874D01*
X42111241Y-28838931D01*
X42085594Y-28886914D01*
X42069801Y-28938977D01*
X42064468Y-28993122D01*
X30253600Y-28993122D01*
X30253600Y-27126346D01*
X31845496Y-27126346D01*
X32167552Y-27499166D01*
X32704476Y-27802319D01*
X33290226Y-27994899D01*
X33902291Y-28069505D01*
X34517151Y-28023270D01*
X35111176Y-27857969D01*
X35661538Y-27579956D01*
X35782448Y-27499166D01*
X36094540Y-27137880D01*
X37365804Y-27137880D01*
X37365804Y-27448364D01*
X37426376Y-27752883D01*
X37545193Y-28039733D01*
X37717689Y-28297891D01*
X37937235Y-28517437D01*
X38195393Y-28689933D01*
X38482243Y-28808750D01*
X38786762Y-28869322D01*
X39097246Y-28869322D01*
X39401765Y-28808750D01*
X39688615Y-28689933D01*
X39946773Y-28517437D01*
X40166319Y-28297891D01*
X40338815Y-28039733D01*
X40400682Y-27890372D01*
X65138355Y-27890372D01*
X65198441Y-28074200D01*
X66244200Y-28074200D01*
X66244200Y-27028526D01*
X66345800Y-27028526D01*
X66345800Y-28074200D01*
X67391559Y-28074200D01*
X67411210Y-28014079D01*
X67708800Y-28014079D01*
X67708800Y-28235921D01*
X67752079Y-28453500D01*
X67836975Y-28658456D01*
X67960223Y-28842911D01*
X68117089Y-28999777D01*
X68301544Y-29123025D01*
X68506500Y-29207921D01*
X68724079Y-29251200D01*
X68945921Y-29251200D01*
X69163500Y-29207921D01*
X69368456Y-29123025D01*
X69552911Y-28999777D01*
X69709777Y-28842911D01*
X69833025Y-28658456D01*
X69917921Y-28453500D01*
X69961200Y-28235921D01*
X69961200Y-28014079D01*
X69917921Y-27796500D01*
X69833025Y-27591544D01*
X69709777Y-27407089D01*
X69577688Y-27275000D01*
X70247464Y-27275000D01*
X70247464Y-28975000D01*
X70252797Y-29029145D01*
X70268590Y-29081208D01*
X70294237Y-29129191D01*
X70328752Y-29171248D01*
X70370809Y-29205763D01*
X70418792Y-29231410D01*
X70470855Y-29247203D01*
X70525000Y-29252536D01*
X72225000Y-29252536D01*
X72279145Y-29247203D01*
X72331208Y-29231410D01*
X72379191Y-29205763D01*
X72421248Y-29171248D01*
X72455763Y-29129191D01*
X72481410Y-29081208D01*
X72497203Y-29029145D01*
X72502536Y-28975000D01*
X72502536Y-27275000D01*
X72497203Y-27220855D01*
X72481410Y-27168792D01*
X72455763Y-27120809D01*
X72421248Y-27078752D01*
X72379191Y-27044237D01*
X72331208Y-27018590D01*
X72279145Y-27002797D01*
X72225000Y-26997464D01*
X70525000Y-26997464D01*
X70470855Y-27002797D01*
X70418792Y-27018590D01*
X70370809Y-27044237D01*
X70328752Y-27078752D01*
X70294237Y-27120809D01*
X70268590Y-27168792D01*
X70252797Y-27220855D01*
X70247464Y-27275000D01*
X69577688Y-27275000D01*
X69552911Y-27250223D01*
X69368456Y-27126975D01*
X69163500Y-27042079D01*
X68945921Y-26998800D01*
X68724079Y-26998800D01*
X68506500Y-27042079D01*
X68301544Y-27126975D01*
X68117089Y-27250223D01*
X67960223Y-27407089D01*
X67836975Y-27591544D01*
X67752079Y-27796500D01*
X67708800Y-28014079D01*
X67411210Y-28014079D01*
X67451645Y-27890372D01*
X67383647Y-27669230D01*
X67273813Y-27465603D01*
X67126363Y-27287316D01*
X66946965Y-27141221D01*
X66742512Y-27032932D01*
X66529627Y-26968358D01*
X66345800Y-27028526D01*
X66244200Y-27028526D01*
X66060373Y-26968358D01*
X65847488Y-27032932D01*
X65643035Y-27141221D01*
X65463637Y-27287316D01*
X65316187Y-27465603D01*
X65206353Y-27669230D01*
X65138355Y-27890372D01*
X40400682Y-27890372D01*
X40457632Y-27752883D01*
X40518204Y-27448364D01*
X40518204Y-27137880D01*
X40457632Y-26833361D01*
X40338815Y-26546511D01*
X40166319Y-26288353D01*
X39946773Y-26068807D01*
X39688615Y-25896311D01*
X39401765Y-25777494D01*
X39097246Y-25716922D01*
X38786762Y-25716922D01*
X38482243Y-25777494D01*
X38195393Y-25896311D01*
X37937235Y-26068807D01*
X37717689Y-26288353D01*
X37545193Y-26546511D01*
X37426376Y-26833361D01*
X37365804Y-27137880D01*
X36094540Y-27137880D01*
X36104504Y-27126346D01*
X33975000Y-24996842D01*
X31845496Y-27126346D01*
X30253600Y-27126346D01*
X30253600Y-24852291D01*
X30830495Y-24852291D01*
X30876730Y-25467151D01*
X31042031Y-26061176D01*
X31320044Y-26611538D01*
X31400834Y-26732448D01*
X31773654Y-27054504D01*
X33903158Y-24925000D01*
X34046842Y-24925000D01*
X36176346Y-27054504D01*
X36549166Y-26732448D01*
X36852319Y-26195524D01*
X37044899Y-25609774D01*
X37067008Y-25428388D01*
X42578580Y-25428388D01*
X42720722Y-25647585D01*
X43002666Y-25801293D01*
X43309180Y-25897042D01*
X43628485Y-25931154D01*
X43948309Y-25902317D01*
X44256362Y-25811640D01*
X44540805Y-25662608D01*
X44563286Y-25647585D01*
X44705428Y-25428388D01*
X43642004Y-24364964D01*
X42578580Y-25428388D01*
X37067008Y-25428388D01*
X37119505Y-24997709D01*
X37073270Y-24382849D01*
X37044540Y-24279603D01*
X42003972Y-24279603D01*
X42032809Y-24599427D01*
X42123486Y-24907480D01*
X42272518Y-25191923D01*
X42287541Y-25214404D01*
X42506738Y-25356546D01*
X43570162Y-24293122D01*
X43713846Y-24293122D01*
X44777270Y-25356546D01*
X44996467Y-25214404D01*
X45150175Y-24932460D01*
X45245924Y-24625946D01*
X45280036Y-24306641D01*
X45251199Y-23986817D01*
X45160522Y-23678764D01*
X45104595Y-23572021D01*
X71873801Y-23572021D01*
X71873801Y-24177979D01*
X71992018Y-24772294D01*
X72223908Y-25332126D01*
X72560561Y-25835962D01*
X72989038Y-26264439D01*
X73492874Y-26601092D01*
X74052706Y-26832982D01*
X74647021Y-26951199D01*
X75252979Y-26951199D01*
X75847294Y-26832982D01*
X76407126Y-26601092D01*
X76910962Y-26264439D01*
X77339439Y-25835962D01*
X77676092Y-25332126D01*
X77907982Y-24772294D01*
X78026199Y-24177979D01*
X78026199Y-23572021D01*
X77907982Y-22977706D01*
X77676092Y-22417874D01*
X77339439Y-21914038D01*
X76910962Y-21485561D01*
X76407126Y-21148908D01*
X75847294Y-20917018D01*
X75252979Y-20798801D01*
X74647021Y-20798801D01*
X74052706Y-20917018D01*
X73492874Y-21148908D01*
X72989038Y-21485561D01*
X72560561Y-21914038D01*
X72223908Y-22417874D01*
X71992018Y-22977706D01*
X71873801Y-23572021D01*
X45104595Y-23572021D01*
X45011490Y-23394321D01*
X44996467Y-23371840D01*
X44777270Y-23229698D01*
X43713846Y-24293122D01*
X43570162Y-24293122D01*
X42506738Y-23229698D01*
X42287541Y-23371840D01*
X42133833Y-23653784D01*
X42038084Y-23960298D01*
X42003972Y-24279603D01*
X37044540Y-24279603D01*
X36907969Y-23788824D01*
X36629956Y-23238462D01*
X36576097Y-23157856D01*
X42578580Y-23157856D01*
X43642004Y-24221280D01*
X44705428Y-23157856D01*
X44563286Y-22938659D01*
X44281342Y-22784951D01*
X43974828Y-22689202D01*
X43655523Y-22655090D01*
X43335699Y-22683927D01*
X43027646Y-22774604D01*
X42743203Y-22923636D01*
X42720722Y-22938659D01*
X42578580Y-23157856D01*
X36576097Y-23157856D01*
X36549166Y-23117552D01*
X36176346Y-22795496D01*
X34046842Y-24925000D01*
X33903158Y-24925000D01*
X31773654Y-22795496D01*
X31400834Y-23117552D01*
X31097681Y-23654476D01*
X30905101Y-24240226D01*
X30830495Y-24852291D01*
X30253600Y-24852291D01*
X30253600Y-22723654D01*
X31845496Y-22723654D01*
X33975000Y-24853158D01*
X36104504Y-22723654D01*
X35782448Y-22350834D01*
X35245524Y-22047681D01*
X34659774Y-21855101D01*
X34047709Y-21780495D01*
X33432849Y-21826730D01*
X32838824Y-21992031D01*
X32288462Y-22270044D01*
X32167552Y-22350834D01*
X31845496Y-22723654D01*
X30253600Y-22723654D01*
X30253600Y-20753600D01*
X78246401Y-20753600D01*
X78246400Y-83146400D01*
M02*
