M48
; DRILL file {KiCad (5.1.5)-3} date 5/10/2020 3:54:23 PM
; FORMAT={-:-/ absolute / inch / decimal}
; #@! TF.CreationDate,2020-05-10T15:54:23-07:00
; #@! TF.GenerationSoftware,Kicad,Pcbnew,(5.1.5)-3
FMAT,2
INCH
T1C0.0120
T2C0.0157
T3C0.0295
T4C0.0315
T5C0.0394
T6C0.0630
T7C0.1260
%
G90
G05
T1
X1.3976Y-1.3573
X1.3976Y-1.4596
X1.3976Y-1.7943
X1.4006Y-2.7185
X1.4016Y-2.3976
X1.4026Y-2.4774
X1.4035Y-2.8031
X1.4055Y-1.6978
X1.4055Y-3.0502
X1.4075Y-2.0541
X1.4075Y-2.1467
X1.4085Y-3.1378
X1.5305Y-2.0404
X1.5433Y-2.185
X1.5482Y-2.0098
X1.565Y-2.2303
X1.5896Y-2.1083
X1.6171Y-2.0148
X1.6476Y-2.0246
X1.7835Y-3.062
X1.8642Y-3.0659
X1.8799Y-1.9331
X1.9941Y-2.8248
X2.0709Y-2.8258
X2.1152Y-3.063
X2.128Y-2.7795
X2.2057Y-3.0591
X2.2087Y-2.7096
X2.2175Y-1.2096
X2.2721Y-2.6361
X2.2835Y-2.565
X2.3189Y-2.7451
X2.3268Y-2.7894
X2.374Y-1.311
X2.376Y-1.3435
X2.4754Y-2.5413
X2.5728Y-1.3317
X2.6949Y-2.1457
X2.7028Y-1.2431
X2.7037Y-1.628
X2.7047Y-2.1004
X2.7648Y-1.9508
X2.7657Y-1.2146
X2.7667Y-1.247
X2.8701Y-2.6909
X2.8701Y-2.7677
X2.874Y-1.565
X2.874Y-1.6634
X2.874Y-2.3563
X2.874Y-2.435
T2
X1.6367Y-0.9608
X1.7253Y-0.882
X1.7253Y-1.0297
X1.7942Y-0.9608
X2.7431Y-1.498
X2.874Y-1.8996
X2.874Y-1.9882
T3
X2.362Y-1.1531
X2.412Y-1.1531
X2.462Y-1.1531
T4
X2.4528Y-2.8228
X1.7411Y-2.0689
X2.8327Y-2.0827
T5
X2.61Y-1.1073
X2.71Y-1.1073
X2.81Y-1.1073
T6
X1.5331Y-1.0745
X1.7182Y-0.9564
X1.7182Y-1.1926
T7
X2.9281Y-3.1053
X1.3376Y-0.9813
X1.5896Y-3.1053
X2.9508Y-0.94
T0
M30
